<svg height="41" viewBox="0 0 253.669 41" width="253.669" xmlns="http://www.w3.org/2000/svg"><g fill="#161615"><path d="m225.134 415.715h-3.315l4.5 7.577h3.981l1.421-2.054-3.277-5.523z" transform="translate(-210.02 -399.378)"/><path d="m265.385 419.74-2.406-4.024h-10.3l4.538 7.577v11.957h-2.368v4.341h14.129v-4.341h-3.593z" transform="translate(-232.79 -399.378)"/><path d="m302.191 423.249h3.354v-7.535h-7.853z" transform="translate(-266.003 -399.377)"/><path d="m376.257 414.2h-1.342c-.277 0-.751.041-.751.041l3.118 5.288c.908.631 2.961 2.484 2.961 7.142 0 6.946-3.869 7.658-3.869 7.658l2.764 4.617c6-1.266 9.272-6.2 9.272-12.314 0-6.986-4.419-12.193-12.154-12.432" transform="translate(-322.43 -398.261)"/><path d="m339.128 427.383c0-6.826 3.671-7.26 4.341-7.26h.355l-3-5.012c-6.274 1.1-9.866 5.959-9.866 12.233 0 6.983 4.459 12.353 12.116 12.588h1.343l1.5-.076-2.88-4.816c-.514-.119-3.908-1.263-3.908-7.656" transform="translate(-290.55 -398.932)"/><path d="m185.708 421.128c0-1.618 1.932-1.7 3.118-1.7h1.774l-2.763-4.617c-.236 0-1.54.037-1.737.037-4.774.435-8.089 3.158-8.089 7.3 0 8.483 10.654 6.787 10.654 10.378 0 1.972-2.25 1.934-3.118 1.894l2.96 4.932c2.249 0 8.683-.393 8.683-7.853 0-7.972-11.483-6.353-11.483-10.378" transform="translate(-177.697 -398.713)"/><path d="m1117.918 423.249v-7.535h-8.644l4.539 7.535z" transform="translate(-864.84 -399.377)"/><path d="m176.808 478.188v7.539h9.074l-4.459-7.539z" transform="translate(-176.808 -445.474)"/><path d="m443.675 444.7-6.394-10.774v14.761h-2.446v4.38h11.011v-4.38h-2.172z" transform="translate(-367.196 -412.816)"/><path d="m1023.076 423.249v-7.535h-8.643l4.539 7.535z" transform="translate(-794.86 -399.377)"/><path d="m598.691 423.249v-7.535h-8.642l4.539 7.535z" transform="translate(-481.723 -399.377)"/><path d="m835.345 423.249v-7.535h-8.645l4.539 7.535z" transform="translate(-656.34 -399.377)"/><path d="m1116.039 478.188-4.5 7.539h8.641v-7.539z" transform="translate(-866.512 -445.474)"/><path d="m908.2 415.667c-.71-.038-2.8 0-3.513 0l2.486 4.182c2.764 0 4.894 2.21 4.894 7.853 0 5.329-1.777 7.615-4.657 7.774l2.367 3.948c7.024-.75 10.5-4.54 10.5-11.759 0-7.461-4.264-11.406-12.077-12" transform="translate(-713.881 -399.33)"/><path d="m828.963 485.728h8.642v-7.539h-4.143z" transform="translate(-658.009 -445.475)"/><path d="m879.02 420.1-2.6-4.38h-8.02v4.38h2.446v15.15h-2.446v4.38h13.22l-2.6-4.38z" transform="translate(-687.11 -399.378)"/><path d="m978.227 427.525c0-5.406 1.738-7.5 4.619-7.655l-2.683-4.46c-6.63.945-10.143 5.052-10.143 12.078 0 9.112 5.721 12.192 11.051 12.192a16.426 16.426 0 0 0 4.655-.71l-2.484-4.144c-3.079 0-5.014-1.737-5.014-7.3" transform="translate(-762.089 -399.152)"/><path d="m1018.349 465.054h1.814v2.96l2.961 4.934h4.42v-7.894-4.185h-9.2z" transform="translate(-797.75 -432.695)"/><path d="m1070.816 435.25v-5.05h5.21v-5.29h-5.21v-4.81h3.394l-2.565-4.38h-11.445v4.38h2.446v15.15h-2.446v4.38h12l2.563-4.38z" transform="translate(-828.632 -399.378)"/><path d="m782.131 435.25v-5.05h5.406v-5.29h-5.406v-4.81h3.394l-2.566-4.38h-13.615l2.606 4.38h2.012v15.15h-1.973l-2.605 4.38h14.129l2.644-4.38z" transform="translate(-614.018 -399.378)"/><path d="m493.553 420.1h2.408v4.42l6.352 10.615v-15.035h2.407v-4.38h-11.167z" transform="translate(-410.522 -399.378)"/><path d="m551.589 435.25v-5.05h5.406v-5.29h-5.406v-4.81h3.4l-2.566-4.38h-11.449v4.38h2.445v15.15h-2.445v4.38h11.955l2.646-4.38z" transform="translate(-445.512 -399.378)"/><path d="m437.281 415.715h-2.446v4.38h3.665l11.643 19.535h8.841v-1.936l-13.023-21.979z" transform="translate(-367.196 -399.378)"/><path d="m693.039 435.25v-15.15h2.761l-2.606-4.38h-10.694v4.38h2.447v4.813h-6.236v-4.813h2.489v-4.38h-13.023v4.38h2.447v15.15h-2.447v4.38h13.023v-4.38h-2.487v-5.05h6.236v5.051h-2.449v4.38h10.733l2.644-4.38z" transform="translate(-539.371 -399.378)"/><path d="m592.307 485.728h8.643v-7.539h-4.143z" transform="translate(-483.389 -445.475)"/></g><path d="m0 15.941h253.669v25.059h-253.669z" fill="none"/><path d="m0 15.941h253.669v25.059h-253.669z" fill="none"/><path d="m178.568 362.645c1.153-.072 1.8-.562 2.206-3.82l.591-4.829h5.882v8.549h.879v2.84h-1.2v-1.775h-7.164v1.773h-1.2zm1.917-.1h5.564v-7.482h-3.618l-.476 3.849c-.245 2.031-.764 3.098-1.47 3.632z" fill="#161615" transform="translate(-178.106 -353.836)"/><path d="m220.862 363.61v-9.615h6.3v1.067h-5.1v3.1h5v1.067h-5v3.316h5.1v1.067z" fill="#161615" transform="translate(-209.313 -353.836)"/><path d="m252.156 363.61v-9.615h4.281a2.426 2.426 0 0 1 2.7 2.451 2.185 2.185 0 0 1 -1.687 2.206 2.4 2.4 0 0 1 1.874 2.364 2.506 2.506 0 0 1 -2.782 2.595zm5.737-6.991a1.511 1.511 0 0 0 -1.658-1.557h-2.883v3.1h2.883a1.494 1.494 0 0 0 1.658-1.543zm.187 4.267a1.633 1.633 0 0 0 -1.788-1.658h-2.941v3.316h2.941a1.591 1.591 0 0 0 1.789-1.658z" fill="#161615" transform="translate(-232.404 -353.836)"/><path d="m286.751 363.61v-9.615h6.3v1.067h-5.1v3.1h5v1.067h-5v3.316h5.1v1.067z" fill="#161615" transform="translate(-257.93 -353.836)"/><path d="m315.515 362.717c1.153 0 1.8-.634 2.206-3.892l.591-4.829h5.882v9.615h-1.194v-8.548h-3.618l-.476 3.849c-.519 4.224-1.672 4.873-3.388 4.873z" fill="#161615" transform="translate(-279.154 -353.836)"/><path d="m355.719 358.364a4.776 4.776 0 1 1 4.772 4.974 4.688 4.688 0 0 1 -4.772-4.974zm8.3 0c0-2.249-1.384-3.907-3.532-3.907s-3.532 1.658-3.532 3.907 1.369 3.907 3.532 3.907 3.535-1.671 3.535-3.907z" fill="#161615" transform="translate(-308.819 -353.39)"/><path d="m406.1 363.61v-8.548h-5.622v8.548h-1.2v-9.615h8.015v9.615z" fill="#161615" transform="translate(-340.96 -353.836)"/><path d="m438.439 363.61v-9.615h6.3v1.067h-5.1v3.1h5v1.067h-5v3.316h5.1v1.067z" fill="#161615" transform="translate(-369.855 -353.836)"/><path d="m469.733 363.61v-9.615h3.867a2.9 2.9 0 1 1 0 5.8h-2.67v3.82zm5.637-6.718a1.787 1.787 0 0 0 -1.917-1.831h-2.523v3.662h2.523a1.787 1.787 0 0 0 1.917-1.83z" fill="#161615" transform="translate(-392.946 -353.836)"/></svg>