<svg height="60.95" viewBox="0 0 275 60.95" width="275" xmlns="http://www.w3.org/2000/svg"><g fill="none" stroke="#C6C6C6"><path d="m320.284 318.354a6.613 6.613 0 0 0 2.9 5.628q2.9 2.1 8.186 2.1a23.145 23.145 0 0 0 4.91-.444 10.165 10.165 0 0 0 3.276-1.237 5.042 5.042 0 0 0 1.848-1.952 5.741 5.741 0 0 0 .586-2.623 5.322 5.322 0 0 0 -.965-3.32 7.258 7.258 0 0 0 -2.77-2.1 25.724 25.724 0 0 0 -4.386-1.51q-2.583-.674-5.858-1.6-1.6-.422-3.63-.924a42.018 42.018 0 0 1 -4.138-1.257 30.912 30.912 0 0 1 -4.092-1.828 15.472 15.472 0 0 1 -3.57-2.623 11.884 11.884 0 0 1 -2.517-3.676 12.125 12.125 0 0 1 -.945-4.977 20.4 20.4 0 0 1 1.384-7.7 14.6 14.6 0 0 1 4.262-5.816 19.74 19.74 0 0 1 7.3-3.653 38.969 38.969 0 0 1 10.561-1.257 28.5 28.5 0 0 1 8.919 1.278 18.577 18.577 0 0 1 6.555 3.637 15.337 15.337 0 0 1 4.051 5.69 19.251 19.251 0 0 1 1.384 7.45h-13.352a6.793 6.793 0 0 0 -.462-2.458 5.193 5.193 0 0 0 -1.513-2.094 7.845 7.845 0 0 0 -2.706-1.451 13.239 13.239 0 0 0 -4.094-.547 17.688 17.688 0 0 0 -4.427.462 7.563 7.563 0 0 0 -2.752 1.26 4.377 4.377 0 0 0 -1.407 1.8 5.6 5.6 0 0 0 -.4 2.057 3.719 3.719 0 0 0 .945 2.543 7.888 7.888 0 0 0 2.582 1.846 20.033 20.033 0 0 0 3.862 1.324c1.482.364 3.093.7 4.828 1q2.982.716 5.687 1.513a38.881 38.881 0 0 1 5.019 1.848 24.591 24.591 0 0 1 4.18 2.4 13.713 13.713 0 0 1 5.225 7.345 18.561 18.561 0 0 1 .715 5.375 15.472 15.472 0 0 1 -1.828 7.618 16.28 16.28 0 0 1 -5.081 5.543 23.79 23.79 0 0 1 -7.724 3.382 39.72 39.72 0 0 1 -9.72 1.128 32.145 32.145 0 0 1 -11.124-1.7 21.591 21.591 0 0 1 -7.453-4.433 16.672 16.672 0 0 1 -4.2-6.149 19.03 19.03 0 0 1 -1.322-6.906z" transform="translate(-306.517 -277.088)"/><path d="m343.149 289.559h-15.949v-11.418h45.17v11.418h-15.954v45.679h-13.267z" transform="translate(-274.6 -276.214)"/><path d="m346.172 307.48a28.406 28.406 0 0 1 1.113-7.974 29.645 29.645 0 0 1 8.015-13.206 31.339 31.339 0 0 1 13.75-7.662 33.327 33.327 0 0 1 16.584 0 31.711 31.711 0 0 1 13.811 7.662 29.415 29.415 0 0 1 8.042 13.207 29.207 29.207 0 0 1 0 15.952 29.65 29.65 0 0 1 -8.042 13.223 30.694 30.694 0 0 1 -6.34 4.665 33.177 33.177 0 0 1 -7.471 3 32.62 32.62 0 0 1 -16.584 0 32.68 32.68 0 0 1 -7.451-3 30.464 30.464 0 0 1 -11.168-10.732 29.415 29.415 0 0 1 -3.149-7.156 28.411 28.411 0 0 1 -1.11-7.979zm13.267.044a18.856 18.856 0 0 0 1.407 7.327 18.21 18.21 0 0 0 3.841 5.853 18.01 18.01 0 0 0 19.731 3.885 17.409 17.409 0 0 0 5.69-3.885 18.458 18.458 0 0 0 3.821-5.853 19.821 19.821 0 0 0 0-14.656 18.526 18.526 0 0 0 -3.821-5.855 17.449 17.449 0 0 0 -5.69-3.885 17.69 17.69 0 0 0 -7.053-1.407 17.478 17.478 0 0 0 -6.968 1.407 17.675 17.675 0 0 0 -5.711 3.885 18.275 18.275 0 0 0 -3.841 5.855 18.86 18.86 0 0 0 -1.406 7.329z" transform="translate(-244.59 -277.088)"/><path d="m425.47 335.238h-11.506l-27.243-34.216v34.216h-13.311v-57.1h11.59l27.2 34.137v-34.134h13.27z" transform="translate(-201.51 -276.214)"/><path d="m397.427 278.141h40.221v11.459h-26.91v11.669h23.09v11.421h-23.09v11.124h27.287v11.421h-40.6z" transform="translate(-163.525 -276.214)"/></g></svg>