<svg xmlns="http://www.w3.org/2000/svg" width="113.068" height="98.649" viewBox="0 0 113.068 98.649">
    <path id="Контур_8535" data-name="Контур 8535" d="M1775.091,87.427a31.244,31.244,0,0,0-3.312-9.13,42.515,42.515,0,0,0-2.532-4.07c-.922-1.3-1.908-2.538-2.922-3.755a48.307,48.307,0,0,0-12.866-10.423,82.07,82.07,0,0,0-15.243-6.654,130.341,130.341,0,0,0-16.143-4.119c-5.458-1.052-10.967-1.832-16.5-2.412-1.6-.183-3.187-.493-4.775-.837s-3.181-.683-4.8-.911c-1.436-.193-2.886-.33-4.342-.443,1.12-.411,2.24-.825,3.355-1.274a46.06,46.06,0,0,0,5.026-2.284,1.66,1.66,0,0,0,.521-1.6c-.183-.377-1.06-.511-1.654-.583a2.182,2.182,0,0,0-1.046.365,63.264,63.264,0,0,1-7.846,3.21,40.647,40.647,0,0,1-8.211,1.843,1.536,1.536,0,0,0-.784.233c-.467.391-1.133.811-1.213,1.3a1.793,1.793,0,0,0,.926,1.383q1.736.781,3.484,1.5c1.165.479,2.331.975,3.5,1.43l5.14,2.026c1.708.66,3.4,1.381,5.072,2.082.491.2.978.668,1.437.639a3.37,3.37,0,0,0,2.105-.73c.3-.313.465-2.011-.168-1.955-1.548.121-4.538-1.141-7.346-2.462-1.4-.648-2.756-1.32-3.834-1.855s-1.883-.9-2.182-1l-.024-.408a29.91,29.91,0,0,0,3.406,1.343,22.87,22.87,0,0,0,3.013.73,28.631,28.631,0,0,0,3.5.422c6.244.4,12.471,1.025,18.624,2.006,1.538.248,3.075.494,4.6.792,1.533.27,3.049.6,4.569.921,3.025.685,6.04,1.414,8.991,2.318a82.712,82.712,0,0,1,16.931,7,51.545,51.545,0,0,1,7.43,5.056,41.784,41.784,0,0,1,3.28,2.985,39.146,39.146,0,0,1,2.88,3.31,33.27,33.27,0,0,1,5.163,9.491,29.989,29.989,0,0,1,1.616,10.735,31.947,31.947,0,0,0-.091,3.377,3.556,3.556,0,0,0,1.359,2.738,12.241,12.241,0,0,0,2.186-5.814A20.933,20.933,0,0,0,1775.091,87.427Z" transform="matrix(0.883, -0.469, 0.469, 0.883, -1501.455, 799.179)" fill="#1f336c"/>
</svg>
