<svg xmlns="http://www.w3.org/2000/svg" width="47.621" height="49.073" viewBox="0 0 47.621 49.073">
    <g id="Сгруппировать_2206" data-name="Сгруппировать 2206" transform="translate(-705.158 -466.845)">
        <rect id="Прямоугольник_1672" data-name="Прямоугольник 1672" width="14.386" height="28.831" rx="3" transform="translate(705.658 486.587)" fill="none" stroke="#2b2c2d" stroke-miterlimit="10" stroke-width="1"/>
        <path id="Контур_8651" data-name="Контур 8651" d="M887.658,490.36c4.776-3.9,9.477-4.4,13.25-16.345.36-1.142.385-4.009,2.313-5.782,4.429-3.44,8.336,3.427,2.317,17.669a.267.267,0,0,0,.245.372h9.7c4.163,0,5.243,5.32,2.621,7.555,1.421.617,3.392,4.934-.6,7.173,2.361,3.775-.9,6.242-2.021,6.242,1.43,4.163-1.138,5.936-2.544,5.936H890.428a2.345,2.345,0,0,1-.831-.151,4.9,4.9,0,0,1-1.939-1.278" transform="translate(-167.588 0)" fill="none" stroke="#2b2c2d" stroke-miterlimit="10" stroke-width="1"/>
    </g>
</svg>
