<svg xmlns="http://www.w3.org/2000/svg" width="83.97" height="83.97" viewBox="0 0 83.97 83.97">
    <path id="Контур_8633" data-name="Контур 8633" d="M137.021,751.832q1.433-.418,2.9-.786c.976-.24,1.96-.437,2.954-.631,2.923-.56,5.9-.932,8.933-1.272.442-.043.944-.276,1.312-.138a2.934,2.934,0,0,1,1.533,1.062c.164.306-.128,1.609-.613,1.416a7.128,7.128,0,0,0-2.686-.24,31.791,31.791,0,0,0-3.616.5c-2.445.495-4.658,1.138-5.148,1.215l-.075.3a16.694,16.694,0,0,1,5.3-.541,22.222,22.222,0,0,1,2.787.382,105.914,105.914,0,0,1,14.514,4.094,55.664,55.664,0,0,1,13.568,7.075,34.947,34.947,0,0,1,5.78,5.3,28.089,28.089,0,0,1,4.274,6.737,26.127,26.127,0,0,1,1.332,3.8c.193.645.307,1.306.454,1.961.1.661.234,1.321.291,1.986a31.248,31.248,0,0,1-.151,7.938,37.586,37.586,0,0,1-2.692,9.363,54.146,54.146,0,0,1-4.559,8.447c-1.045,1.62-2.391,3.554-4.211,2.983a41.65,41.65,0,0,1,4.3-8.587,51.113,51.113,0,0,0,3.293-6.6,27.344,27.344,0,0,0,1.872-7.175,28.7,28.7,0,0,0-.026-6.5,24.428,24.428,0,0,0-1.646-6.274,26.835,26.835,0,0,0-7.739-10.268,40.281,40.281,0,0,0-5.3-3.716,51.18,51.18,0,0,0-5.774-2.938A79.61,79.61,0,0,0,155.9,756.6a23.054,23.054,0,0,0-3.719-.568l-1.88-.157c-.628-.049-1.257-.093-1.882-.168l-3.338-.434c.775.5,1.544.993,2.28,1.545a23.463,23.463,0,0,1,3.162,2.724,1.367,1.367,0,0,1,.009,1.313c-.21.242-.841.152-1.269.089-.234-.038-.454-.291-.656-.477a25.486,25.486,0,0,0-11.054-6.251,1.183,1.183,0,0,1-.576-.264c-.318-.353-.79-.751-.806-1.143C136.154,752.48,136.648,751.941,137.021,751.832Z" transform="translate(478.511 -625.882) rotate(45)" fill="#1f336c"/>
</svg>
