<svg height="60.879" viewBox="0 0 56.719 60.879" width="56.719" xmlns="http://www.w3.org/2000/svg"><g fill="none"><path d="m3392.519 2623s31.422 3.888 39.1-5.337-8.388-31.562-8.388-31.562" opacity=".12" stroke="#8e39c4" stroke-linecap="round" stroke-linejoin="bevel" stroke-width="10" transform="translate(-3382 -2579.121)"/><g stroke="#2b2c2d" transform="translate(-1194 -2563.121)"><g><circle cx="1199.5" cy="2618.5" r="5.5" stroke="none"/><circle cx="1199.5" cy="2618.5" fill="none" r="5"/></g><g><circle cx="1235.5" cy="2618.5" r="5.5" stroke="none"/><circle cx="1235.5" cy="2618.5" fill="none" r="5"/></g><g><circle cx="1199.5" cy="2618.5" r="2.5" stroke="none"/><circle cx="1199.5" cy="2618.5" fill="none" r="2"/></g><g><circle cx="1229" cy="2581" r="2" stroke="none"/><circle cx="1229" cy="2581" fill="none" r="1.5"/></g><g><circle cx="1235.5" cy="2618.5" r="2.5" stroke="none"/><circle cx="1235.5" cy="2618.5" fill="none" r="2"/></g><path d="m5441.594 2113.5h25.391l6.57-12.5-4.486-23.353" transform="translate(-4240 505)"/><g stroke-linecap="round"><path d="m5469.668 2160.625h-7.79" transform="matrix(-.22495105 -.97437006 .97437006 -.22495105 358.632 8421.153)"/><path d="m5466.877 2160.625h-5" transform="matrix(-.9998477 .01745241 -.01745241 -.9998477 6726.111 4645.826)"/><path d="m5437.886 2106.911s3.436-.651 5.78.96 3.084 5.313 3.084 5.313" transform="translate(-4240 505)"/></g></g></g></svg>