<svg xmlns="http://www.w3.org/2000/svg" xmlns:xlink="http://www.w3.org/1999/xlink" width="1200" height="542" viewBox="0 0 1200 542">
    <defs>
        <linearGradient id="linear-gradient" x1="0.5" x2="0.5" y2="1" gradientUnits="objectBoundingBox">
            <stop offset="0" stop-color="#284084"/>
            <stop offset="1" stop-color="#fff" stop-opacity="0"/>
        </linearGradient>
    </defs>
    <g id="Сгруппировать_2618" data-name="Сгруппировать 2618" transform="translate(-360 -766)">
        <rect id="Прямоугольник_1727" data-name="Прямоугольник 1727" width="1200" height="542" transform="translate(360 766)" fill="#fff"/>
        <g id="Сгруппировать_2617" data-name="Сгруппировать 2617">
            <g id="Сгруппировать_2480" data-name="Сгруппировать 2480" transform="translate(505.085 -3957.131)">
                <g id="Объединение_7" data-name="Объединение 7" transform="translate(2891.2 4836.5)" fill="#fff">
                    <path d="M -1983.39990234375 50.50031280517578 L -2316.499755859375 50.50031280517578 L -2316.499755859375 -13.500412940979 L -1983.39990234375 -13.500412940979 L -1983.39990234375 25.81826782226562 L -1983.39990234375 26.00931358337402 L -1983.2724609375 26.15172386169434 L -1967.250244140625 44.05483627319336 L -1982.865234375 42.96840667724609 L -1983.39990234375 42.93117904663086 L -1983.39990234375 43.46717834472656 L -1983.39990234375 50.50031280517578 Z" stroke="none"/>
                    <path d="M -1983.89990234375 50.00031280517578 L -1983.89990234375 42.39517593383789 L -1968.444213867188 43.47053527832031 L -1983.89990234375 26.20040512084961 L -1983.89990234375 -13.000412940979 L -2315.999755859375 -13.000412940979 L -2315.999755859375 50.00031280517578 L -1983.89990234375 50.00031280517578 M -1982.89990234375 51.00031280517578 L -2316.999755859375 51.00031280517578 L -2316.999755859375 -14.000412940979 L -1982.89990234375 -14.000412940979 L -1982.89990234375 25.81826782226562 L -1966.056396484375 44.63908767700195 L -1982.89990234375 43.46717834472656 L -1982.89990234375 51.00031280517578 Z" stroke="none" fill="#284084"/>
                </g>
                <text id="Арендные_ставки_в_бизнес-_центрах_класса_А_тыс._руб._м2" data-name="Арендные ставки в бизнес-
центрах класса А, тыс. руб./м2" transform="translate(886.672 4852)" fill="#284084" font-size="18" font-family="CodecCold-Regular, Codec Cold"><tspan x="-258.513" y="0">Арендные ставки в бизнес-</tspan><tspan x="-286.366" y="19">центрах класса А, тыс. руб./м</tspan><tspan y="19" font-size="10.499" baseline-shift="5.999400079342301">2</tspan></text>
            </g>
            <g id="Сгруппировать_1511" data-name="Сгруппировать 1511" transform="translate(-105 497)">
                <text id="_2015" data-name="2015" transform="translate(765 766)" fill="#707070" font-size="16" font-family="CodecCold-Regular, Codec Cold"><tspan x="0" y="0">2015</tspan></text>
                <text id="_20_000" data-name="20 000" transform="translate(700 696)" fill="#707070" font-size="16" font-family="CodecCold-Regular, Codec Cold"><tspan x="0" y="0">20 000</tspan></text>
                <text id="_30_000" data-name="30 000" transform="translate(700 544.438)" fill="#707070" font-size="16" font-family="CodecCold-Regular, Codec Cold"><tspan x="0" y="0">30 000</tspan></text>
                <text id="_2016" data-name="2016" transform="translate(881 766)" fill="#707070" font-size="16" font-family="CodecCold-Regular, Codec Cold"><tspan x="0" y="0">2016</tspan></text>
                <text id="_2017" data-name="2017" transform="translate(993 766)" fill="#707070" font-size="16" font-family="CodecCold-Regular, Codec Cold"><tspan x="0" y="0">2017</tspan></text>
                <text id="_2018" data-name="2018" transform="translate(1116 766)" fill="#707070" font-size="16" font-family="CodecCold-Regular, Codec Cold"><tspan x="0" y="0">2018</tspan></text>
                <text id="_2019" data-name="2019" transform="translate(1229 766)" fill="#707070" font-size="16" font-family="CodecCold-Regular, Codec Cold"><tspan x="0" y="0">2019</tspan></text>
                <text id="_2020" data-name="2020" transform="translate(1346 766)" fill="#707070" font-size="16" font-family="CodecCold-Regular, Codec Cold"><tspan x="0" y="0">2020</tspan></text>
                <text id="_2021" data-name="2021" transform="translate(1463 766)" fill="#707070" font-size="16" font-family="CodecCold-Regular, Codec Cold"><tspan x="0" y="0">2021</tspan></text>
                <text id="Прогноз_стабильного_роста_арендных_ставок" data-name="Прогноз
стабильного
роста
арендных
ставок" transform="translate(1491 578)" fill="#707070" font-size="14" font-family="CodecCold-Regular, Codec Cold"><tspan x="0" y="0">Прогноз </tspan><tspan x="0" y="15">стабильного</tspan><tspan x="0" y="30">роста </tspan><tspan x="0" y="45">арендных</tspan><tspan x="0" y="60">ставок</tspan></text>
                <text id="_2022" data-name="2022" transform="translate(1576 766)" fill="#707070" font-size="16" font-family="CodecCold-Regular, Codec Cold"><tspan x="0" y="0">2022</tspan></text>
                <line id="Линия_90" data-name="Линия 90" x2="948" transform="translate(690.5 744.5)" fill="none" stroke="#707070" stroke-width="1"/>
                <line id="Линия_103" data-name="Линия 103" y2="255" transform="translate(690.5 489.5)" fill="none" stroke="#707070" stroke-width="1"/>
                <line id="Линия_106" data-name="Линия 106" y2="260" transform="translate(1596 484.5)" fill="none" stroke="#707070" stroke-width="2" stroke-dasharray="6"/>
                <line id="Линия_107" data-name="Линия 107" y2="209" transform="translate(1480 535.5)" fill="none" stroke="#707070" stroke-width="2" stroke-dasharray="6"/>
                <line id="Линия_104" data-name="Линия 104" x1="11" transform="translate(685 691)" fill="none" stroke="#707070" stroke-width="1"/>
                <line id="Линия_105" data-name="Линия 105" x1="11" transform="translate(685 538.438)" fill="none" stroke="#707070" stroke-width="1"/>
                <path id="Контур_4940" data-name="Контур 4940" d="M4473.048,4829.995l116.273,52.233,113.939,83.2,57.338-42.077,65.166-47.822,106.492-7.968,119.9-16.625h119.524" transform="translate(-3691.182 -4334.557)" fill="none" stroke="#284084" stroke-width="3"/>
                <path id="Контур_4941" data-name="Контур 4941" d="M4688.867,6005.57h697.649V5778.395H5266.508l-116.082,18.18-108.945,6.879-122.754,90.719-114.961-84.27-114.9-51.219Z" transform="translate(-3907 -5262.563)" opacity="0.16" fill="url(#linear-gradient)"/>
                <g id="Эллипс_562" data-name="Эллипс 562" transform="translate(775 489.438)" fill="#284084" stroke="#fff" stroke-width="2">
                    <ellipse cx="6.5" cy="6" rx="6.5" ry="6" stroke="none"/>
                    <ellipse cx="6.5" cy="6" rx="5.5" ry="5" fill="none"/>
                </g>
                <g id="Эллипс_563" data-name="Эллипс 563" transform="translate(892 540.438)" fill="#284084" stroke="#fff" stroke-width="2">
                    <ellipse cx="6.5" cy="6" rx="6.5" ry="6" stroke="none"/>
                    <ellipse cx="6.5" cy="6" rx="5.5" ry="5" fill="none"/>
                </g>
                <g id="Эллипс_564" data-name="Эллипс 564" transform="translate(1005 622.438)" fill="#284084" stroke="#fff" stroke-width="2">
                    <ellipse cx="6.5" cy="6" rx="6.5" ry="6" stroke="none"/>
                    <ellipse cx="6.5" cy="6" rx="5.5" ry="5" fill="none"/>
                </g>
                <g id="Эллипс_565" data-name="Эллипс 565" transform="translate(1127 534.438)" fill="#284084" stroke="#fff" stroke-width="2">
                    <ellipse cx="6.5" cy="6" rx="6.5" ry="6" stroke="none"/>
                    <ellipse cx="6.5" cy="6" rx="5.5" ry="5" fill="none"/>
                </g>
                <g id="Эллипс_566" data-name="Эллипс 566" transform="translate(1240 526.438)" fill="#284084" stroke="#fff" stroke-width="2">
                    <ellipse cx="6.5" cy="6" rx="6.5" ry="6" stroke="none"/>
                    <ellipse cx="6.5" cy="6" rx="5.5" ry="5" fill="none"/>
                </g>
                <g id="Эллипс_567" data-name="Эллипс 567" transform="translate(1355 509.438)" fill="#284084" stroke="#fff" stroke-width="2">
                    <ellipse cx="6.5" cy="6" rx="6.5" ry="6" stroke="none"/>
                    <ellipse cx="6.5" cy="6" rx="5.5" ry="5" fill="none"/>
                </g>
                <g id="Эллипс_568" data-name="Эллипс 568" transform="translate(1474 509.438)" fill="#284084" stroke="#fff" stroke-width="2">
                    <ellipse cx="6.5" cy="6" rx="6.5" ry="6" stroke="none"/>
                    <ellipse cx="6.5" cy="6" rx="5.5" ry="5" fill="none"/>
                </g>
                <g id="Эллипс_569" data-name="Эллипс 569" transform="translate(1589.5 460)" fill="#284084" stroke="#fff" stroke-width="2">
                    <ellipse cx="6.5" cy="6" rx="6.5" ry="6" stroke="none"/>
                    <ellipse cx="6.5" cy="6" rx="5.5" ry="5" fill="none"/>
                </g>
                <text id="_32_480" data-name="32 480" transform="translate(1546 451)" fill="#284084" font-size="30" font-family="CodecCold-Bold, Codec Cold" font-weight="700"><tspan x="0" y="0">32 480</tspan></text>
                <path id="Контур_4942" data-name="Контур 4942" d="M5473.61,5825.915l8.253-8.587,8.775,8.587" transform="translate(-4002 -5290.89)" fill="none" stroke="#707070" stroke-width="2"/>
                <path id="Контур_4943" data-name="Контур 4943" d="M5473.61,5825.915l8.253-8.587,8.775,8.587" transform="translate(-3886.124 -5341.415)" fill="none" stroke="#707070" stroke-width="2"/>
            </g>
        </g>
    </g>
</svg>
