<svg height="543.052" viewBox="0 0 1200 543.052" width="1200" xmlns="http://www.w3.org/2000/svg"><path d="m0 0h1200v542h-1200z" fill="#fff"/><g transform="translate(-359.916 -324.493)"><g fill-rule="evenodd" stroke="#bababa" transform="translate(604.165 332.684)"><g fill="#fafafa"><path d="m253.217 281.4c.767.473 1.552.92 2.294 1.429 1.24.851 2.973 1.474 3.6 2.667 2.575 4.919 4.864 6.615 9.969 6.357l-2.172 3.32c6.526 3.851 11.832-1.2 17.541-1.657 1.657 1.268 3.024-.675 5.113.921 2.241 2.614 2.6 1.317 7.867.736 1.048-.117 9.389 1.913 10.326 1.4 3.926-2.136 7.655-4.7 11.749-6.412a19.349 19.349 0 0 1 8.239-.962c.9.047 2.33 2.086 2.414 3.287.206 3.106 1.018 4.6 4.36 3.27a3.373 3.373 0 0 1 1.935.07c3.131.834 6.9-2.23 7.074-5.573a42.067 42.067 0 0 1 1.143-5.851c1.977 1.646 3.6 3.384 3.9 3.178a35.554 35.554 0 0 0 4.613-4.243l6.068 1.955c.339-.331.673-.665 1.012-1-7.614-4.68-9.619-10.864-6.526-18.826-.156-.275-1.09-1.154-.934-1.735 1.2-4.41 2.225-8.943 4.135-13.05.762-1.632 3.943-3.512 5.442-3.112 2.364.631 4.271 3.059 6.29 4.825.3.27-.058 1.31.247 1.582 1.674 1.474 3.457 2.817 5.2 4.2.965-1.824 2.341-3.551 2.811-5.495a97.266 97.266 0 0 0 1.691-10.862 22.347 22.347 0 0 0 -.142-3.7c-1.332.317-2.656.634-4.763 1.135a8.015 8.015 0 0 1 -1.39-3.034c-.184-2.444 2.322-5.275-1.249-7.219-.159-.083.178-1.938.651-2.147 2.711-1.2 5.486-2.884 8.317-3.039 7.547-.417 15.13-.145 22.958-.145.095-1.657.181-3.151.289-5.089l2.772 1.343c1.552-8.014 8.262-3.682 12.6-5.281.186-3.031-.7-3.876-3.846-4.085-2.948-.2-5.89-.592-8.9-.907.278-2.414.437-3.826.587-5.136h-5.414c-3.092.7-5.325 1.179-7.541 1.727a12.771 12.771 0 0 0 -2.022.829 26.02 26.02 0 0 1 -5.595 2.016c-1.807 2.405-11.549 6.76-13.72 6.629-1.983.729-4.107 2.25-5.9 1.93-1.379-.242-2.786-2.644-3.418-4.363-1.513-4.141-5.517-3.028-8.314-4.127-3.687-1.452-4.458-4.007-3.028-7.489a17.273 17.273 0 0 0 .851-10.692c-1.388-4.627-1.991-10.236.478-14.023a3.861 3.861 0 0 0 .22-.77c6.365.929 4.636-6.337 8.545-8.537 3.017-1.693 4.266-6.468 6.429-9.788 1.446-2.23 3.114-4.313 4.68-6.46q.526.346 1.051.7c-.442-3.073-.164-6.526-1.538-9.107-1.276-2.405-4.3-3.885-6.476-5.7v1.821h-10.972c-.114 2.186-.2 3.824-.286 5.45-5.119 2.558-5.042 7.222-4.966 11.954a11.993 11.993 0 0 1 -.7 4.252c-.915 2.475-2.077 4.858-3.19 7.258a5.153 5.153 0 0 1 -1.276 1.983c-2.322 1.735-4.791 3.27-7.091 5.03a6.78 6.78 0 0 0 -2.172 2.675c-1.491 3.729-4.683 5.231-8.142 5.909-1.557.309-3.712-.787-3.557 1.808.067 1.037 1.88 1.969 3.343 3.376-1.238 4.388-3.42 9.491-3.849 14.738-.225 2.753 2.378 5.923 4.182 8.584 1.057 1.563 3.089 2.442 4.6 3.723a7.169 7.169 0 0 1 2.327 2.611c.459 1.34.8 3.151.25 4.307-.934 1.96-5.281 2.411-2.447 5.984q-2.807 2.019-5.62 4.04c-.339-.459-.681-.912-1.021-1.371-.876 4.433-3.051 6.652-8.5 3.568 2.881 5.436 3.228 9.38 1.168 13.617-1.054 2.172-.9 4.9-1.613 7.274-1.012 3.373-2.333 6.649-3.487 9.977-.451 1.3-.815 2.625-1.4 4.538-8.323-3.379-13.987-1.29-14.924 8.4-3.012-.136-5.959-.264-8.6-.381-.286-2.022-.136-4.185-.937-5.9-1.307-2.8-2.567-5.192.261-7.858.462-.434.014-2.269-.492-3.2-1.168-2.15-3.5-4.029-3.779-6.223-.528-4.1.075-8.353.184-12.541.019-.89.314-2.144-.147-2.617-4.964-5.075-2.756-10.308-.684-15.917-1.329-.912-2.925-2.011-4.207-2.892.876-1.752 1.693-3.39 2.508-5.028l-1.385-.837c-2.18 2.147-6.029 2.608-5.214 7.669.323 1.988-1.749 4.385-2.806 6.554a1.208 1.208 0 0 1 -1.14.3c-6.44-4.018-8.465 2.227-11.529 5.258-2.589 2.564-9.032 3.757-12.233 1.485-.651-.459-1.655-.425-2.828-.692.42-.943.818-1.824.848-1.894-2.055-2.266-3.985-3.932-5.217-6.006-.431-.726.859-2.461 1.329-3.748.837-2.3 1.649-4.6 2.475-6.907l-1.432-1.032c-1.432.957-2.864 1.913-4.1 2.742.242-3.615.242-3.615 7.291-5.587-3.37-3.534 1.012-4.622 2.166-6.86-3.067-.125-3.593-.587-6.351-5.5 1.043-.32 2.077-.637 3.231-.987-.823-1.655-1.5-2.987-2.125-4.335a2.19 2.19 0 0 1 -.019-.848c1.14-.125 2.264-.25 4.046-.445-1.835-1.524-3.142-2.606-3.84-3.187.876-1.93 1.449-3.184 2.28-5.011.609-.32 2.047-1.079 3.76-1.983-1.034-1.237-1.83-2.186-2.781-3.32l11.384-.823c-.161-1.571-.27-2.581-.4-3.871l6.221 1.471c-.186-1.574-.306-2.586-.437-3.687a7.862 7.862 0 0 1 1.126-.286c3.242-.32 6.721-.022 8.323-3.938.281-.679 1.29-1.571 1.9-1.524 4.827.381 6.29-3.924 8.985-6.39a68.465 68.465 0 0 0 5.573-6.326c2.136 1.187 3.548 1.972 4.961 2.759a28.377 28.377 0 0 1 1.071-4c.651-1.543 1.674-2.928 2.375-4.455.729-1.585 1.268-3.256 2.027-5.245 1.674-2.619 3.665-5.737 6.19-9.68l2.241-1.568c-.642-.52-1.282-1.043-1.727-1.4a37.859 37.859 0 0 1 1.429-3.81 29.906 29.906 0 0 1 1.808-2.992 56.793 56.793 0 0 0 7.719-3.095c.445-.25-.236-2.5-.45-4.238.645-.167 1.921-.492 4.41-1.132-1.852-1.376-3.081-2.286-4.766-3.537h5.057c.108-1.2.195-2.205.286-3.215.5 0 .99-.006 1.488-.006.136 1.293.278 2.583.414 3.876.373.053.745.108 1.118.164.367-2.111.734-4.224 1.026-5.912 1.983-.712 4.324-.9 5.512-2.172 1.1-1.171.929-3.507 1.385-5.311.314-1.254 3.359-3.24 4.758-3.665a24.393 24.393 0 0 0 4.107-2.23c-.245-1.085-.648-2.917-1.051-4.752 2.286 2.809 5.18-4.669 7.319.539a9.46 9.46 0 0 0 -.031-2.558c-1.082-3.7.848-6.073 4.738-6.026 2.258.028 5.208.567 4.636-3.064 5.45 1.3 3.94-3.443 5.1-5.372l5.709-.79c-.982-1.274-1.585-2.044-2.086-2.689l5.954-1.969c-1.852 3.565-3.573 6.874-5.3 10.189l1.588.887c1.235-2.144 2.469-4.285 3.807-6.61.868 1.521 1.721 3.012 2.453 4.294 1.86-3.148 3.679-6.223 5.492-9.3l.962.423v7.861l1.037.4c1.874-3.284 3.66-6.944 7.23-1.852.134.2.759.1 1.151.081 4.694-.22 4.282-.328 3.209 3.843-.286 1.09-2.586 4.8 1.713 5.728 1.276.278-.095 3.256 2.747 3.99 2.795.723 4.277 1.137 4.485-2.956 2.122 3.49 3.6 2.355 4.713-.067 5.981 7.4 13.754 6.482 21.506 5.756 1.329-.125 2.875-.409 3.988.1 5.517 2.511 10.851 5.428 16.4 7.861 2.6 1.14 5.676 1.185 8.3 2.286 5.956 2.494 8.006 9.26 4.794 14.9-3.031 5.334-7.422 8.632-13.706 8.732-1.432.019-2.873-.87-4.889-1.532-3.012 3.1-7.216.77-10.647-.184-4.636-1.29-10.027-1.1-13.8-5.106-.553-.587-2.13-.209-3.281-.284 1.819 7.839 5.078 10.9 12.583 11.971 2.8.4 5.253 4.052 4.927 6.663a13.737 13.737 0 0 0 .634 5.136 28.671 28.671 0 0 0 2.23 5.806c1.593 3 3.3 6.087 7.689 4.352a1.457 1.457 0 0 1 1.285.531c1.944 3.084 5.172 3.929 8.292 3.81 1.866-.072 4.6-1.485 5.283-3.028 1.065-2.405-2.161-6.407-4.363-6.724-2.53-.364-5.025-.982-7.928-1.568.959-2.119 1.452-3.212 2.013-4.455 10.731 2.125 21.445 4.243 32.212 6.374-.8-4.121-.8-4.121-7.186-3.387-1.518-2.464-2.734-5.172-4.622-7.277-1.8-2.01-4.307-3.393-6.807-5.278 3.226-5.378 6.421-10.7 9.655-16.089h6.237c-.147 1.09-.314 2.319-.548 4 3.1-.328 5.9-.628 9.521-1.012-1.782-2.019-2.864-3.245-3.943-4.466 2.783-5.528.464-9.836-5.178-10.4-1.363-5.625-2.695-11.14-4.143-17.127 3.3-2.572 6.084-1.91 13.612 4.385-.957.373-1.96.467-2.486 1.018-1.638 1.716-5.028 1.944-4.257 5.773.709 3.526 3.4 2.614 5.481 3.251a3.729 3.729 0 0 1 1.488.751c4.335 4.268 8.367 1.4 11.871-1 3.793-2.594 1.657-6.426.748-9.852 1.243-2 5.42-3.245 1.682-6.46 2.416-3.4 4.719-6.643 6.746-9.494 1.755.545 3.073.957 5.386 1.674-1.251-2.464-1.983-3.9-2.825-5.556 4.235.053 2.375-2.489 1.76-4.491 2.975-1.023 4.1.562 4.274 2.87a29.239 29.239 0 0 1 -.5 5.325c1.991-.428 3.557-.765 5.909-1.268.831-2.314 1.838-5.6 3.237-8.712a3.944 3.944 0 0 1 2.945-2.03c3.849.195 4.808-1.888 4.98-5.147a17.37 17.37 0 0 1 1.516-5.806c2.247 3.476 2.386 10.773 7.856 4.446.531-2.725 1.065-5.453 1.666-8.548-4.641-1.541-6.315-5.361-4.811-10.422l16.74-5.339c.011 5.631 2.01 7.1 6.457 6.257 3.762-.706 4.513 3.621 7.144 4.964.645.328.987 1.24 1.393 1.782 1.452-.651 3.618-1.838 3.751-1.643 1.61 2.38 3.576 4.819 4.163 7.525.843 3.885 2.049 8.148-2.119 11.518-.887.717-.734 3.47-.225 5.011 1.407 4.285 1.913 8.148-.639 12.394-1.14 1.9-.462 4.9-.562 7.405-.072 1.93.392 4.074-2.483 4.572a5.342 5.342 0 0 0 .167 3.17c1.338 2.144 3.512 3.846 4.524 6.1 2.066 4.588 3.456 9.474 5.414 14.112.537 1.274 2.133 2.088 3.215 3.145 4.38 4.291 6.83 9.68 9.235 15.233 1.613 3.726 4.48 6.9 6.671 10.395a32.454 32.454 0 0 1 2.353 4.819c1.379 3.354 2.289 6.969 4.11 10.05 1.335 2.258 4.2 3.57 5.706 5.767 2.692 3.921 5.058 8.131 5.183 13.111a2.853 2.853 0 0 1 -.77 2.052c-2.842 2.3-2.275 4.416-.428 7.183 1.827 2.742 3.487 6.015-.442 8.818 1.193 1.994 2.761 3.765 3.379 5.823 1.318 4.4 3.615 4.046 6.932 2.3a27.148 27.148 0 0 1 7.391-2.522 5.1 5.1 0 0 1 3.9 1.251 4.434 4.434 0 0 1 .659 3.607 67.218 67.218 0 0 1 -2.444 7.1c-3.006-2.656-6.579-1.179-8.245 1.154-2.589 3.618 1.185 6.207 3.067 8.893 6.827-1.888 13.562-3.426 14.916-11.585a48.173 48.173 0 0 1 3.32 4.3 4.248 4.248 0 0 1 .734 2.931c-1.148 3.79-.414 6.91 1.93 10.161 1.877 2.6 2.594 6.012 4.282 8.787 3.106 5.108 4.324 5.153 9.068 1.738.781-.564 2.845-.67 3.345-.114 3.582 3.974 8.932 5.57 13.559 3.2 2.45-1.257 4.221-1.91 5.9.865 1.6 2.639 1.146 4.8-1.26 6.574-1.44 1.062-3.02 1.93-4.444 3.006-1.9 1.443-3.726 3-5.581 4.516.234.289.464.581.7.87a48.977 48.977 0 0 1 -5.759.987 5.027 5.027 0 0 1 -3.329-.868c-2.775-2.386-5.854-1.855-7.274 1.493-.348.82-.667 1.66-1.054 2.467-.345.723-.762 1.41-.868 1.6-2.264.195-4.232-.036-5.834.623-1.343.553-2.258 2.144-4.063 2.717-.3 1.421-.684 2.831-.876 4.263-.3 2.269-1.446 2.642-3.518 2.086-2.784-.748-5.651-1.2-8.948-1.883l.829 4.627c-4.091-1.162-7.8-1.969-11.315-3.3-2.314-.876-4.31-2.105-6.268.412-.234.295-.692.809-.8.754-5.328-2.825-6.332 1.788-8.323 4.761a8.864 8.864 0 0 1 -1.671 1.468c-1.246-.806-2.45-1.588-3.94-2.558-1.691 5.1-3.734 9.368-8.723 11.79-1.143.556-.843 4.079-1.265 6.582-1.034.428-2.4.99-4.032 1.663 2.533 3.178 5 6.226 3.3 11.535-3.078-2.531-5.431-4.46-8.854-7.266-.478 2.589-.781 4.357-1.14 6.115a4.858 4.858 0 0 1 -.7 2.286c-1.858 1.944-1.39 3.657-.033 5.634a3.953 3.953 0 0 1 .679 3.112c-1.365 3.265-.017 4.719 2.62 5.011-.531 3.345-1.023 6.39-1.568 9.819 3.8-.759 6.6-1.36 6.732 3.412.067 2.6 3.037 3.445 5.208 2.044a30.854 30.854 0 0 1 3.666-1.776c3.785 2.8 7.258 5.381 10.767 7.984-.8 1.449-1.571 2.861-2.7 4.925a38.128 38.128 0 0 1 4.947 1.41 3.829 3.829 0 0 1 2.072 2.058c.172.653-.631 1.693-1.21 2.389a32.431 32.431 0 0 1 -3.932 4.185 46.394 46.394 0 0 1 -5.217 3.209c-1.012 5.3-2.305 11.729-3.437 18.186-.545 3.109 2.216 4 4.118 4 4.127.011 8.251 1.933 8.871 5.514 1.541 8.885 6.944 14.429 14.738 18.214 4.255 2.069 4.216 2.967.5 6.068-.495.406-.381 1.538.186 2.647 1.443-1.986 2.886-3.971 4.914-6.763 1.652 1.265 4.027 2.45 5.511 4.341 3.81 4.839 7.895 8.4 14.493 5.7-1.682 1.983-3.3 3.707-4.674 5.614a4.811 4.811 0 0 0 -.348 2.625c.019 1.821-.445 3.985.353 5.4 2.492 4.419.122 7.781-1.452 11.568-.4.973 1.215 2.786 2.111 4.641h-8.361c2.708-4.207.654-10.425-5.2-14.493-2.214 3.156-4.024 6.754-6.757 9.382-4.271 4.1-6.757 11.3-14.791 9.7a16.333 16.333 0 0 1 -4.669-1.407c-4.149-2.3-8.125-4.9-12.274-7.194-.759-.423-2.013-.072-3.009.1-5.879.987-7.319-.306-6.729-6.146a4.942 4.942 0 0 0 -5.342-5.122c-.556.042-1.468.259-1.624.017-3-4.7-6.7-2.436-10.495-1.379-1.9.537-4.071.1-7.1.1 4.149-4 1.084-5.759-.74-8.373-2.881-4.132-6.023-7.705-10.9-9.171-2.391-.72-5.072-.442-7.516-1.051-1.9-.476-4.263-1.146-5.336-2.553-3.843-5.044-9.888-5.937-15-8.462-3.045-1.5-6.755-1.6-10.055-2.675-1.6-.52-2.942-1.835-4.4-2.795.843-1.235 1.727-2.444 2.511-3.715a4.976 4.976 0 0 0 .873-2.105c.125-1.83.044-3.673.044-6.054 1.543.792 2.533 1.307 3.5 1.8.843-1.919 1.616-3.665 2.611-5.917-2.361-1.274-5.144-2.772-8.759-4.724a43.639 43.639 0 0 1 4.335-.973 45.963 45.963 0 0 1 4.733-.031c-1.137-1.719-1.66-2.505-2.341-3.532a17.2 17.2 0 0 0 2.734-1.81 18.255 18.255 0 0 0 2.923-3.54c.184-.3-.9-1.866-1.054-1.816a27.2 27.2 0 0 0 -3.99 1.785 7.407 7.407 0 0 0 -1.285 1.06c-3.3-2.725-13.584 3.976-14.874 9.641-6.14-1.652-8.44 4-12.789 5.406-1.371.378-3.785.512-3.935 1.168-.762 3.351-2.931 3.045-5.42 2.892a53.836 53.836 0 0 0 -6.412.373c-.445.823-1.085 2.01-1.821 3.373-2.817-3.509-5.272-.884-7.639.367-1.885 1-3.418 2.189-5.689.734-2.839-1.833-2.53-3.231.589-4.847-1.185-2.294-2.341-4.535-3.5-6.78l-.776.261c-.117 1.343-.234 2.692-.328 3.807-1.318.573-2.564 1.04-3.732 1.657-.854.451-1.8 1.738-2.364 1.563-5.033-1.582-4.905 2.161-5.35 5.289-3.89-2.7-3.89-2.7-5.62.7 1.638.984 3.287 1.972 5.656 3.393-2.408 1.071-3.876 1.707-5.339 2.372-1.824.829-5.506-1.351-5.194 2.814a10.944 10.944 0 0 0 2.322 5.353c2.264 3.009 2.286 3.448-1.913 7.959-.687-1.018-1.368-2.033-2.544-3.787-4.441 7.244-1.212 14.674-3.053 21.456-5.175 1.071-6.4 2.856-6.146 8.851a6.626 6.626 0 0 1 -.92 2.895c-.7 1.465-1.554 2.861-2.731 5 4.463-.489 6.332.87 7.152 4.427 1.046 4.555 5.069 6.265 8.979 7.956 1.048.456 1.769 1.663 2.642 2.528-1.071.4-2.205 1.276-3.206 1.146-6.415-.831-10.18 3.212-14.29 7.06a22.141 22.141 0 0 1 -8.2 4.394c1.029-1.3 2.063-2.6 2.775-3.5-4.95-1.285-9.449-2.441-13.945-3.621-1.966-.515-4.268-2.353-5.108 1.354-1.732-.4-3.462-.8-4.666-1.073-2.67 1.3-5.172 2.514-8.7 4.227q3.871 3.024 7.625 5.954c-2.606 4.246-4.063-2.472-6.643-.687.459 1.054.926 2.122 1.39 3.2-.17.156-.342.306-.509.462-1.51-1.249-3.014-2.5-5.008-4.149v4.95c-2-3.676-3.6-6.615-5.562-10.222-1.329.9-3.921 1.872-3.893 2.759a19.752 19.752 0 0 0 2.01 8.084c.92 1.824 3.056 3.034 5.206 5.042-3.7.779-7.444 1.293-3.637 5.484-3.946 7.016 3.637 4.238 5.517 6.248 1.913 2.038 5.042 2.939 6.946 4.978 1.048 1.121.673 3.565.984 5.72-2.6-.142-3.565-5.144-6.36-1.6a31.373 31.373 0 0 0 -2.38 4.093c1.424.654 2.842 1.307 4.519 2.072-1.435.765-3.187 1.693-4.866 2.581-1.446-1.524-2.661-2.8-3.876-4.088-.534.342-1.065.687-1.6 1.023 2.277 4.127 4.547 8.248 6.791 12.3-3.29.665-3.29.665-6.785-4.413-.45 2.252-.776 3.887-1.385 6.913-1.516-3.1-2.453-5.233-3.6-7.258-.395-.692-1.307-1.1-1.985-1.638-.428 1.318-.854 2.633-1.418 4.38-3.9-.325-3.351-4.3-3.084-6.076.542-3.545.217-5.934-3.087-7.725a3.672 3.672 0 0 1 -1.218-2.784c-.017-.373 1.488-1.057 2.347-1.143a72.35 72.35 0 0 1 9.332-.506c1.557.05 3.084.976 4.627 1.5-.017.406-.033.82-.053 1.223 1.418-.634 2.834-1.276 4.786-2.149-4.919-4.574-10.013-6.424-16.031-5.77-2.138.231-4.394.806-6.4.361-1.451-.331-2.583-2.088-3.721-3.092 2.088-1.621 3.4-2.644 4.722-3.668-1.8-.526-3.6-1.043-5.687-1.655-4.227-3.49-5.2-10.9-12.285-12.383a27.759 27.759 0 0 1 -.192-4.5c.606-5.156 1.524-10.28 1.955-15.447.1-1.16-1.046-2.7-2.033-3.609-1.513-1.376-3.754-2.041-5.028-3.565-1.933-2.305-4.416-3.023-6.932-4.274-4.5-2.247-8.27-5.99-12.338-9.121-2.731-2.105-3.963-6.287-9.232-4.788-1.577.448-4.519-3.768-6.779-5.915a11.866 11.866 0 0 1 -1.443-2.122c.651-.331 1.288-.645 2.077-1.043a9 9 0 0 0 -1.2-1.463c-2.728-2.1-5.99-3.437-4.065-8.409.592-1.529-3-4.68-4.969-7.514-1.983 3.153-3.354 5.345-5.178 8.259-.979-3.949-4.263-6.955.206-10.219.717-.52.517-2.314.932-4.563-3.776.993-6.919 1.808-10.058 2.65-.79.211-1.607.831-2.336.723-3.315-.495-5.573.809-7.13 4.319.815 1.018 1.885 2.353 2.962 3.693-5.03 5.687-3.623 11.857 3.365 14.466 5.442 2.024 8.679 7.8 8.434 13.437-.089 1.988 1.582 4.257 2.9 6.07 3.754 5.169 7.266 10.837 15.283 9.268 1.148-.225 2.6 1.065 3.907 1.657l-2.95 3.9c4.2 1.988 8.746 3.726 12.842 6.209 4.338 2.622 10.15 3.128 12.711 8.423.456.943 1.338 1.96 1.221 2.834a22.937 22.937 0 0 1 -1.585 4.633c-1.1-1.079-2.845-2.008-3.145-3.273-.576-2.447-1.771-3.114-4.038-3.045-1.071.033-2.53-.122-3.162-.8-2.244-2.416-4.168-1.985-5.876.356-2.647 3.626-3.187 8.715-1.048 10.294.806.592 2.222.356 3.69.537v7.998c-3.851.712-6.677 2.419-7.261 6.991-.4 3.156-5.133 4.944-8.712 3.793.873-2.492 1.755-5.008 2.778-7.931 3.465-.545 3.735-3.337 2.806-6.443-.793-2.661-1.577-5.5-3.148-7.7a12.984 12.984 0 0 0 -5.873-4.444c-2.169-.776-3.529-1.354-3.27-3.865.42-4.01-3.476-4.377-5.542-6-9.135-7.183-19.2-13.15-26.818-22.246-5.548-6.635-10.97-13.106-12.405-22.071-.5-3.112-2.125-6.04-3.342-9.332-3.387 1.8-6.919.217-10.659-1.46-2.43-1.09-4.31.654-5.948 2.733-1.135 1.446-3.087 2.294-4.755 3.265-4.252 2.483-9.733 2.425-13.117 7.027-.843 1.151-4.947 1.326-6.424.306-3.037-2.091-5.311-5.292-7.9-8.031-.156.412-.314.818-.473 1.232-3.034-.9-6.076-1.771-9.107-2.695-.87-.27-1.88-1.151-2.525-.918-2.917 1.04-6 1.991-8.473 3.754-1.524 1.087-2.264 3.5-2.95 5.459-.42 1.2-.078 2.681-.078 4.174l-3.623.673c1.44.27 2.642.492 3.812.712.456 4.346-1.713 7.594-6.112 8.392-5.962 1.082-12.155 1.212-17.95 2.822-3.276.9-6 3.893-8.89 6.062s-5.562 4.622-8.506 6.7c-4.513 3.181-5.962 7.172-3.643 12.141 1.44 3.081 1.262 4.777-2.539 4.914-4.3.167-5.867 3.746-8.256 6.426-1.173 1.315-3.223 2.836-4.738 2.7-6.39-.587-9.869 1.035-12.149 5.99-3.926-.478-7.614-1.446-11.24-1.249-4.624.247-8.067-2.066-11.807-3.926-2.063-1.029-4.046-2-5.97.425-.373.473-1.671.161-2.519.328-3.384.648-6.757 1.346-10.136 2.03.114.378.228.756.339 1.132-1.076-.84-2.455-1.485-3.159-2.567-.737-1.143-1.56-3.081-1.079-4.021 2.049-3.985 1.474-6.9-2.347-9.357-1.1-.712-1.7-2.175-2.628-3.209-1.554-1.719-3.162-1.983-5.739-1.9-3.5.108-7.066-2.01-10.586-3.223-1.524-.52-3.006-1.148-5.05-1.935 1.232-1.777 2.923-3.963 4.324-6.326a15.025 15.025 0 0 0 1.118-3.879c.3-1.16.3-2.5.9-3.47 3.176-5.206 2.931-6.076-2.706-8.281.8-2.417 1.554-4.839 2.411-7.227.167-.464.667-1.085 1.076-1.14 6.944-.929 7.291-8.006 11.017-11.916 1.485-1.554 2.03-4.06 2.822-6.2 1.313-3.565 2.269-7.274 3.821-10.725.523-1.168 2.386-1.732 4.054-2.864h-5.4c5.856-2.617 6.657-8.106 2.761-13.12 3.337-1.368 6.518-3.315 9.115-.078a54.13 54.13 0 0 1 6.168-2.914c1.994-.656 3.607.042 4.485 2.238 1.454 3.634 5.428 2.595 8.112 4 4.613 2.414 9.627 4.063 14.5 5.976 2.636 1.032 5.372 1.819 7.978 2.923 2.558 1.079 5.008 2.416 7.5 3.654a18.156 18.156 0 0 0 2.492 1.3c4.015 1.224 8.053 2.369 12.719 3.723 3.682-4.955 7.747-10.439 12.119-16.323.325-2.586.748-5.9 1.168-9.213.242-.092.487-.184.731-.27q1.481 3.32 2.962 6.657c.4-.025.809-.047 1.212-.067-.692-6.387-3.234-12.858.676-18.934-5.4-.918-8.721-7.213-6.571-11.1a4.056 4.056 0 0 0 .576-1.093c.259-1.5-4.955-8.387-6.243-9.107a31.245 31.245 0 0 1 -4.469-3.629 33.189 33.189 0 0 0 -4.335-3.546 20.838 20.838 0 0 0 -4.271-1.521c1.618-2.614 2.859-4.619 4.1-6.624l9.2.467c.131-.473.261-.948.392-1.421l5.239 5.411c3.7.865 8.209 1.924 12.714 2.981v-15.277c1.719 1.026 3.153 1.435 3.2 1.972.776 8.7 8.837 5.812 13.4 8.362 1.524.854 3.829.325 5.781.428.092-.434.184-.868.281-1.3l-3.253-2.347c4.285-1.446 8.823-2.975 13.295-4.485 1.251-3.37-.431-8.039 4.077-9.56 1.716-.578 3.929.337 6.51.64 1.91-2.989 4.018-3.092 8.184-.178 1.212.845 3.537.406 5.27.092a13.658 13.658 0 0 0 3.579-1.73c-.806-.662-2.061-1.688-3.52-2.878 1.674-1.582 5.7-1.721 3.582-3.965 1.977-3.376 3.9-6.059 5.183-9.026 1.1-2.539 1.048-2.8 4.091-1.568a24.667 24.667 0 0 0 -2.144 4.319c-.25.868.064 2.539.656 2.848.726.387 2.614.056 2.923-.531a15.945 15.945 0 0 0 2.016-5.979c.342-4.641 2.063-6.023 6.632-5.4 1.8.245 3.765-.67 5.434-1.009.893 1.643 1.81 3.331 2.731 5.019l1.009-.531q-.876 4.171-1.755 8.342c.256.058.509.12.765.181.648-2.464 1.407-4.9 1.894-7.394.22-1.11-.195-2.328-.164-3.5a16.323 16.323 0 0 1 .4-3.6c2.144-.011 4.688-.339 6.312.7 1.6 1.023 2.277 3.5 4.085 6.582.959-3.092 1.582-5.117 2.5-8.07l6.835 2.717c-1.407-2.074-2.778-4.193-4.257-6.237-1.207-1.674-2.291-3.123.345-4.611.562-.32.509-1.791.67-2.745.209-1.24.345-2.492.517-3.737zm3.871 110.633c2.328-1.88 9.532-1.321 10.917 1.26 2.01 3.746 4.847 4.558 7.038 4.057-1.518-1.126-3.8-2.911-6.184-4.535a15.262 15.262 0 0 0 -3.935-1.958c-1.554-.5-3.359-.342-4.811-1.007-2.656-1.212-2.831.353-3.02 2.191q-6.693-2.441-13.393-4.89l-.228.534c2.386 1.5 4.777 2.992 6.946 4.349.056-.145.375-.99.331-.873 2.529.348 4.434.609 6.339.873zm-38.978-47.678c-1.908.039-.551-5.242-4.107-2.514-3.02 5.631-1.482 8.3 5.645 8.248-.543-2.019-1.041-3.876-1.538-5.734zm166.723-246.509c.342 0 .69.006 1.037.008 0-2.225-.6-4.666.125-6.632 1.443-3.951-.631-4.883-3.69-5.506 2.642 1.3 3.946 2.87 2.647 6.12-.692 1.744-.119 3.988-.119 6.01zm-56.822 256.765c3.882 1.891 7.063 7.608 12.566 2.931-5.297 3.717-8.367-1.602-12.566-2.931zm81.421-89.649c-.261-.231-.523-.462-.784-.7q-2.327 1.777-4.663 3.548c.295.114.587.228.876.337-.378 1.568-.751 3.128-1.087 4.508 2.925-.292 3.137-2.386 1.972-4.811 1.417-1.108 2.554-1.995 3.686-2.883zm-191.881 65.723c.325.1.648.2.97.3q1.41-4.346 2.82-8.7l-1.132-.309q-1.33 4.358-2.658 8.709z"/><path d="m91.619 170.089c.442-1.2.879-2.411 1.318-3.621l.907.15c-.545-1.354-1.09-2.7-1.688-4.193 1.171-2.416 2.444-5.039 3.712-7.661-.072-.812-4.516-2.6-2.467-6.83.8-1.646 3.6-2.314 5.837-3.629-.011-.019-.25-1.224-.617-1.262a45.753 45.753 0 0 0 -11.5-.108c-1.285-.843-2.569-1.682-4.8-3.145 3.94-2.931 7.8-5.8 12.308-9.163-2.937-2.01-4.129-2.831-4.894-3.356-.117-1.51-.217-2.895-.325-4.28-1.221.27-2.442.534-3.918.856 2.3-2.583 4.7-5.283 7.1-7.984-.225-.331-.448-.665-.676-1l-5.308 2.637-.531-.531c2.041-2.928 4.079-5.862 6.079-8.729v-5.667c1.785.295 3.571.587 5.6.92-.1-1.068-.206-2.247-.311-3.423l.726.537c1.465-1.927 2.928-3.857 3.963-5.217l12.986 3.837c-3.587 1.824-6.949 2.717-9.057 4.85-1.922 1.938-7.1 2.461-4.46 7.761 5.82-1.944 11.576-1.966 17.024 2.544-1.079.993-2.216 1.883-3.162 2.945a4.953 4.953 0 0 0 -1.382 2.5c-.222 2.533-3.629 5.528-6.268 5.3-1.315-.114-2.642-.133-4.975-.245 1.465 1.6 2.208 2.422 3.47 3.8l-7.719.62c-.1.292-.2.581-.306.873a28.931 28.931 0 0 0 5.267 1.674c4.4.539 8.142 5.662 7.6 10.178a86.944 86.944 0 0 0 -.214 9.936c-.006.517.147 1.385.453 1.507 5.631 2.233 4.458 7.063 4.446 11.646l-4.207 1.307c1.465.868 2.252 1.279 2.987 1.774 3.4 2.28 3.593 5.573.52 8.231-2.105 1.821-2.105 1.821-.373 4.655 1.254-.473 2.739-1.621 3.782-1.3 2.592.781 5.72 1.641 7.241 3.571 1.588 2.013-1.262 7.135-3.918 8.306-1.471.651-3.162.834-4.6 1.546-.929.462-1.568 1.5-2.786 2.736l-3.751-.225c1.657 4.4 4.385 5.623 8.348 4.647a9.978 9.978 0 0 1 -10.358 4.519c-3.843-.845-7.622-2.022-11.379-3.212-1.271-.4-2.383-1.3-3.554-1.135q-4.609.375-9.215.754c.081-.323.164-.645.245-.968-3.334-1.143-6.671-2.289-10.422-3.573-.506 1.335-.628 2.575-1.313 3.217-.781.734-2.75 1.568-3.02 1.274-4.152-4.522-8.6-2.264-13.278-1.11 4.185-4.908 11.081-5.645 15.506-9.977 6.368 3.949 10.478 3.381 16.293-2.258-1.051-1.841-2.127-3.732-3.215-5.6q3.121-6.087 6.249-12.206z" transform="translate(62.241 115.011)"/><path d="m62.851 127.177c-3.6.128-6.521-.617-6.788-5.033 2.736-1.279 5.509-2.611 4.644-6.638-.153-.7.932-2.033 1.76-2.444.531-.264 1.78.459 2.453 1.032 1.135.968 2 2.241 3.1 3.253 2.027 1.866 3.782 1.941 5.359-.745.6-1.012 1.9-1.613 3.059-2.542-1.218-.845-2.319-1.61-3.5-2.43 8.49-4.833 8.49-4.833 16.109-3.134-2.811 1.574-5.528 3.1-8.248 4.622l.3.25c3.012-.9 5.979-2.136 9.057-2.55a4.921 4.921 0 0 1 4.107 2.2c.7 1.621 3.451 3.754.225 5.737-.317.2-.748.818-.656.99 2.881 5.428-2.656 5.189-4.8 7.244a4.155 4.155 0 0 0 -1.009 1.8c-1.107 3.968-2.15 7.953-3.215 11.935-1.007 3.762-5.531 6.354-9.288 6.437a59.116 59.116 0 0 0 -13.253 1.858c-3.2.818-12.644-.548-14.313-3.412-.826-1.413.428-4.154-3.1-3.882 1.7-.676 3.4-1.349 6.093-2.419l-5.036-1.655c-.028-.3-.053-.6-.081-.9 4.677-.311 9.352-.626 14.716-.987-1.935-.929-3.465-1.666-5.865-2.82 3.331-1.649 6.006-2.978 8.682-4.3-.17-.485-.343-.977-.512-1.467z" transform="translate(41 136.508)"/><path d="m140.416 203.493c-1.468 3.228-2.97 6-3.971 8.951-.531 1.557.147 3.512-.325 5.1-.512 1.719-1.388 4-2.742 4.594-1.335.59-4.3 1.685-5.122-1.265s-2.953-3.259-5.4-4.21c-3.837-1.488-7.18-4.21-10.795-6.3-1.78-1.029-3.7-1.813-5.486-2.678 1.015-4.558 5.89-6.874 9.7-4.107 4.419 3.2 8.734 2.711 13.434 1.746 3.474-.724 7-1.206 10.707-1.831z" transform="translate(150.906 305.528)"/><path d="m95.378 200.113c-4.5-1.048-3.545-4.95-4.154-7.7-.139-.62 2.942-2.058 4.636-2.936a7.552 7.552 0 0 1 3.468-1.04c2 .061 4.024-3.44 5.773-.459 1.643 2.792 3.12 5.587 1.048 9.446-1.721 3.212-1.618 7.408-2.252 11.176-.222 1.332-.228 2.708-.336 4.11-6.257-1.41-6.257-1.41-7.758 1.8-5.344-.927-5.603-6.536-.425-14.397z" transform="translate(123.557 277.739)"/><path d="m191.725 161.286c.311.242 1.218.962 2.236 1.769.723-.845 1.407-1.646 1.363-1.591 3.751 2.3 7.152 4.277 10.445 6.412 5.183 3.373 7.408-4.3 11.907-3.192.311 1.388.6 2.681 1.046 4.674-1.7.211-3.44.8-5.05.556-5.937-.882-6.143-.843-8.5 4.079-1.819 1.054-4.661 1.713-5.261 3.242-1.955 5.014-4.969 5.623-9.293 3.362.937-7.742.548-8.287-8.737-11.1 3.27-2.727 6.257-5.222 9.844-8.211z" transform="translate(285.01 232.347)"/><path d="m107.406 137.508c-1.073-7.505-6.165-14.649-2-23.039 1.287.706 2.425 1.335 3.826 2.105.712-.809 1.468-1.668 1.83-2.083 1.493.673 2.761 1.243 4.5 2.024-.289-1.5-.459-2.408-.623-3.256 1.844-.556 3.621-1.093 5.186-1.568.311 1.755.206 3.857 1.1 5.37.82 1.385 4.549.745 2.873 4.266-1.7.011-4.636-2.33-4.049 2.478.178 1.479-3.023 3.573-4.93 5.061-3.059 2.389-3.662 5.534-3.687 9.385-1.285-.273-2.728-.578-4.168-.881z" transform="translate(145.945 144.03)"/><path d="m84.873 125.663q-3.128 6.115-6.248 12.2c1.137 2.344.862 4.738-1.616 5.564-2.094.7-4.839 1.34-6.115-2.152a9.283 9.283 0 0 0 -3.693-4.488c-1.043-.62-2.97.242-4.288.412-.843-1.143-1.73-2.35-2.339-3.176 3.484-.767 6.76-1.424 10.005-2.213 4.569-1.11 2.82-5.728 5.206-8.74h-3.525c0-.289-.081-.737.006-.77 7.934-3.075 8.458-2.933 12.607 3.363z" transform="translate(68.987 159.437)"/><path d="m98.794 196.051c-2.878-2.414-5.117-9.913-4.049-12.313 1.4-3.142 4.179-4.154 7.742-4.291 2.442 6.532-3.531 10.542-3.693 16.604z" transform="translate(129.354 264.688)"/><path d="m111.456 126.731c.175-.982.69-2 .434-2.761-1.012-2.984.748-3.026 2.7-2.617a5.227 5.227 0 0 0 6.282-4.969l1.237.083a50.007 50.007 0 0 1 -.823 5.723c-1.346 5.145-3.718 8.521-9.83 4.541z" transform="translate(159.594 152.387)"/></g><path d="m190.368 42.989c2.2 1.446 4.825 2.28 5.67 4 .773 1.563-.381 4.082-.69 6.19-6.559-2.396-7.683-4.362-4.98-10.19z" fill="#fdfdfd" transform="translate(297.682 21.688)"/><path d="m108.751 113.142c1.9-1.5 3.8-2.992 6.782-5.347.331 2.847.537 4.6.74 6.34q-3.454.3-6.9.6z" fill="#fafafa" transform="translate(154.777 137.092)"/><path d="m112.453 123.975-4-3.54c1.123-.556 2.795-1.866 3.273-1.518 1.171.843 1.788 2.447 2.622 3.746z" fill="#fafafa" transform="translate(154.239 156.795)"/><path d="m143.517 106.141c2.305-.489 4.316-.92 6.332-1.349.184.336.37.673.553 1.007-2.074 1.321-4.146 2.642-6.885 4.388z" fill="#fafafa" transform="translate(216.687 131.745)"/><path d="m161.171 208.039c-2.925-2.364-6.321-5.1-9.621-7.775 5.072.536 8.971 3.926 9.621 7.775z" fill="#fdfdfd" transform="translate(230.992 301.758)"/></g><g fill="#efefef" stroke="#707070"><circle cx="820.5" cy="678.5" r="6.5" stroke="none"/><circle cx="820.5" cy="678.5" fill="none" r="6"/></g><path d="m-4301-22112.037h16.076l20.055 3.564s13.625 14.094 11.4 14.8-11.882 6.646-16.817 5.34-18.919-2.988-20.85-5.34-5.657-4.455-7.515-6.91-2.349-11.454-2.349-11.454z" fill="#fafafa" transform="translate(5145 22827)"/><path d="m-4301-22112.035h6.256l7.8 2.93s5.3 11.584 4.435 12.162-4.624 5.465-6.544 4.391-7.362-2.457-8.113-4.391-2.2-3.662-2.924-5.68-.91-9.412-.91-9.412z" fill="#efefef" stroke="#707070" transform="translate(5229 22789.086)"/><g fill="#fafafa"><path d="m-4301-22112.035h7.135l8.9 3.24s6.047 12.809 5.058 13.449-5.273 6.043-7.464 4.855-8.4-2.719-9.253-4.855-2.511-4.051-3.335-6.281-1.041-10.408-1.041-10.408z" transform="translate(5302 22705.066)"/><path d="m-4301-22112.035h7.135l8.9 3.24s6.047 12.809 5.058 13.449-5.273 6.043-7.464 4.855-8.4-2.719-9.253-4.855-2.511-4.051-3.335-6.281-1.041-10.408-1.041-10.408z" transform="translate(5118 22760.043)"/></g></g><g fill="#696969"><circle cx="507.584" cy="372.522" r="7.5"/><circle cx="326.584" cy="452.522" r="7.5"/><circle cx="408.584" cy="302.022" r="7.5"/><circle cx="524.584" cy="330.014" r="7.5"/><text font-family="CodecCold-Regular, Codec Cold" font-size="14" transform="translate(523.084 393.507)"><tspan x="0" y="0">Мюнхен</tspan></text></g><text fill="#284084" font-family="CodecCold-Regular, Codec Cold" font-size="20" transform="translate(372.084 387.004)"><tspan x="0" y="0">Париж</tspan></text><text fill="#696969" font-family="CodecCold-Regular, Codec Cold" font-size="14" transform="translate(428.084 290.522)"><tspan x="0" y="0">Лондон</tspan></text><text fill="#284084" font-family="CodecCold-Regular, Codec Cold" font-size="14" transform="translate(784.165 207.507)"><tspan x="0" y="0">Москва</tspan></text><text fill="#696969" font-family="CodecCold-Bold, Codec Cold" font-size="18" font-weight="700" transform="translate(343.084 450.522)"><tspan x="0" y="0">2828</tspan></text><text fill="#696969" font-family="CodecCold-Bold, Codec Cold" font-size="18" font-weight="700" transform="translate(428.084 274.538)"><tspan x="0" y="0">3454</tspan></text><text fill="#696969" font-family="CodecCold-Bold, Codec Cold" font-size="18" font-weight="700" transform="translate(538.322 336.514)"><tspan x="0" y="0">7478</tspan></text><text fill="#284084" font-family="CodecCold-Bold, Codec Cold" font-size="18" font-weight="700" transform="translate(782.084 190.507)"><tspan x="0" y="0">1913</tspan></text><path d="m1667.118 77.363a.721.721 0 0 0 .721-.72v-3.625a.721.721 0 1 0 -1.441 0v3.625a.721.721 0 0 0 .72.72zm14.4 10.312v-6.588a4.32 4.32 0 0 0 1.778-3.875 3.329 3.329 0 0 0 -1.463-2.535c-2.393-1.1-2.646-2.725-2.672-3.111 0-.03 0-.059 0-.087a.72.72 0 0 0 -.721-.725h-.005a.721.721 0 0 0 -.721.725v.087c-.026.385-.279 2.012-2.672 3.111a2.937 2.937 0 0 0 -1.242 1.623 3.888 3.888 0 0 0 -.218 1.753c-.016.071-.038.149-.066.235h-1.152l-.969-6.977h.49a.721.721 0 1 0 0-1.441h-1.171l-1.514-8.87a.718.718 0 0 0 .184-.1 3.581 3.581 0 0 0 1.655-3.317 2.743 2.743 0 0 0 -1.224-2.089c-1.75-.8-1.946-1.967-1.968-2.256 0-.022 0-.043 0-.064a.721.721 0 0 0 -.721-.725.72.72 0 0 0 -.72.725v.064c-.021.289-.218 1.452-1.967 2.256a2.743 2.743 0 0 0 -1.224 2.089 3.581 3.581 0 0 0 1.655 3.317.717.717 0 0 0 .184.1l-1.511 8.866h-1.149a.721.721 0 0 0 0 1.441h.447l-.484 3.684a3.422 3.422 0 0 1 -2.017-2.627c0-.027 0-.054 0-.08a.721.721 0 0 0 -.721-.725.72.72 0 0 0 -.72.725v.08c-.024.356-.26 1.84-2.455 2.849a1.541 1.541 0 0 0 -.423.3c-2.52-1.211-2.787-2.964-2.814-3.379 0-.033 0-.065 0-.1a.72.72 0 0 0 -.72-.725h-.006a.721.721 0 0 0 -.72.725v.1c-.028.422-.3 2.227-2.942 3.439a3.553 3.553 0 0 0 -1.554 2.706 4.47 4.47 0 0 0 1.472 3.754v5.641l-.443.443a.72.72 0 0 0 -.211.51v6.282a.721.721 0 0 0 .721.721h32.646a.721.721 0 0 0 .721-.721v-6.282a.72.72 0 0 0 -.211-.51zm-16.881-29.759a1.684 1.684 0 0 1 .435-1.128 2.118 2.118 0 0 1 4.114 0 1.685 1.685 0 0 1 .435 1.128 2.223 2.223 0 0 1 -.924 1.689h-3.134a2.221 2.221 0 0 1 -.928-1.689zm1.871 3.13h1.241l1.5 8.819h-4.249zm-2.214 10.262h5.647l.973 7.006h-6.627a3.55 3.55 0 0 0 .023-.477 3.765 3.765 0 0 0 -.615-1.97zm-7.54 5.6c.013-.018.025-.036.036-.054a1.323 1.323 0 0 1 .273-.345 6.091 6.091 0 0 0 2.529-2.031l.027-.039.027.039a6.087 6.087 0 0 0 2.53 2.031 2.03 2.03 0 0 1 .59 1.433 3.136 3.136 0 0 1 -1.115 2.13h-4.07a3.2 3.2 0 0 1 -1.115-2.13 2.15 2.15 0 0 1 .286-1.031zm-8.069 1.691a2.323 2.323 0 0 1 .748-1.724 7.007 7.007 0 0 0 2.919-2.337q.069-.1.131-.2c.042.066.085.133.132.2a6.787 6.787 0 0 0 2.518 2.14 3.541 3.541 0 0 0 -.212 1.157 3.44 3.44 0 0 0 .9 2.417 4.243 4.243 0 0 1 -.559.705c-.114.111-.367.375-.367.375h-4.795a3.625 3.625 0 0 1 -1.416-2.732zm7.443 8.947h-.835a.721.721 0 0 0 -.709.847l1.035 5.792h-6.094v-5.26l.443-.442a.721.721 0 0 0 .211-.51v-5.14h4.868a.721.721 0 0 0 .438-.148 7.586 7.586 0 0 0 .644-.55zm5.334 6.639h-4.379l-.929-5.2h.695a.721.721 0 0 0 .721-.721v-6.65h3.406v6.65a.721.721 0 0 0 .72.721h.695zm8.86-3.446-1.135 3.446h-6.26l1.035-5.792a.721.721 0 0 0 -.709-.847h-.835v-6.208a6.293 6.293 0 0 0 .582-.538 4.878 4.878 0 0 0 .808-1.047h8.681a5.4 5.4 0 0 1 -1.291.811 3.063 3.063 0 0 0 -1.343 2.262 3.876 3.876 0 0 0 1.4 3.45l-.005 3.76-.6.314a.685.685 0 0 0 -.33.392zm.3 3.446.908-2.755.721-.377a.683.683 0 0 0 .367-.6l.006-4.482a.684.684 0 0 0 -.245-.525 2.768 2.768 0 0 1 -1.188-2.27 2.105 2.105 0 0 1 .591-1.374 5.969 5.969 0 0 0 2.481-1.991l.047-.07.048.07a5.966 5.966 0 0 0 2.481 1.991 2.1 2.1 0 0 1 .591 1.374 2.768 2.768 0 0 1 -1.188 2.27.684.684 0 0 0 -.245.525l.007 4.482a.683.683 0 0 0 .367.6l.721.377.908 2.755zm9.735-14.019a.721.721 0 0 0 -.283.572v7.231a.72.72 0 0 0 .211.51l.443.442v5.263h-1.289l-1.135-3.446a.683.683 0 0 0 -.333-.392l-.6-.314-.005-3.76a3.874 3.874 0 0 0 1.4-3.45 3.062 3.062 0 0 0 -1.343-2.262 3.729 3.729 0 0 1 -2.409-2.641 2.359 2.359 0 0 1 .643-1.945 6.5 6.5 0 0 0 2.7-2.167c.025-.037.05-.073.073-.11.024.036.048.073.073.11a6.5 6.5 0 0 0 2.7 2.167 2.313 2.313 0 0 1 .661 1.564 3.2 3.2 0 0 1 -1.505 2.632zm-13.241 2.858a.721.721 0 0 0 -.721.721v5.889a.721.721 0 0 0 1.441 0v-5.886a.721.721 0 0 0 -.718-.72zm-14.661.716a.721.721 0 0 0 -.721.721v2.492a.721.721 0 0 0 1.441 0v-2.489a.721.721 0 0 0 -.718-.721zm14.677-31.923a.721.721 0 0 0 .721-.721v-.992a.72.72 0 1 0 -1.441 0v.996a.72.72 0 0 0 .722.721zm11.308 18.433a.72.72 0 0 0 .72-.72v-.992a.72.72 0 0 0 -1.441 0v.992a.721.721 0 0 0 .724.723zm-18.811.71a.721.721 0 0 0 .721-.721v-.992a.721.721 0 0 0 -1.441 0v.992a.721.721 0 0 0 .723.725zm-7.157-.275a.721.721 0 0 0 .721-.72v-.992a.721.721 0 0 0 -1.441 0v.992a.721.721 0 0 0 .722.724z" fill="#284084" transform="translate(-910.155 103.999)"/><path d="m-4028.118-22298.711s-30.138 153.119-312.1 153.119" fill="none" stroke="#284084" stroke-dasharray="1 8" stroke-linecap="square" stroke-width="2" transform="translate(4785.084 22502.505)"/><path d="m-.918 0h34.262v13.315l-7.7 14.269-22.7-3.817z" fill="#fafafa" transform="translate(566.74 349.499)"/><text fill="#696969" font-family="CodecCold-Regular, Codec Cold" font-size="14" transform="translate(538.322 317.514)"><tspan x="0" y="0">Берлин</tspan></text><path d="m443.084 342.507h31v26h-31z" fill="#fafafa"/><path d="m1197.111 108.625a51.877 51.877 0 0 1 -6.8-10.824.708.708 0 0 0 -.033-1.416h-.559a39.934 39.934 0 0 1 -2.092-7.582h.12a.709.709 0 1 0 0-1.417h-.36c-.515-3.259-.854-6.951-1.212-11.43h.07a.709.709 0 0 0 .708-.709v-4a.709.709 0 0 0 -.708-.709h-1.291v-3.026a.709.709 0 1 0 -1.417 0v3.028h-1.291a.709.709 0 0 0 -.709.709v4a.709.709 0 0 0 .709.709h.07c-.359 4.48-.7 8.171-1.212 11.43h-.361a.709.709 0 1 0 0 1.417h.12a39.916 39.916 0 0 1 -2.091 7.582h-.56a.708.708 0 0 0 -.032 1.416 51.911 51.911 0 0 1 -6.823 10.846.709.709 0 0 0 .559 1.144h5.189a.709.709 0 0 0 .708-.721v-.02c0-.031 0-.063 0-.095a6.433 6.433 0 1 1 12.867 0v.095.02a.708.708 0 0 0 .708.721h5.19a.709.709 0 0 0 .541-1.167zm-11.58-36.668v2.571h-2.583v-2.571zm-1.8 3.988h1.015c.372 4.635.73 8.3 1.211 11.441h-3.438c.481-3.137.841-6.805 1.214-11.44zm-2.759 18.446a45.593 45.593 0 0 0 1.316-5.587h3.9a45.661 45.661 0 0 0 1.315 5.587c.207.674.432 1.337.677 1.995h-7.88c.241-.658.466-1.321.673-1.995zm-2.284 9.015a7.791 7.791 0 0 0 -2.278 4.969h-3.062a55.216 55.216 0 0 0 5.236-8.114l1.834 1.835a7.877 7.877 0 0 0 -1.729 1.31zm3.125-1.919-.021-.024-2.55-2.55q.257-.555.492-1.111h9.013q.235.556.492 1.111l-2.55 2.55-.021.024a7.922 7.922 0 0 0 -4.853 0zm10.256 6.887a7.793 7.793 0 0 0 -2.278-4.969 7.886 7.886 0 0 0 -1.731-1.31l1.835-1.835a55.215 55.215 0 0 0 5.236 8.114z" fill="#284084" transform="translate(-723.195 255.711)"/><text fill="#696969" font-family="CodecCold-Bold, Codec Cold" font-size="18" font-weight="700" transform="translate(523.084 377.522)"><tspan x="0" y="0">21 411</tspan></text><text fill="#284084" font-family="CodecCold-Bold, Codec Cold" font-size="36" font-weight="700" transform="translate(343.084 366.004)"><tspan x="0" y="0">11 592</tspan></text><text fill="#696969" font-family="CodecCold-Regular, Codec Cold" font-size="14" transform="translate(343.084 466.507)"><tspan x="0" y="0">Мадрид</tspan></text><g fill="#fff" transform="matrix(-1 0 0 -1 1060.898 157)"><path d="m264.4564209 68.50030518h-329.05792236v-67.99941862h310.46109008.34695435l.12141418-.325 4.57939148-12.25748103 6.6131897 12.31898102.14144897.26350001h.29910279 6.49533081z"/><path d="m263.9564209 68.00030518v-66.99941862h-6.59350586l-6.37373352-11.87289679-4.43568421 11.87289679h-310.65499877v66.99941862zm1 1h-330.05792236v-68.99941862h310.96109008l4.96591187-13.29208338 7.1355896 13.29208338h6.99533081z" fill="#284084"/></g><g fill="#fff" transform="translate(2286.356 302)"><path d="m-1968.50036621 41.50030518h-233.99987793v-41.00031075h233.99987793v23.31543716.24453164l.19299316.1501255 15.7911377 12.28402901-15.47888184-.16412354-.50524902-.00537491v.50534439z"/><path d="m-1969.00036621 41.00031662v-5.18099976l15.00695801.1591034-15.00695801-11.67393685v-23.30446601h-232.99987793v40.00029922zm1 1h-234.99987793v-42.00029927h234.99987793v23.81543332l16.96142578 13.19433403-16.96142578-.17980194z" fill="#284084"/></g><text fill="#284084" font-family="CodecCold-Regular, Codec Cold" font-size="18" transform="translate(109.337 328)"><tspan x="0" y="0">Офисы: м</tspan><tspan baseline-shift="5.99940007934" font-size="10.499" y="0">2</tspan><tspan y="0">/1000 чел.</tspan></text><text fill="#284084" font-family="CodecCold-Regular, Codec Cold" font-size="18" transform="translate(819.972 119)"><tspan x="0" y="0">К примеру, офисов в Москве</tspan><tspan x="0" y="19">в 5 раз меньше, чем в Париже</tspan></text></svg>