<svg xmlns="http://www.w3.org/2000/svg" xmlns:xlink="http://www.w3.org/1999/xlink" width="1200" height="542" viewBox="0 0 1200 542">
    <defs>
        <linearGradient id="linear-gradient" x1="0.5" y1="0.201" x2="0.5" y2="1" gradientUnits="objectBoundingBox">
            <stop offset="0" stop-color="#284084"/>
            <stop offset="1" stop-color="#284084" stop-opacity="0"/>
        </linearGradient>
    </defs>
    <g id="Сгруппировать_2623" data-name="Сгруппировать 2623" transform="translate(-360 -2010)">
        <rect id="Прямоугольник_1728" data-name="Прямоугольник 1728" width="1200" height="542" transform="translate(360 2010)" fill="#fff"/>
        <g id="Сгруппировать_2622" data-name="Сгруппировать 2622" transform="translate(12763 8199)">
            <g id="Сгруппировать_1514" data-name="Сгруппировать 1514" transform="translate(-12869.501 -6417)">
                <path id="Контур_4947" data-name="Контур 4947" d="M8734.5,5994.406v-47.734l146.215-73.793,134.99,55.383,188.218-157.953c0,2,193.446-24.883,193.446-24.883-2.988,0,217.775-30.34,217.775-30.34v279.32Z" transform="translate(-8028.001 -5292)" opacity="0.16" fill="url(#linear-gradient)"/>
            </g>
            <text id="_8_4_" data-name="8,4%" transform="translate(-11318 -6009)" fill="#284084" font-size="30" font-family="CodecCold-Bold, Codec Cold" font-weight="700"><tspan x="0" y="0">8,4%</tspan></text>
            <text id="_7_4_" data-name="7,4%" transform="translate(-11519 -5980)" fill="#2b2c2d" font-size="16" font-family="CodecCold-Regular, Codec Cold"><tspan x="0" y="0">7,4%</tspan></text>
            <text id="_6_7_" data-name="6,7%" transform="translate(-11713 -5953)" fill="#2b2c2d" font-size="16" font-family="CodecCold-Regular, Codec Cold"><tspan x="0" y="0">6,7%</tspan></text>
            <text id="_3_4_" data-name="3,4%" transform="translate(-11902 -5758)" fill="#2b2c2d" font-size="16" font-family="CodecCold-Regular, Codec Cold"><tspan x="0" y="0">3,4%</tspan></text>
            <text id="_4_5_" data-name="4,5%" transform="translate(-12038 -5850)" fill="#2b2c2d" font-size="16" font-family="CodecCold-Regular, Codec Cold"><tspan x="0" y="0">4,5%</tspan></text>
            <text id="_2_9_" data-name="2,9%" transform="translate(-12202 -5775)" fill="#2b2c2d" font-size="16" font-family="CodecCold-Regular, Codec Cold"><tspan x="0" y="0">2,9%</tspan></text>
            <text id="_2018" data-name="2018" transform="translate(-12180 -5693)" fill="#8d8d8d" font-size="16" font-family="CodecCold-Regular, Codec Cold"><tspan x="0" y="0">2018</tspan></text>
            <text id="_2019" data-name="2019" transform="translate(-12037 -5693)" fill="#8d8d8d" font-size="16" font-family="CodecCold-Regular, Codec Cold"><tspan x="0" y="0">2019</tspan></text>
            <text id="_2020" data-name="2020" transform="translate(-11904 -5693)" fill="#8d8d8d" font-size="16" font-family="CodecCold-Regular, Codec Cold"><tspan x="0" y="0">2020</tspan></text>
            <text id="Август_2021" data-name="Август 2021" transform="translate(-11742 -5693)" fill="#8d8d8d" font-size="16" font-family="CodecCold-Regular, Codec Cold"><tspan x="0" y="0">Август 2021</tspan></text>
            <path id="Контур_4590" data-name="Контур 4590" d="M8.816.124l880.5-.218" transform="translate(-12171.816 -5714.493)" fill="none" stroke="#707070" stroke-width="1"/>
            <text id="Сентябрь_2021" data-name="Сентябрь 2021" transform="translate(-11562 -5693)" fill="#8d8d8d" font-size="16" font-family="CodecCold-Regular, Codec Cold"><tspan x="0" y="0">Сентябрь 2021</tspan></text>
            <text id="Декабрь_2021" data-name="Декабрь 2021" transform="translate(-11338 -5693)" fill="#8d8d8d" font-size="16" font-family="CodecCold-Regular, Codec Cold"><tspan x="0" y="0">Декабрь 2021</tspan></text>
            <path id="Контур_4946" data-name="Контур 4946" d="M9187.5,5769.569l146.959-76.213,137.651,55.9,183.96-156.683,197.483-26.675,217.946-29.766" transform="translate(-21354 -11530.576)" fill="none" stroke="#284084" stroke-width="3"/>
            <g id="Эллипс_572" data-name="Эллипс 572" transform="translate(-12169.5 -5769.007)" fill="#284084" stroke="#fff" stroke-width="2">
                <ellipse cx="6.5" cy="6" rx="6.5" ry="6" stroke="none"/>
                <ellipse cx="6.5" cy="6" rx="5.5" ry="5" fill="none"/>
            </g>
            <g id="Эллипс_577" data-name="Эллипс 577" transform="translate(-12026.5 -5842.5)" fill="#284084" stroke="#fff" stroke-width="2">
                <ellipse cx="6.5" cy="6" rx="6.5" ry="6" stroke="none"/>
                <ellipse cx="6.5" cy="6" rx="5.5" ry="5" fill="none"/>
            </g>
            <g id="Эллипс_578" data-name="Эллипс 578" transform="translate(-11890 -5789)" fill="#284084" stroke="#fff" stroke-width="2">
                <ellipse cx="6.5" cy="6" rx="6.5" ry="6" stroke="none"/>
                <ellipse cx="6.5" cy="6" rx="5.5" ry="5" fill="none"/>
            </g>
            <g id="Эллипс_579" data-name="Эллипс 579" transform="translate(-11702.5 -5944)" fill="#284084" stroke="#fff" stroke-width="2">
                <ellipse cx="6.5" cy="6" rx="6.5" ry="6" stroke="none"/>
                <ellipse cx="6.5" cy="6" rx="5.5" ry="5" fill="none"/>
            </g>
            <g id="Эллипс_580" data-name="Эллипс 580" transform="translate(-11509 -5970)" fill="#284084" stroke="#fff" stroke-width="2">
                <ellipse cx="6.5" cy="6" rx="6.5" ry="6" stroke="none"/>
                <ellipse cx="6.5" cy="6" rx="5.5" ry="5" fill="none"/>
            </g>
            <g id="Эллипс_581" data-name="Эллипс 581" transform="translate(-11289 -6000)" fill="#284084" stroke="#fff" stroke-width="2">
                <ellipse cx="6.5" cy="6" rx="6.5" ry="6" stroke="none"/>
                <ellipse cx="6.5" cy="6" rx="5.5" ry="5" fill="none"/>
            </g>
        </g>
        <g id="Сгруппировать_2621" data-name="Сгруппировать 2621" transform="translate(540.108 -2723.861)">
            <g id="Объединение_7" data-name="Объединение 7" transform="translate(680.2 4822.5)" fill="#fff">
                <path d="M 217.8737640380859 69.81703948974609 L 203.2454071044922 64.53044891357422 L 203.1630401611328 64.50070190429688 L 203.0754699707031 64.50070190429688 L -53.4999885559082 64.50070190429688 L -53.4999885559082 0.499987930059433 L 211.1917266845703 0.499987930059433 L 211.1917266845703 57.4735221862793 L 211.1917266845703 57.60134506225586 L 211.2530517578125 57.7134895324707 L 217.8737640380859 69.81703948974609 Z" stroke="none"/>
                <path d="M 216.8010101318359 68.89771270751953 L 210.6917266845703 57.72916793823242 L 210.6917266845703 0.9999879002571106 L -52.9999885559082 0.9999879002571106 L -52.9999885559082 64.00070190429688 L 203.2506256103516 64.00070190429688 L 216.8010101318359 68.89771270751953 M 218.9466247558594 70.73641967773438 L 203.0754699707031 65.00070190429688 L -53.9999885559082 65.00070190429688 L -53.9999885559082 -1.207624154631048e-05 L 211.6917266845703 -1.207624154631048e-05 L 211.6917266845703 57.4735221862793 L 218.9466247558594 70.73641967773438 Z" stroke="none" fill="#284084"/>
            </g>
            <text id="Средние_значения_официальной_инфляции" data-name="Средние значения
официальной инфляции" transform="translate(870.263 4851)" fill="#284084" font-size="18" font-family="CodecCold-Regular, Codec Cold"><tspan x="-179.587" y="0">Средние значения</tspan><tspan x="-226.828" y="19">официальной инфляции</tspan></text>
        </g>
    </g>
</svg>
