<svg height="250" viewBox="0 0 320 250" width="320" xmlns="http://www.w3.org/2000/svg"><path d="m0 0h320v250h-320z" fill="#fff"/><g stroke="#bababa" stroke-width=".7"><path d="m127.508 145.256c.351.216.709.42 1.048.653.566.389 1.358.673 1.642 1.218 1.176 2.247 2.221 3.021 4.553 2.9l-.992 1.516c2.981 1.759 5.4-.55 8.011-.757l2.512 1.922a4.1 4.1 0 0 0 3.652 3.236c.1-2.418.679-3.009 3.086-3.274a3.917 3.917 0 0 0 1.393-.486 60.515 60.515 0 0 1 5.366-2.929 8.837 8.837 0 0 1 3.763-.439c.411.022 1.064.952 1.1 1.5.094 1.419.465 2.1 1.991 1.493a1.54 1.54 0 0 1 .884.032 2.853 2.853 0 0 0 3.231-2.545 19.211 19.211 0 0 1 .522-2.672c.9.752 1.645 1.546 1.782 1.452a16.235 16.235 0 0 0 2.107-1.938l2.771.893c.155-.151.307-.3.462-.455-3.477-2.137-4.393-4.962-2.981-8.6-.071-.126-.5-.527-.427-.792a36.983 36.983 0 0 1 1.888-5.96 2.986 2.986 0 0 1 2.485-1.421c1.079.288 1.951 1.4 2.873 2.2.138.123-.027.6.113.723.765.673 1.579 1.286 2.375 1.919a11.754 11.754 0 0 0 1.284-2.509 44.422 44.422 0 0 0 .772-4.961 10.206 10.206 0 0 0 -.065-1.689l-2.175.518a3.661 3.661 0 0 1 -.635-1.386c-.084-1.116 1.06-2.409-.57-3.3-.072-.038.081-.885.3-.98a11.78 11.78 0 0 1 3.8-1.388c3.447-.19 6.91-.066 10.485-.066.043-.757.083-1.439.132-2.324l1.266.613c.709-3.66 3.773-1.681 5.754-2.412.085-1.384-.318-1.77-1.756-1.866-1.346-.09-2.69-.271-4.065-.414.127-1.1.2-1.748.268-2.346h-2.473c-1.412.32-2.432.538-3.444.789a5.833 5.833 0 0 0 -.923.378 11.883 11.883 0 0 1 -2.555.921c-.825 1.1-5.274 3.087-6.266 3.028-.906.333-1.876 1.027-2.695.881-.63-.11-1.272-1.208-1.561-1.993-.691-1.891-2.52-1.383-3.8-1.885-1.684-.663-2.036-1.83-1.383-3.42a7.889 7.889 0 0 0 .389-4.883c-.634-2.113-.909-4.675.218-6.4a1.762 1.762 0 0 0 .1-.352c2.907.424 2.117-2.894 3.9-3.9 1.378-.773 1.948-2.954 2.936-4.47.66-1.019 1.422-1.97 2.137-2.95l.48.318c-.2-1.4-.075-2.981-.7-4.159-.583-1.1-1.965-1.774-2.958-2.6v.832h-5.009c-.052 1-.091 1.746-.131 2.489-2.338 1.168-2.3 3.3-2.268 5.46a5.477 5.477 0 0 1 -.319 1.942c-.418 1.13-.949 2.219-1.457 3.315a2.353 2.353 0 0 1 -.583.906c-1.06.792-2.188 1.493-3.238 2.3a3.1 3.1 0 0 0 -.992 1.222 4.56 4.56 0 0 1 -3.719 2.7c-.711.141-1.7-.359-1.624.826.031.474.859.9 1.527 1.542-.565 2-1.562 4.334-1.758 6.731-.1 1.257 1.086 2.705 1.91 3.92a10.627 10.627 0 0 0 2.1 1.7 3.274 3.274 0 0 1 1.063 1.193 2.915 2.915 0 0 1 .114 1.967c-.427.9-2.412 1.1-1.118 2.733q-1.282.922-2.567 1.845c-.155-.21-.311-.417-.466-.626-.4 2.024-1.393 3.038-3.88 1.629 1.316 2.483 1.474 4.284.533 6.219a22.36 22.36 0 0 0 -.737 3.322c-.462 1.54-1.066 3.037-1.593 4.557-.206.592-.372 1.2-.64 2.073-3.8-1.543-6.388-.589-6.816 3.837-1.375-.062-2.722-.121-3.926-.174a9.813 9.813 0 0 0 -.428-2.695c-.6-1.279-1.172-2.371.119-3.589.211-.2.006-1.036-.225-1.462-.533-.982-1.6-1.84-1.726-2.842a37.739 37.739 0 0 1 .084-5.728c.009-.406.143-.979-.067-1.2-2.267-2.318-1.259-4.708-.312-7.269l-1.921-1.321c.4-.8.773-1.548 1.146-2.3l-.632-.382c-1 .98-2.753 1.191-2.381 3.5.147.908-.8 2-1.281 2.993a.552.552 0 0 1 -.521.137c-2.941-1.835-3.866 1.017-5.265 2.4-1.182 1.171-4.125 1.716-5.587.678a4.123 4.123 0 0 0 -1.292-.316c.192-.431.373-.833.387-.865a19.4 19.4 0 0 1 -2.382-2.743c-.2-.331.392-1.124.607-1.712.382-1.049.753-2.1 1.13-3.155l-.654-.471-1.873 1.252c.11-1.651.11-1.651 3.33-2.551-1.539-1.614.462-2.111.989-3.133-1.4-.057-1.641-.268-2.9-2.511l1.476-.451c-.376-.756-.683-1.364-.97-1.98a1 1 0 0 1 -.009-.387l1.848-.2-1.754-1.455c.4-.881.662-1.454 1.041-2.288l1.717-.906c-.472-.565-.836-1-1.27-1.516l5.2-.376c-.074-.718-.123-1.179-.183-1.768l2.841.672c-.085-.719-.14-1.181-.2-1.684a3.594 3.594 0 0 1 .514-.131c1.481-.146 3.07-.01 3.8-1.8.128-.31.589-.718.867-.7 2.2.174 2.873-1.792 4.1-2.918a31.268 31.268 0 0 0 2.545-2.889l2.266 1.26a12.958 12.958 0 0 1 .489-1.826c.3-.7.765-1.337 1.085-2.035.333-.724.579-1.487.926-2.4.765-1.2 1.674-2.62 2.827-4.421l1.024-.716c-.293-.237-.585-.476-.789-.64a17.289 17.289 0 0 1 .653-1.74 13.658 13.658 0 0 1 .825-1.367 25.935 25.935 0 0 0 3.525-1.413c.2-.114-.108-1.142-.206-1.935l2.014-.517-2.168-1.597h2.308c.05-.547.089-1.007.131-1.468h.679c.062.591.127 1.18.189 1.77l.511.075c.168-.964.335-1.929.469-2.7.906-.325 1.975-.413 2.517-.992.5-.535.424-1.6.632-2.426.143-.573 1.534-1.48 2.173-1.674a11.141 11.141 0 0 0 1.876-1.019c-.112-.5-.3-1.332-.48-2.17 1.044 1.283 2.366-2.132 3.343.246a4.321 4.321 0 0 0 -.014-1.168c-.494-1.69.387-2.774 2.164-2.752 1.031.013 2.379.259 2.117-1.4 2.489.593 1.8-1.572 2.33-2.454l2.608-.357c-.448-.582-.724-.933-.952-1.228l2.719-.9c-.846 1.628-1.632 3.139-2.422 4.653l.725.405c.564-.979 1.128-1.957 1.739-3.019.4.695.786 1.375 1.12 1.961.85-1.438 1.68-2.842 2.508-4.246l.439.193v3.59l.474.183c.856-1.5 1.671-3.171 3.3-.846.061.091.347.046.526.037 2.144-.1 1.956-.15 1.466 1.755-.131.5-1.181 2.191.782 2.616.583.127-.043 1.487 1.255 1.822 1.276.33 1.953.519 2.048-1.35.969 1.594 1.643 1.076 2.153-.03 2.732 3.379 6.281 2.96 9.822 2.629a3.838 3.838 0 0 1 1.821.046c2.52 1.147 4.955 2.479 7.492 3.59 1.187.521 2.592.541 3.791 1.044a4.679 4.679 0 0 1 2.189 6.806 7.053 7.053 0 0 1 -6.26 3.988 8.342 8.342 0 0 1 -2.233-.7c-1.375 1.415-3.3.352-4.863-.084-2.117-.589-4.58-.5-6.3-2.332-.253-.268-.973-.1-1.5-.13.831 3.58 2.319 4.98 5.747 5.467a3.06 3.06 0 0 1 2.25 3.043 6.274 6.274 0 0 0 .29 2.346 13.093 13.093 0 0 0 1.019 2.652c.728 1.369 1.506 2.78 3.511 1.988a.665.665 0 0 1 .587.243 4.016 4.016 0 0 0 3.787 1.74 3.183 3.183 0 0 0 2.413-1.383c.486-1.1-.987-2.926-1.993-3.071-1.156-.166-2.295-.448-3.621-.716.438-.968.663-1.467.919-2.035l14.711 2.911c-.365-1.882-.365-1.882-3.282-1.547a22.467 22.467 0 0 0 -2.111-3.324 21.529 21.529 0 0 0 -3.109-2.41c1.473-2.456 2.932-4.886 4.409-7.348h2.849c-.067.5-.144 1.059-.25 1.826l4.348-.462-1.8-2.04c1.271-2.525.212-4.492-2.365-4.75-.622-2.569-1.231-5.088-1.892-7.822 1.507-1.175 2.779-.872 6.217 2-.437.17-.9.213-1.135.465-.748.784-2.3.888-1.944 2.636.324 1.61 1.554 1.194 2.5 1.485a1.7 1.7 0 0 1 .679.343c1.98 1.949 3.821.64 5.422-.455 1.732-1.185.757-2.935.342-4.5.568-.914 2.475-1.482.768-2.95 1.1-1.553 2.155-3.034 3.081-4.336l2.46.765c-.571-1.125-.905-1.781-1.29-2.537 1.934.024 1.085-1.137.8-2.051 1.359-.467 1.873.257 1.952 1.311a13.353 13.353 0 0 1 -.227 2.432l2.7-.579c.38-1.057.839-2.558 1.478-3.979a1.8 1.8 0 0 1 1.345-.927c1.758.089 2.2-.862 2.275-2.351a7.933 7.933 0 0 1 .692-2.652c1.026 1.587 1.09 4.92 3.588 2.031.243-1.245.486-2.49.761-3.9-2.12-.7-2.884-2.449-2.2-4.76l7.645-2.438c.005 2.572.918 3.241 2.949 2.857 1.718-.323 2.061 1.654 3.263 2.267.295.15.451.566.636.814a9.6 9.6 0 0 1 1.724-.752 10.778 10.778 0 0 1 1.9 3.437c.385 1.774.936 3.721-.968 5.26-.405.328-.335 1.585-.1 2.289.643 1.957.874 3.721-.292 5.66-.521.867-.211 2.239-.257 3.382-.033.881.179 1.861-1.134 2.088a2.44 2.44 0 0 0 .076 1.448 27.075 27.075 0 0 1 2.066 2.784c.944 2.1 1.579 4.327 2.473 6.445.245.582.974.954 1.468 1.436a20.82 20.82 0 0 1 4.218 6.957 38.042 38.042 0 0 0 3.047 4.747 14.825 14.825 0 0 1 1.074 2.2 35.063 35.063 0 0 0 1.877 4.59c.61 1.031 1.918 1.631 2.606 2.634a11.137 11.137 0 0 1 2.367 5.988 1.3 1.3 0 0 1 -.352.937c-1.3 1.05-1.039 2.017-.2 3.28s1.593 2.747-.2 4.027a13.056 13.056 0 0 1 1.543 2.659c.6 2.008 1.651 1.848 3.166 1.052a12.4 12.4 0 0 1 3.376-1.152 2.33 2.33 0 0 1 1.783.571 2.025 2.025 0 0 1 .3 1.647 30.7 30.7 0 0 1 -1.116 3.244 2.493 2.493 0 0 0 -3.766.527c-1.182 1.652.541 2.835 1.4 4.061 3.118-.862 6.194-1.565 6.812-5.291a22 22 0 0 1 1.516 1.962 1.94 1.94 0 0 1 .335 1.339 4.913 4.913 0 0 0 .881 4.641c.857 1.189 1.185 2.746 1.956 4.013 1.419 2.333 1.975 2.353 4.141.794a1.624 1.624 0 0 1 1.528-.052 5.15 5.15 0 0 0 6.192 1.459c1.119-.574 1.928-.872 2.695.395a2.016 2.016 0 0 1 -.575 3c-.658.485-1.379.881-2.029 1.373-.87.659-1.7 1.372-2.549 2.062.107.132.212.265.319.4a22.368 22.368 0 0 1 -2.63.451 2.3 2.3 0 0 1 -1.52-.4c-1.267-1.09-2.673-.847-3.322.682-.159.375-.3.758-.481 1.126-.157.33-.348.644-.4.732a9.835 9.835 0 0 0 -2.664.284c-.613.253-1.031.979-1.855 1.241-.136.649-.312 1.293-.4 1.947-.137 1.036-.66 1.206-1.606.952-1.271-.342-2.581-.55-4.087-.86l.378 2.113c-1.868-.531-3.564-.9-5.168-1.507-1.057-.4-1.968-.961-2.862.188-.107.135-.316.37-.364.344-2.433-1.29-2.892.817-3.8 2.174a4.048 4.048 0 0 1 -.763.671c-.569-.368-1.119-.725-1.8-1.168-.772 2.328-1.706 4.279-3.984 5.385-.522.254-.385 1.863-.578 3.006l-1.841.759c1.157 1.452 2.285 2.843 1.5 5.268-1.406-1.156-2.48-2.037-4.044-3.318-.218 1.182-.357 1.99-.521 2.793a2.219 2.219 0 0 1 -.318 1.044c-.848.888-.635 1.67-.015 2.573a1.806 1.806 0 0 1 .31 1.421c-.624 1.491-.008 2.155 1.2 2.289-.243 1.528-.467 2.918-.716 4.484 1.736-.347 3.016-.621 3.075 1.558.03 1.187 1.387 1.574 2.379.933a14.088 14.088 0 0 1 1.666-.815c1.728 1.28 3.315 2.457 4.917 3.646-.364.662-.718 1.307-1.234 2.249a17.415 17.415 0 0 1 2.259.644 1.749 1.749 0 0 1 .946.94c.079.3-.288.773-.552 1.091a14.812 14.812 0 0 1 -1.8 1.911 21.192 21.192 0 0 1 -2.382 1.466c-.462 2.421-1.053 5.357-1.57 8.306-.249 1.42 1.012 1.828 1.881 1.829 1.885.005 3.768.883 4.051 2.518.7 4.058 3.171 6.59 6.731 8.318 1.943.945 1.925 1.355.227 2.771-.226.185-.174.7.085 1.209l2.244-3.089a12.641 12.641 0 0 1 2.517 1.982c1.74 2.21 3.605 3.835 6.619 2.6-.768.906-1.509 1.693-2.135 2.564a2.2 2.2 0 0 0 -.159 1.2 5.612 5.612 0 0 0 .161 2.468c1.138 2.018.056 3.553-.663 5.283-.184.444.555 1.273.964 2.12h-3.818c1.237-1.922.3-4.761-2.375-6.619a27.912 27.912 0 0 1 -3.086 4.285c-1.951 1.871-3.086 5.162-6.755 4.428a7.46 7.46 0 0 1 -2.132-.643c-1.895-1.049-3.711-2.236-5.606-3.286a2.4 2.4 0 0 0 -1.374.044c-2.685.451-3.343-.14-3.073-2.807a2.257 2.257 0 0 0 -2.44-2.339c-.254.019-.671.118-.742.008-1.369-2.148-3.062-1.113-4.793-.63a13.759 13.759 0 0 1 -3.245.046c1.895-1.825.5-2.63-.338-3.824-1.316-1.887-2.751-3.519-4.977-4.188-1.092-.329-2.316-.2-3.433-.48a4.541 4.541 0 0 1 -2.437-1.166c-1.755-2.3-4.516-2.711-6.853-3.865-1.391-.687-3.085-.732-4.592-1.222a9.3 9.3 0 0 1 -2.01-1.276c.385-.564.789-1.116 1.147-1.7a2.273 2.273 0 0 0 .4-.961c.057-.836.02-1.678.02-2.765.7.362 1.157.6 1.6.823.385-.876.738-1.674 1.193-2.7-1.078-.582-2.349-1.266-4-2.158a19.934 19.934 0 0 1 1.98-.445 21 21 0 0 1 2.161-.014c-.519-.785-.758-1.144-1.069-1.613a7.853 7.853 0 0 0 1.248-.827 8.337 8.337 0 0 0 1.335-1.617c.084-.138-.409-.852-.481-.829a12.425 12.425 0 0 0 -1.822.815 3.383 3.383 0 0 0 -.587.484c-1.507-1.245-6.2 1.816-6.793 4.4-2.8-.754-3.854 1.826-5.841 2.469-.626.173-1.728.234-1.8.533-.348 1.53-1.339 1.391-2.475 1.321a24.587 24.587 0 0 0 -2.929.17l-.832 1.54c-1.286-1.6-2.408-.4-3.489.168-.861.457-1.561 1-2.6.335-1.3-.837-1.156-1.476.269-2.214-.541-1.048-1.069-2.071-1.6-3.1l-.354.119c-.053.613-.107 1.229-.15 1.739-.6.262-1.171.475-1.7.757-.39.206-.823.794-1.079.714-2.3-.723-2.24.987-2.443 2.416-1.777-1.232-1.777-1.232-2.567.319l2.583 1.549c-1.1.489-1.77.78-2.438 1.083-.833.378-2.515-.617-2.372 1.285a5 5 0 0 0 1.06 2.445c1.034 1.374 1.044 1.575-.874 3.635-.314-.465-.625-.928-1.162-1.73-2.028 3.308-.554 6.7-1.394 9.8-2.363.489-2.923 1.3-2.807 4.042a3.026 3.026 0 0 1 -.42 1.322c-.321.669-.71 1.307-1.247 2.282 2.038-.223 2.892.4 3.266 2.022.477 2.08 2.315 2.861 4.1 3.633.479.208.808.759 1.206 1.154-.489.184-1.007.583-1.464.523-2.93-.38-4.649 1.467-6.526 3.225a10.112 10.112 0 0 1 -3.746 2.007c.47-.593.942-1.187 1.267-1.6-2.261-.587-4.315-1.115-6.369-1.654-.9-.235-1.949-1.074-2.333.618l-2.131-.49-3.973 1.93q1.768 1.381 3.482 2.719c-1.19 1.939-1.855-1.129-3.034-.314.21.481.423.969.635 1.459-.077.071-.156.14-.232.211-.69-.57-1.377-1.14-2.287-1.895v2.261c-.914-1.679-1.645-3.021-2.54-4.669-.607.41-1.791.855-1.778 1.26a9.02 9.02 0 0 0 .918 3.692c.42.833 1.4 1.386 2.377 2.3-1.689.356-3.4.591-1.661 2.5-1.8 3.2 1.661 1.935 2.52 2.854.874.931 2.3 1.342 3.172 2.273.479.512.307 1.628.45 2.612-1.189-.065-1.628-2.35-2.9-.733a14.328 14.328 0 0 0 -1.087 1.869c.65.3 1.3.6 2.064.946-.655.349-1.455.773-2.222 1.179-.66-.7-1.215-1.28-1.77-1.867-.244.156-.486.314-.73.467 1.04 1.885 2.076 3.767 3.1 5.62-1.5.3-1.5.3-3.1-2.015-.206 1.029-.354 1.775-.632 3.157-.692-1.415-1.12-2.39-1.645-3.315-.18-.316-.6-.5-.907-.748-.2.6-.39 1.2-.648 2-1.781-.149-1.53-1.963-1.408-2.775.248-1.619.1-2.71-1.41-3.528a1.677 1.677 0 0 1 -.556-1.271c-.008-.17.679-.483 1.072-.522a33.041 33.041 0 0 1 4.262-.231 7.884 7.884 0 0 1 2.113.687c-.008.185-.015.375-.024.559.648-.29 1.294-.583 2.186-.982a8.8 8.8 0 0 0 -7.321-2.635 9.427 9.427 0 0 1 -2.922.165c-.663-.151-1.18-.954-1.7-1.412l2.156-1.675c-.822-.24-1.642-.476-2.6-.756-1.93-1.594-2.374-4.977-5.611-5.655a12.677 12.677 0 0 1 -.088-2.054c.277-2.355.7-4.7.893-7.055a2.522 2.522 0 0 0 -.928-1.648c-.691-.629-1.714-.932-2.3-1.628a8.491 8.491 0 0 0 -3.166-1.952c-2.057-1.026-3.777-2.736-5.635-4.166-1.247-.961-1.81-2.871-4.216-2.187-.72.2-2.064-1.721-3.1-2.7a5.418 5.418 0 0 1 -.659-.969c.3-.151.588-.295.949-.476a4.11 4.11 0 0 0 -.546-.668c-1.246-.96-2.736-1.57-1.857-3.84.27-.7-1.369-2.137-2.269-3.431-.906 1.44-1.532 2.441-2.365 3.772-.447-1.8-1.947-3.176.094-4.667.328-.237.236-1.057.425-2.084-1.725.453-3.16.826-4.594 1.21-.361.1-.734.38-1.067.33-1.514-.226-2.545.37-3.256 1.972l1.353 1.687c-2.3 2.6-1.655 5.415 1.537 6.606a6.264 6.264 0 0 1 3.852 6.137 5.225 5.225 0 0 0 1.325 2.772c1.714 2.361 3.318 4.949 6.98 4.233.525-.1 1.186.486 1.784.757l-1.347 1.782a63.35 63.35 0 0 1 5.865 2.836c1.981 1.2 4.635 1.429 5.805 3.847.208.431.611.9.558 1.294a10.476 10.476 0 0 1 -.724 2.116c-.5-.493-1.3-.917-1.436-1.495a1.545 1.545 0 0 0 -1.844-1.391 2.1 2.1 0 0 1 -1.444-.363c-1.025-1.1-1.9-.907-2.683.163-1.209 1.656-1.455 3.98-.479 4.7.368.271 1.015.163 1.685.245v3.65c-1.759.325-3.049 1.1-3.316 3.193-.184 1.441-2.344 2.258-3.979 1.732l1.269-3.622c1.582-.249 1.706-1.524 1.281-2.943a11.84 11.84 0 0 0 -1.438-3.517 5.93 5.93 0 0 0 -2.682-2.029c-.991-.354-1.612-.618-1.493-1.765.192-1.831-1.587-2-2.531-2.741-4.172-3.28-8.769-6.006-12.248-10.16-2.534-3.03-5.01-5.985-5.665-10.08a24.269 24.269 0 0 0 -1.527-4.262c-1.547.824-3.16.1-4.868-.667-1.11-.5-1.968.3-2.716 1.248a7.352 7.352 0 0 1 -2.172 1.491c-1.942 1.134-4.445 1.107-5.991 3.209-.385.526-2.259.606-2.934.14a25.04 25.04 0 0 1 -3.608-3.668c-.071.188-.144.373-.216.563-1.386-.409-2.775-.809-4.159-1.231-.4-.123-.859-.526-1.153-.419a15.591 15.591 0 0 0 -3.87 1.714 5.179 5.179 0 0 0 -1.347 2.493 6.26 6.26 0 0 0 -.036 1.906l-1.655.307 1.741.325a3.244 3.244 0 0 1 -2.791 3.833c-2.723.494-5.551.554-8.2 1.289-1.5.411-2.739 1.778-4.06 2.769s-2.54 2.111-3.885 3.059c-2.061 1.453-2.723 3.275-1.664 5.545.658 1.407.577 2.182-1.159 2.244-1.963.076-2.68 1.711-3.771 2.935a3.278 3.278 0 0 1 -2.164 1.233c-2.918-.268-4.507.472-5.549 2.736a30.535 30.535 0 0 0 -5.133-.57c-2.112.113-3.684-.944-5.392-1.793-.942-.47-1.848-.916-2.727.194-.17.216-.763.074-1.151.15-1.546.3-3.086.615-4.629.927.052.173.1.345.155.517a6 6 0 0 1 -1.443-1.172c-.337-.522-.712-1.407-.493-1.836.936-1.82.673-3.151-1.072-4.273-.5-.325-.777-.993-1.2-1.466a2.9 2.9 0 0 0 -2.621-.866c-1.6.05-3.227-.918-4.835-1.472-.7-.238-1.373-.525-2.306-.884.563-.812 1.335-1.81 1.975-2.889a6.862 6.862 0 0 0 .511-1.772 5.916 5.916 0 0 1 .409-1.585c1.45-2.377 1.339-2.775-1.236-3.782.363-1.1.71-2.21 1.1-3.3.076-.212.3-.5.491-.521 3.171-.424 3.33-3.656 5.032-5.442a8.161 8.161 0 0 0 1.289-2.832c.6-1.628 1.036-3.322 1.745-4.9.239-.533 1.09-.791 1.852-1.308h-2.444c2.675-1.2 3.04-3.7 1.261-5.992 1.524-.625 2.977-1.514 4.163-.036a24.721 24.721 0 0 1 2.817-1.331 1.514 1.514 0 0 1 2.048 1.022c.664 1.66 2.479 1.185 3.7 1.826a66.846 66.846 0 0 0 6.62 2.729c1.2.471 2.454.831 3.644 1.335 1.168.493 2.287 1.1 3.425 1.669a8.29 8.29 0 0 0 1.138.592c1.834.559 3.678 1.082 5.809 1.7 1.681-2.263 3.538-4.768 5.535-7.455.149-1.181.342-2.694.533-4.207.111-.042.222-.084.334-.123q.676 1.516 1.353 3.04c.184-.011.37-.022.554-.03-.316-2.917-1.477-5.872.309-8.647-2.466-.419-3.983-3.294-3-5.068a1.852 1.852 0 0 0 .263-.5c.118-.685-2.263-3.83-2.851-4.159a14.27 14.27 0 0 1 -2.041-1.657 15.159 15.159 0 0 0 -1.98-1.619 9.517 9.517 0 0 0 -1.951-.695l1.88-3.001 4.2.213.179-.649 2.393 2.471c1.689.395 3.749.879 5.806 1.361v-6.976c.785.469 1.44.655 1.46.9.354 3.972 4.036 2.654 6.121 3.819.7.39 1.749.149 2.64.2.042-.2.084-.4.128-.594l-1.486-1.072 6.072-2.048c.571-1.539-.2-3.672 1.862-4.366.784-.264 1.794.154 2.973.292.872-1.365 1.835-1.412 3.738-.081a3.7 3.7 0 0 0 2.407.042 6.238 6.238 0 0 0 1.634-.79c-.368-.3-.941-.771-1.608-1.314.765-.723 2.6-.786 1.636-1.811a40.989 40.989 0 0 0 2.367-4.122c.5-1.16 4.387-3.167 6.473-2.883a7.812 7.812 0 0 0 2.482-.461c.408.751.827 1.521 1.247 2.292l.461-.243q-.4 1.9-.8 3.81l.349.083c.3-1.125.643-2.239.865-3.377a10.029 10.029 0 0 0 -.075-1.6 7.455 7.455 0 0 1 .183-1.646 5.668 5.668 0 0 1 2.883.319c.733.467 1.04 1.6 1.866 3.006.438-1.412.723-2.337 1.142-3.685l3.122 1.241c-.643-.947-1.269-1.915-1.944-2.849-.551-.765-1.046-1.426.157-2.106.257-.146.232-.818.306-1.253.1-.566.157-1.138.236-1.707zm1.768 50.526c1.063-.859 4.354-.6 4.986.575.918 1.711 2.214 2.081 3.214 1.853-.693-.514-1.734-1.33-2.824-2.071a6.97 6.97 0 0 0 -1.8-.894 20.258 20.258 0 0 1 -2.2-.46c-1.213-.554-1.293.161-1.379 1l-6.117-2.234-.1.244c1.09.683 2.182 1.367 3.172 1.986l.151-.4zm-17.8-21.775c-.871.018-.251-2.394-1.876-1.148-1.379 2.572-.677 3.788 2.578 3.767-.249-.926-.478-1.771-.704-2.619zm76.141-112.582h.474a9.3 9.3 0 0 1 .057-3.029c.659-1.8-.288-2.23-1.685-2.515 1.206.592 1.8 1.311 1.209 2.8a7.932 7.932 0 0 0 -.055 2.744zm-25.951 117.266c1.773.864 3.226 3.475 5.739 1.339-2.419 1.697-3.821-.73-5.739-1.339zm37.185-40.943-.358-.318q-1.063.812-2.13 1.62c.135.052.268.1.4.154-.173.716-.343 1.429-.5 2.059 1.336-.133 1.433-1.09.9-2.2zm-87.632 30.016.443.138 1.288-3.971-.517-.141q-.608 1.987-1.214 3.974z" fill="#fafafa" fill-rule="evenodd" transform="translate(-14.335 -12.567)"/><path d="m72.695 129.508c.2-.55.4-1.1.6-1.654l.414.069c-.249-.618-.5-1.234-.771-1.915.535-1.1 1.116-2.3 1.7-3.5-.033-.371-2.062-1.187-1.126-3.119.363-.752 1.646-1.057 2.666-1.657-.005-.009-.114-.559-.282-.577a20.9 20.9 0 0 0 -5.25-.05c-.587-.385-1.173-.768-2.191-1.436 1.8-1.339 3.562-2.65 5.621-4.185-1.341-.918-1.886-1.293-2.235-1.533-.053-.69-.1-1.322-.149-1.954-.558.123-1.115.244-1.789.391l3.244-3.646c-.1-.151-.2-.3-.309-.455l-2.428 1.2-.243-.243c.932-1.337 1.863-2.677 2.776-3.986v-2.583l2.559.42c-.046-.488-.094-1.026-.142-1.563l.331.245c.669-.88 1.337-1.761 1.81-2.382l5.931 1.753c-1.638.833-3.174 1.241-4.136 2.215-.878.885-3.241 1.124-2.037 3.545 2.658-.888 5.287-.9 7.775 1.162-.493.453-1.012.86-1.444 1.345a2.262 2.262 0 0 0 -.631 1.143 3.107 3.107 0 0 1 -2.863 2.419c-.6-.052-1.206-.061-2.272-.112.669.733 1.008 1.106 1.585 1.736l-3.525.283c-.044.133-.093.265-.14.4a13.212 13.212 0 0 0 2.405.765 4.416 4.416 0 0 1 3.47 4.648 39.7 39.7 0 0 0 -.1 4.538c0 .236.067.632.207.688 2.572 1.02 2.036 3.226 2.031 5.319l-1.921.6c.669.4 1.029.584 1.364.81a2.153 2.153 0 0 1 .237 3.759c-.961.832-.961.832-.17 2.126.573-.216 1.251-.74 1.727-.6 1.184.357 2.612.749 3.307 1.631.725.919-.577 3.259-1.789 3.793-.672.3-1.444.381-2.1.706-.424.211-.716.684-1.273 1.25l-1.713-.1c.757 2.009 2 2.568 3.813 2.122a4.557 4.557 0 0 1 -4.731 2.064c-1.755-.386-3.481-.923-5.2-1.467-.58-.183-1.088-.593-1.623-.518l-4.209.344c.037-.147.075-.295.112-.442l-4.76-1.632c-.231.61-.287 1.176-.6 1.469-.357.335-1.256.716-1.379.582-1.9-2.065-3.925-1.034-6.064-.507 1.911-2.242 5.061-2.578 7.081-4.557 2.908 1.8 4.785 1.544 7.441-1.031-.48-.841-.972-1.7-1.468-2.559q1.427-2.785 2.856-5.577z" fill="#fafafa" fill-rule="evenodd" transform="translate(-4.899 4.87)"/><path d="m53.076 116.469c-1.645.058-2.978-.282-3.1-2.3 1.25-.584 2.516-1.193 2.121-3.031-.07-.319.425-.928.8-1.116.243-.121.813.21 1.12.471.518.442.913 1.024 1.417 1.486.926.852 1.727.886 2.447-.34.274-.462.869-.737 1.4-1.161l-1.6-1.11c3.877-2.207 3.877-2.207 7.357-1.431l-3.767 2.111.137.114a27.593 27.593 0 0 1 4.14-1.162 2.248 2.248 0 0 1 1.876 1c.319.74 1.576 1.714.1 2.62-.145.09-.342.373-.3.452 1.316 2.479-1.213 2.37-2.192 3.308a1.9 1.9 0 0 0 -.461.824c-.505 1.812-.982 3.632-1.468 5.451-.46 1.718-2.526 2.9-4.242 2.94a27 27 0 0 0 -6.053.848c-1.462.373-5.775-.25-6.537-1.558-.377-.645.2-1.9-1.416-1.773l2.783-1.1-2.3-.756c-.013-.136-.024-.273-.037-.409 2.136-.142 4.271-.286 6.721-.451l-2.678-1.288 3.965-1.965c-.077-.226-.156-.451-.233-.674z" fill="#fafafa" fill-rule="evenodd" transform="translate(-8.119 8.129)"/><path d="m122.031 202.889c-.671 1.474-1.356 2.742-1.814 4.088-.243.711.067 1.6-.149 2.33-.234.785-.634 1.826-1.252 2.1s-1.963.77-2.339-.578-1.349-1.488-2.465-1.923a37.481 37.481 0 0 1 -4.93-2.879c-.813-.47-1.69-.828-2.506-1.223a2.826 2.826 0 0 1 4.43-1.876c2.018 1.463 3.989 1.238 6.135.8 1.587-.328 3.198-.553 4.89-.839z" fill="#fafafa" fill-rule="evenodd" transform="translate(8.544 33.754)"/><path d="m93.119 192.867c-2.054-.479-1.619-2.261-1.9-3.515-.064-.283 1.344-.94 2.117-1.341a3.45 3.45 0 0 1 1.584-.475c.913.028 1.838-1.571 2.636-.21.751 1.275 1.425 2.551.479 4.314-.786 1.467-.739 3.383-1.029 5.1-.1.608-.1 1.237-.154 1.877-2.857-.644-2.857-.644-3.543.822-2.437-.42-2.556-2.982-.19-6.572z" fill="#fafafa" fill-rule="evenodd" transform="translate(4.397 29.541)"/><path d="m186.378 161.286c.142.11.556.439 1.021.808.33-.386.643-.752.622-.726 1.713 1.049 3.266 1.953 4.77 2.929 2.367 1.54 3.383-1.966 5.438-1.458.142.634.274 1.224.478 2.135a8.906 8.906 0 0 1 -2.306.254c-2.711-.4-2.805-.385-3.88 1.863-.831.481-2.128.782-2.4 1.481-.893 2.29-2.269 2.568-4.244 1.535.428-3.536.25-3.785-3.99-5.07 1.489-1.247 2.853-2.386 4.491-3.751z" fill="#fafafa" fill-rule="evenodd" transform="translate(28.875 22.659)"/><path d="m105.442 123.482c-.49-3.428-2.816-6.69-.916-10.522l1.748.961c.325-.37.671-.762.836-.951l2.057.925c-.132-.685-.21-1.1-.284-1.487l2.368-.716a7.421 7.421 0 0 0 .5 2.452c.375.632 2.078.34 1.312 1.948-.775.005-2.117-1.064-1.849 1.132.081.676-1.38 1.632-2.252 2.311-1.4 1.091-1.673 2.527-1.684 4.286l-1.9-.4z" fill="#fafafa" fill-rule="evenodd" transform="translate(7.792 9.269)"/><path d="m71.672 122.773q-1.429 2.793-2.854 5.574c.519 1.071.394 2.164-.738 2.541-.956.32-2.21.612-2.793-.983a4.24 4.24 0 0 0 -1.687-2.05c-.476-.283-1.356.11-1.958.188l-1.068-1.45c1.591-.351 3.087-.65 4.569-1.011 2.087-.507 1.288-2.616 2.377-3.992h-1.61c0-.132-.037-.337 0-.352 3.63-1.405 3.867-1.338 5.762 1.535z" fill="#fafafa" fill-rule="evenodd" transform="translate(-3.876 11.605)"/><path d="m96.447 187.03c-1.314-1.1-2.337-4.527-1.849-5.623.638-1.435 1.909-1.9 3.536-1.96 1.115 2.983-1.613 4.815-1.687 7.583z" fill="#fafafa" fill-rule="evenodd" transform="translate(5.276 27.562)"/><path d="m111.456 121.11c.08-.448.315-.914.2-1.261-.462-1.363.342-1.382 1.233-1.2a2.387 2.387 0 0 0 2.869-2.269l.565.038a22.84 22.84 0 0 1 -.376 2.614c-.616 2.353-1.7 3.895-4.491 2.078z" fill="#fafafa" fill-rule="evenodd" transform="translate(9.861 10.537)"/><path d="m189.625 42.989c1 .66 2.2 1.041 2.59 1.825.353.714-.174 1.864-.315 2.827-3-1.092-3.51-1.99-2.275-4.652z" fill="none" transform="translate(30.796 -9.279)"/><path d="m108.751 110.237c.869-.685 1.735-1.367 3.1-2.442.151 1.3.245 2.1.338 2.9l-3.153.272z" fill="#fafafa" fill-rule="evenodd" transform="translate(9.131 8.218)"/><path d="m110.278 121.2-1.829-1.617c.513-.254 1.276-.852 1.495-.693a5.966 5.966 0 0 1 1.2 1.711z" fill="#fafafa" fill-rule="evenodd" transform="translate(9.049 11.205)"/><path d="m143.517 105.408 2.892-.616c.084.154.169.307.253.46l-3.144 2z" fill="#fafafa" fill-rule="evenodd" transform="translate(18.517 7.407)"/><path d="m155.944 203.815c-1.336-1.079-2.887-2.33-4.394-3.551a4.787 4.787 0 0 1 4.394 3.551z" fill="none" transform="translate(20.686 33.183)"/></g><ellipse cx="96.329" cy="162.108" fill="#fafafa" rx="2.969" ry="2.969"/><path d="m-4301-22112.037h7.341l9.16 1.629s6.223 6.438 5.205 6.758-5.427 3.035-7.681 2.439-8.641-1.365-9.522-2.439-2.583-2.035-3.432-3.156-1.071-5.231-1.071-5.231z" fill="#fafafa" transform="translate(4408.061 22290.796)"/><path d="m-4301-22112.033h2.857l3.564 1.336s2.422 5.293 2.026 5.557-2.112 2.5-2.989 2-3.362-1.121-3.705-2-1.006-1.674-1.336-2.6a25.282 25.282 0 0 1 -.417-4.293z" fill="#fafafa" transform="translate(4446.423 22273.479)"/><path d="m-4301-22112.033h3.258l4.065 1.479s2.762 5.852 2.311 6.145-2.409 2.76-3.409 2.217-3.834-1.24-4.226-2.217-1.146-1.852-1.523-2.869a27.117 27.117 0 0 1 -.476-4.755z" fill="#fafafa" transform="translate(4479.763 22235.106)"/><path d="m-4301-22112.033h3.258l4.065 1.479s2.762 5.852 2.311 6.145-2.409 2.76-3.409 2.217-3.834-1.24-4.226-2.217-1.146-1.852-1.523-2.869a27.117 27.117 0 0 1 -.476-4.755z" fill="#fafafa" transform="translate(4395.729 22260.214)"/><circle cx="72.58" cy="130.365" fill="#696969" r="3.425"/><circle cx="130.77" cy="176.106" fill="#696969" r="3.425"/><text fill="#696969" font-family="CodecCold-Regular, Codec Cold" font-size="8" transform="translate(138 187.667)"><tspan x="0" y="0">Мюнхен</tspan></text><text fill="#284084" font-family="CodecCold-Regular, Codec Cold" font-size="12" transform="translate(64.191 197.667)"><tspan x="0" y="0">Париж</tspan></text><text fill="#696969" font-family="CodecCold-Regular, Codec Cold" font-size="8" transform="translate(81 131.94)"><tspan x="0" y="0">Лондон</tspan></text><text fill="#284084" font-family="CodecCold-Regular, Codec Cold" font-size="8" transform="translate(223 99.476)"><tspan x="0" y="0">Москва</tspan></text><text fill="#696969" font-family="CodecCold-Bold, Codec Cold" font-size="10" font-weight="700" transform="translate(138 178.997)"><tspan x="0" y="0">21 411</tspan></text><text fill="#284084" font-family="CodecCold-Bold, Codec Cold" font-size="20" font-weight="700" transform="translate(58 185.638)"><tspan x="0" y="0">11 592</tspan></text><text fill="#696969" font-family="CodecCold-Bold, Codec Cold" font-size="10" font-weight="700" transform="translate(81 123.269)"><tspan x="0" y="0">3454</tspan></text><text fill="#284084" font-family="CodecCold-Bold, Codec Cold" font-size="10" font-weight="700" transform="translate(230 90.476)"><tspan x="0" y="0">1913</tspan></text><path d="m1663.768 72.649a.6.6 0 0 0 .6-.6v-3.013a.6.6 0 0 0 -1.2 0v3.014a.6.6 0 0 0 .6.599zm11.972 8.574v-5.478a3.592 3.592 0 0 0 1.479-3.222 2.767 2.767 0 0 0 -1.219-2.108c-1.989-.914-2.2-2.266-2.222-2.587 0-.025 0-.049 0-.073a.6.6 0 0 0 -.6-.6.6.6 0 0 0 -.6.6v.073c-.021.321-.232 1.673-2.221 2.587a2.443 2.443 0 0 0 -1.037 1.346 3.232 3.232 0 0 0 -.181 1.458c-.014.059-.031.124-.055.2h-.958l-.806-5.8h.407a.6.6 0 1 0 0-1.2h-.973l-1.257-7.372a.606.606 0 0 0 .153-.084 2.978 2.978 0 0 0 1.376-2.758 2.281 2.281 0 0 0 -1.018-1.737c-1.455-.669-1.618-1.635-1.636-1.876 0-.018 0-.036 0-.053a.6.6 0 0 0 -.6-.6.6.6 0 0 0 -.6.6v.053c-.018.241-.181 1.207-1.636 1.876a2.281 2.281 0 0 0 -1.018 1.737 2.977 2.977 0 0 0 1.376 2.758.59.59 0 0 0 .153.084l-1.257 7.372h-.955a.6.6 0 0 0 0 1.2h.372l-.4 3.063a2.845 2.845 0 0 1 -1.677-2.185c0-.022 0-.045 0-.066a.6.6 0 0 0 -.6-.6.6.6 0 0 0 -.6.6v.066c-.02.3-.217 1.53-2.042 2.369a1.282 1.282 0 0 0 -.352.251c-2.1-1.007-2.317-2.464-2.34-2.81 0-.027 0-.054 0-.08a.6.6 0 0 0 -.6-.6.6.6 0 0 0 -.6.6v.08c-.023.351-.251 1.851-2.446 2.859a2.955 2.955 0 0 0 -1.292 2.25 3.716 3.716 0 0 0 1.224 3.122v4.69l-.368.368a.6.6 0 0 0 -.175.424v5.223a.6.6 0 0 0 .6.6h27.145a.6.6 0 0 0 .6-.6v-5.229a.6.6 0 0 0 -.176-.424zm-14.04-24.745a1.4 1.4 0 0 1 .361-.938 1.761 1.761 0 0 1 3.42 0 1.4 1.4 0 0 1 .362.938 1.849 1.849 0 0 1 -.769 1.4h-2.606a1.849 1.849 0 0 1 -.768-1.4zm1.556 2.6h1.032l1.25 7.333h-3.533zm-1.841 8.532h4.7l.809 5.826h-5.51a3.028 3.028 0 0 0 .019-.4 3.124 3.124 0 0 0 -.511-1.638zm-6.269 4.659c.011-.015.021-.03.03-.045a1.1 1.1 0 0 1 .227-.286 5.067 5.067 0 0 0 2.1-1.689l.022-.033.022.033a5.059 5.059 0 0 0 2.1 1.689 1.686 1.686 0 0 1 .491 1.191 2.608 2.608 0 0 1 -.927 1.771h-3.385a2.665 2.665 0 0 1 -.927-1.771 1.792 1.792 0 0 1 .25-.856zm-6.709 1.406a1.933 1.933 0 0 1 .622-1.433 5.828 5.828 0 0 0 2.427-1.944q.057-.084.109-.167c.034.055.07.111.109.167a5.642 5.642 0 0 0 2.094 1.78 2.943 2.943 0 0 0 -.177.962 2.861 2.861 0 0 0 .751 2.01 3.525 3.525 0 0 1 -.465.586c-.095.092-.3.312-.3.312h-3.987a3.014 3.014 0 0 1 -1.18-2.27zm6.189 7.439h-.694a.6.6 0 0 0 -.59.7l.861 4.816h-5.067v-4.368l.368-.368a.6.6 0 0 0 .175-.424v-4.27h4.047a.6.6 0 0 0 .364-.123 6.261 6.261 0 0 0 .535-.458zm4.435 5.521h-3.641l-.772-4.322h.577a.6.6 0 0 0 .6-.6v-5.526h2.832v5.529a.6.6 0 0 0 .6.6h.578zm7.367-2.865-.944 2.865h-5.205l.86-4.816a.6.6 0 0 0 -.59-.7h-.694v-5.165a5.214 5.214 0 0 0 .486-.446 4.044 4.044 0 0 0 .671-.871h7.218a4.49 4.49 0 0 1 -1.073.675 2.547 2.547 0 0 0 -1.117 1.88 3.222 3.222 0 0 0 1.168 2.868v3.126l-.5.261a.569.569 0 0 0 -.277.326zm.252 2.865.755-2.291.6-.313a.567.567 0 0 0 .305-.5l.006-3.727a.57.57 0 0 0 -.2-.437 2.3 2.3 0 0 1 -.988-1.888 1.749 1.749 0 0 1 .491-1.142 4.962 4.962 0 0 0 2.063-1.655l.04-.059.04.059a4.955 4.955 0 0 0 2.063 1.655 1.751 1.751 0 0 1 .491 1.142 2.3 2.3 0 0 1 -.988 1.888.57.57 0 0 0 -.2.437l.006 3.727a.569.569 0 0 0 .3.5l.6.313.755 2.291zm8.094-11.656a.6.6 0 0 0 -.235.476v6.013a.6.6 0 0 0 .176.424l.368.368v4.376h-1.072l-.944-2.865a.568.568 0 0 0 -.277-.326l-.5-.261v-3.126a3.221 3.221 0 0 0 1.168-2.868 2.545 2.545 0 0 0 -1.117-1.88 3.1 3.1 0 0 1 -2-2.2 1.963 1.963 0 0 1 .535-1.617 5.4 5.4 0 0 0 2.248-1.8l.061-.091.061.091a5.4 5.4 0 0 0 2.248 1.8 1.923 1.923 0 0 1 .549 1.3 2.658 2.658 0 0 1 -1.265 2.189zm-11.01 2.376a.6.6 0 0 0 -.6.6v4.9a.6.6 0 0 0 1.2 0v-4.9a.6.6 0 0 0 -.596-.597zm-12.19.6a.6.6 0 0 0 -.6.6v2.072a.6.6 0 1 0 1.2 0v-2.074a.6.6 0 0 0 -.596-.599zm12.2-26.543a.6.6 0 0 0 .6-.6v-.825a.6.6 0 1 0 -1.2 0v.825a.6.6 0 0 0 .607.599zm9.4 15.326a.6.6 0 0 0 .6-.6v-.825a.6.6 0 1 0 -1.2 0v.825a.6.6 0 0 0 .61.599zm-15.641.591a.6.6 0 0 0 .6-.6v-.829a.6.6 0 0 0 -1.2 0v.825a.6.6 0 0 0 .61.603zm-5.951-.228a.6.6 0 0 0 .6-.6v-.825a.6.6 0 0 0 -1.2 0v.824a.6.6 0 0 0 .61.6z" fill="#284084" transform="translate(-1423.239 -7.713)"/><path d="m-4198.813-22282.734s-10.5 48.949-143.93 53.6" fill="none" stroke="#284084" stroke-dasharray="1 8" stroke-linecap="square" stroke-width="2" transform="translate(4435.862 22387.59)"/><path d="m1186.7 91.822a31.028 31.028 0 0 1 -4.071-6.475.424.424 0 0 0 -.02-.847h-.334a23.854 23.854 0 0 1 -1.251-4.536h.072a.424.424 0 1 0 0-.848h-.215c-.308-1.949-.511-4.158-.725-6.838h.041a.424.424 0 0 0 .424-.424v-2.391a.424.424 0 0 0 -.424-.424h-.773v-1.812a.424.424 0 1 0 -.848 0v1.812h-.772a.424.424 0 0 0 -.424.424v2.393a.424.424 0 0 0 .424.424h.042c-.215 2.68-.417 4.888-.725 6.838h-.216a.424.424 0 1 0 0 .848h.072a23.872 23.872 0 0 1 -1.251 4.536h-.335a.424.424 0 0 0 -.019.847 31.06 31.06 0 0 1 -4.081 6.488.424.424 0 0 0 .334.685h3.1a.424.424 0 0 0 .424-.431v-.012c0-.019 0-.038 0-.057a3.849 3.849 0 1 1 7.7 0v.057.012a.423.423 0 0 0 .423.431h3.1a.424.424 0 0 0 .324-.7zm-6.927-21.935v1.538h-1.545v-1.539zm-1.076 2.386h.607c.223 2.773.437 4.967.725 6.844h-2.057c.29-1.877.503-4.072.728-6.845zm-1.651 11.035a27.325 27.325 0 0 0 .787-3.342h2.335a27.325 27.325 0 0 0 .787 3.342c.124.4.259.8.405 1.193h-4.719c.148-.394.282-.791.406-1.194zm-1.367 5.393a4.663 4.663 0 0 0 -1.363 2.972h-1.832a33.026 33.026 0 0 0 3.132-4.854l1.1 1.1a4.718 4.718 0 0 0 -1.035.781zm1.87-1.148-.013-.014-1.526-1.525q.154-.332.294-.664h5.392q.14.333.294.664l-1.526 1.525-.013.014a4.739 4.739 0 0 0 -2.9 0zm6.135 4.12a4.662 4.662 0 0 0 -1.363-2.972 4.721 4.721 0 0 0 -1.035-.784l1.1-1.1a33.053 33.053 0 0 0 3.132 4.854z" fill="#284084" transform="translate(-1093.202 74.982)"/><g fill="#fff" transform="translate(12 3.243)"><path d="m219.30923462 51.31040573-16.04200745-4.78970718-.07000732-.0208931h-.07304382-190.62447834v-45.99981749h203.00031757v37.54960692.07076263l.0196228.06797409z"/><path d="m218.57478333 50.56930161-3.57476807-12.37820817v-37.19110548h-202.00031757v44.99981749h190.27058124zm1.46891784 1.48221206-16.91952514-5.05170822h-191.12447834v-46.99981749h204.00031757v38.04960692z" fill="#284084"/></g><text fill="#284084" font-family="CodecCold-Regular, Codec Cold" font-size="12" transform="translate(220 23.243)"><tspan x="-179.121" y="0">К примеру, офисов в Москве,</tspan><tspan x="-187.863" y="13">в 5 раз меньше, чем в Париже</tspan></text><g fill="#fff" transform="translate(95.641 203.447)"><path d="m154.2190094 27.28570557h-141.71931171v-26.78570944h6.1607809.50154686l-.00154686-.50154547-.03716659-12.04018154 10.89876747 12.37223607.14930916.16949094h.22587204 123.82174873z"/><path d="m153.7190094 26.78570557v-25.78570944h-123.77351189l-10.31807899-11.71303267.03615188 11.71303267h-6.66387271v25.78570944zm1 1h-142.71931171v-27.78570945h6.6607809l-.04127121-13.37040036 11.77805329 13.37040036h124.32174873z" fill="#284084"/></g><text fill="#284084" font-family="CodecCold-Regular, Codec Cold" font-size="12" transform="translate(116.5 221.425)"><tspan x="0" y="0">Офисы: м</tspan><tspan baseline-shift="3.99959996207" font-size="7" y="0">2</tspan><tspan y="0">/1000 чел.</tspan></text></svg>