<svg xmlns="http://www.w3.org/2000/svg" width="297" height="42" viewBox="0 0 297 42">
    <g id="Курская_Normal" data-name="Курская / Normal" transform="translate(11181 -12672)">
        <g id="Сгруппировать_2270" data-name="Сгруппировать 2270" transform="translate(0 114)">
            <path id="Прямоугольник_1876" data-name="Прямоугольник 1876" d="M0,0H253a21,21,0,0,1,21,21v0a21,21,0,0,1-21,21H0a0,0,0,0,1,0,0V0A0,0,0,0,1,0,0Z" transform="translate(-11158 12558)" fill="#fff" opacity="0.8"/>
            <circle id="Эллипс_684" data-name="Эллипс 684" cx="21" cy="21" r="21" transform="translate(-11181 12558)" fill="#5d6a63"/>
        </g>
        <g id="Сгруппировать_2282" data-name="Сгруппировать 2282" transform="translate(-11123 12682)">
            <path id="Контур_11079" data-name="Контур 11079" d="M147.71,265.282l9.9-11.733h1.141l-6.06,7.151,6.516,9.166h-1.163l-5.964-8.434-4.366,5.1v3.336h-.924V253.549h.924Z" transform="translate(-39.121 -251.152)" fill="#1a1818"/>
            <path id="Контур_11080" data-name="Контур 11080" d="M177.945,259.372l-7.187,16.245h-1L171.6,271.5l-5.363-12.13h1.02l4.822,10.906.013.132,4.87-11.026Z" transform="translate(-44.305 -252.704)" fill="#1a1818"/>
            <path id="Контур_11081" data-name="Контур 11081" d="M194.234,271.587a6.273,6.273,0,0,1-5.627-3.3v7.14h-.912V259.181h.816l.085,2.987a6.414,6.414,0,1,1,5.638,9.419m-.06-11.854a5.5,5.5,0,1,0,5.578,5.507,5.5,5.5,0,0,0-5.578-5.507" transform="translate(-50.024 -252.573)" fill="#1a1818"/>
            <path id="Контур_11082" data-name="Контур 11082" d="M217.017,270.735a5.463,5.463,0,0,0,4.906-2.843h.96a6.3,6.3,0,0,1-5.88,3.7,6.354,6.354,0,1,1,5.891-9h-.972a5.557,5.557,0,1,0-4.906,8.146" transform="translate(-56.105 -252.573)" fill="#1a1818"/>
            <path id="Контур_11083" data-name="Контур 11083" d="M235,259.3h.911v8.614l7.476-8.626h1.127l-4.727,5.484,5.1,6.623h-1.163l-4.6-5.963-3.216,3.672V271.4H235Z" transform="translate(-62.632 -252.682)" fill="#1a1818"/>
            <path id="Контур_11084" data-name="Контур 11084" d="M258.548,258.88a6.329,6.329,0,0,1,5.627,3.312V259.18h.9v12.106h-.9v-2.975a6.417,6.417,0,1,1-5.627-9.431m.048,11.866a5.507,5.507,0,1,0-5.58-5.507,5.521,5.521,0,0,0,5.58,5.507" transform="translate(-67.187 -252.573)" fill="#1a1818"/>
            <path id="Контур_11085" data-name="Контур 11085" d="M284.747,266.928H280.6l-3.67,4.462h-1.081l3.755-4.571a3.713,3.713,0,0,1-3.084-3.719,3.849,3.849,0,0,1,4.127-3.828h5.027v12.118h-.923Zm0-.841v-6h-4.068a3.053,3.053,0,0,0-3.227,3.012,3.013,3.013,0,0,0,3.179,2.987Z" transform="translate(-73.517 -252.678)" fill="#1a1818"/>
            <rect id="Прямоугольник_1902" data-name="Прямоугольник 1902" width="1.124" height="21.27" transform="translate(91.151)" fill="#1a1818"/>
            <path id="Контур_11086" data-name="Контур 11086" d="M3.769,264.5a1.879,1.879,0,0,0,.823,1.6,3.919,3.919,0,0,0,2.326.6,6.585,6.585,0,0,0,1.4-.126,2.883,2.883,0,0,0,.93-.351,1.433,1.433,0,0,0,.525-.555,1.631,1.631,0,0,0,.167-.745,1.512,1.512,0,0,0-.274-.943,2.07,2.07,0,0,0-.788-.6,7.285,7.285,0,0,0-1.246-.429q-.734-.191-1.664-.454-.453-.119-1.031-.263a11.941,11.941,0,0,1-1.176-.357,8.682,8.682,0,0,1-1.163-.519,4.374,4.374,0,0,1-1.014-.745,3.379,3.379,0,0,1-.716-1.044A3.445,3.445,0,0,1,.6,258.15a5.8,5.8,0,0,1,.393-2.188A4.155,4.155,0,0,1,2.2,254.309a5.6,5.6,0,0,1,2.076-1.037,11.036,11.036,0,0,1,3-.358,8.106,8.106,0,0,1,2.535.363,5.282,5.282,0,0,1,1.861,1.032,4.357,4.357,0,0,1,1.151,1.617,5.473,5.473,0,0,1,.393,2.117H9.423a1.914,1.914,0,0,0-.131-.7,1.48,1.48,0,0,0-.429-.595,2.238,2.238,0,0,0-.769-.412,3.763,3.763,0,0,0-1.163-.155,5.025,5.025,0,0,0-1.258.131,2.155,2.155,0,0,0-.782.358,1.244,1.244,0,0,0-.4.513,1.593,1.593,0,0,0-.113.585,1.057,1.057,0,0,0,.268.722,2.249,2.249,0,0,0,.733.524,5.726,5.726,0,0,0,1.1.376q.632.155,1.372.286.846.2,1.616.429a11.077,11.077,0,0,1,1.425.525,6.983,6.983,0,0,1,1.188.681,3.9,3.9,0,0,1,1.485,2.087,5.248,5.248,0,0,1,.2,1.527,4.388,4.388,0,0,1-.519,2.165,4.619,4.619,0,0,1-1.443,1.575,6.76,6.76,0,0,1-2.195.961,11.285,11.285,0,0,1-2.762.321,9.134,9.134,0,0,1-3.161-.482,6.123,6.123,0,0,1-2.117-1.259,4.747,4.747,0,0,1-1.193-1.747A5.406,5.406,0,0,1,0,264.5Z" transform="translate(0 -250.983)" fill="#1a1818"/>
            <path id="Контур_11087" data-name="Контур 11087" d="M24.712,256.711H20.18v-3.244H33.014v3.244H28.481v12.978H24.712Z" transform="translate(-5.378 -251.13)" fill="#1a1818"/>
            <path id="Контур_11088" data-name="Контур 11088" d="M39.155,261.407a8.066,8.066,0,0,1,.316-2.265,8.412,8.412,0,0,1,2.278-3.753,8.885,8.885,0,0,1,3.907-2.177,9.446,9.446,0,0,1,4.712,0,8.991,8.991,0,0,1,3.924,2.177,8.378,8.378,0,0,1,1.39,1.717,8.471,8.471,0,0,1,.895,2.035,8.3,8.3,0,0,1,0,4.532,8.425,8.425,0,0,1-2.285,3.757,8.691,8.691,0,0,1-1.8,1.325,9.425,9.425,0,0,1-2.123.852,9.27,9.27,0,0,1-4.712,0,9.284,9.284,0,0,1-2.117-.852,8.645,8.645,0,0,1-3.173-3.048,8.37,8.37,0,0,1-.895-2.033,8.074,8.074,0,0,1-.316-2.267m3.769.012a5.354,5.354,0,0,0,.4,2.082,5.176,5.176,0,0,0,1.091,1.664,5.121,5.121,0,0,0,5.606,1.1,4.957,4.957,0,0,0,1.617-1.1,5.248,5.248,0,0,0,1.086-1.664,5.629,5.629,0,0,0,0-4.163,5.247,5.247,0,0,0-1.086-1.664,4.959,4.959,0,0,0-1.617-1.1,5.038,5.038,0,0,0-2-.4,5.026,5.026,0,0,0-3.6,1.5,5.176,5.176,0,0,0-1.091,1.664,5.357,5.357,0,0,0-.4,2.082" transform="translate(-10.435 -250.983)" fill="#1a1818"/>
            <path id="Контур_11089" data-name="Контур 11089" d="M81.184,269.69H77.916l-7.741-9.722v9.722H66.393V253.467h3.293l7.729,9.7v-9.7h3.769Z" transform="translate(-17.695 -251.13)" fill="#1a1818"/>
            <path id="Контур_11090" data-name="Контур 11090" d="M90.411,253.467h11.428v3.257H94.193v3.316h6.56v3.244h-6.56v3.161h7.753v3.244H90.411Z" transform="translate(-24.096 -251.13)" fill="#1a1818"/>
        </g>
    </g>
</svg>
