<svg height="41" viewBox="0 0 242 41" width="242" xmlns="http://www.w3.org/2000/svg"><path d="m0 0h242v41h-242z" fill="#fff" opacity="0"/><g fill="#2b2c2d"><circle cx="20" cy="20.345" r="12"/><g transform="translate(47.825 11.752)"><path d="m3.419 10.508a1.7 1.7 0 0 0 .747 1.451 3.555 3.555 0 0 0 2.11.542 6.01 6.01 0 0 0 1.266-.114 2.633 2.633 0 0 0 .844-.319 1.3 1.3 0 0 0 .476-.5 1.48 1.48 0 0 0 .151-.677 1.372 1.372 0 0 0 -.249-.856 1.869 1.869 0 0 0 -.714-.539 6.674 6.674 0 0 0 -1.13-.396q-.666-.173-1.51-.412-.41-.106-.936-.237a10.818 10.818 0 0 1 -1.066-.324 7.859 7.859 0 0 1 -1.055-.471 3.959 3.959 0 0 1 -.92-.675 3.064 3.064 0 0 1 -.649-.948 3.122 3.122 0 0 1 -.243-1.282 5.256 5.256 0 0 1 .359-1.986 3.768 3.768 0 0 1 1.1-1.499 5.069 5.069 0 0 1 1.879-.941 10.024 10.024 0 0 1 2.721-.325 7.346 7.346 0 0 1 2.3.33 4.782 4.782 0 0 1 1.689.936 3.951 3.951 0 0 1 1.044 1.466 4.965 4.965 0 0 1 .357 1.92h-3.441a1.75 1.75 0 0 0 -.119-.633 1.334 1.334 0 0 0 -.39-.54 2.018 2.018 0 0 0 -.7-.374 3.437 3.437 0 0 0 -1.055-.14 4.53 4.53 0 0 0 -1.141.119 1.939 1.939 0 0 0 -.709.324 1.141 1.141 0 0 0 -.363.465 1.453 1.453 0 0 0 -.1.53.957.957 0 0 0 .243.655 2.029 2.029 0 0 0 .665.476 5.143 5.143 0 0 0 1 .341q.573.142 1.244.26.769.184 1.466.389a9.93 9.93 0 0 1 1.289.476 6.306 6.306 0 0 1 1.077.617 3.532 3.532 0 0 1 1.344 1.895 4.787 4.787 0 0 1 .184 1.385 4 4 0 0 1 -.471 1.964 4.205 4.205 0 0 1 -1.31 1.428 6.126 6.126 0 0 1 -1.991.872 10.231 10.231 0 0 1 -2.505.292 8.282 8.282 0 0 1 -2.867-.438 5.567 5.567 0 0 1 -1.921-1.142 4.3 4.3 0 0 1 -1.078-1.586 4.907 4.907 0 0 1 -.341-1.779z"/><path d="m4.111 2.943h-4.111v-2.943h11.643v2.943h-4.112v11.774h-3.42z" transform="translate(13.428 .368)"/><path d="m0 7.7a7.325 7.325 0 0 1 .287-2.051 7.609 7.609 0 0 1 .813-1.849 7.691 7.691 0 0 1 1.253-1.555 8.069 8.069 0 0 1 3.547-1.974 8.571 8.571 0 0 1 4.275 0 8.165 8.165 0 0 1 3.56 1.974 7.583 7.583 0 0 1 2.073 3.4 7.527 7.527 0 0 1 0 4.112 7.618 7.618 0 0 1 -.812 1.844 7.709 7.709 0 0 1 -1.261 1.564 7.9 7.9 0 0 1 -1.634 1.2 8.547 8.547 0 0 1 -1.926.773 8.407 8.407 0 0 1 -4.275 0 8.426 8.426 0 0 1 -1.92-.773 7.836 7.836 0 0 1 -2.88-2.76 7.565 7.565 0 0 1 -.813-1.844 7.32 7.32 0 0 1 -.287-2.061zm3.42.012a4.858 4.858 0 0 0 .362 1.888 4.7 4.7 0 0 0 .99 1.509 4.647 4.647 0 0 0 5.086 1 4.5 4.5 0 0 0 1.467-1 4.771 4.771 0 0 0 .984-1.509 4.867 4.867 0 0 0 .362-1.888 4.869 4.869 0 0 0 -.362-1.889 4.781 4.781 0 0 0 -.985-1.51 4.638 4.638 0 0 0 -5.081-1 4.571 4.571 0 0 0 -1.472 1 4.713 4.713 0 0 0 -.99 1.51 4.86 4.86 0 0 0 -.361 1.894z" transform="translate(26.054)"/><path d="m13.419 14.717h-2.966l-7.022-8.817v8.819h-3.431v-14.719h2.987l7.013 8.8v-8.8h3.42z" transform="translate(44.179 .368)"/><path d="m0 0h10.367v2.954h-6.936v3.009h5.951v2.943h-5.951v2.868h7.033v2.943h-10.464z" transform="translate(60.16 .368)"/></g><path d="m0 0h1.019v19.3h-1.019z" transform="translate(130.517 10)"/><path d="m454.644 147.471 9.018-10.689h1.038l-5.52 6.518 5.934 8.35h-1.06l-5.431-7.683-3.979 4.645v3.038h-.844v-14.868h.841z" transform="translate(-307.901 -124.782)"/><path d="m483.919 142.6-6.547 14.8h-.907l1.672-3.749-4.885-11.05h.929l4.393 9.936.011.12 4.437-10.044z" transform="translate(-314.355 -126.714)"/><path d="m500.669 153.69a5.716 5.716 0 0 1 -5.126-3.006v6.5h-.83v-14.8h.743l.077 2.722a5.843 5.843 0 1 1 5.137 8.58zm-.055-10.8a5.011 5.011 0 1 0 5.082 5.017 5.013 5.013 0 0 0 -5.082-5.016z" transform="translate(-321.476 -126.552)"/><path d="m523.454 152.912a4.976 4.976 0 0 0 4.47-2.59h.875a5.739 5.739 0 0 1 -5.355 3.367 5.788 5.788 0 1 1 5.366-8.2h-.885a5.062 5.062 0 1 0 -4.47 7.421z" transform="translate(-329.048 -126.552)"/><path d="m542.018 142.534h.831v7.848l6.808-7.859h1.028l-4.306 5 4.644 6.033h-1.06l-4.186-5.432-2.929 3.345v2.087h-.831z" transform="translate(-337.174 -126.687)"/><path d="m564.99 142.115a5.766 5.766 0 0 1 5.126 3.016v-2.743h.82v11.028h-.82v-2.71a5.845 5.845 0 1 1 -5.126-8.591zm.045 10.809a5.017 5.017 0 1 0 -5.083-5.017 5.028 5.028 0 0 0 5.083 5.017z" transform="translate(-342.846 -126.552)"/><path d="m590.971 149.48h-3.781l-3.344 4.066h-.984l3.421-4.164a3.383 3.383 0 0 1 -2.809-3.388 3.507 3.507 0 0 1 3.76-3.487h4.58v11.039h-.842zm0-.765v-5.464h-3.705a2.781 2.781 0 0 0 -2.94 2.743 2.745 2.745 0 0 0 2.9 2.721z" transform="translate(-350.728 -126.682)"/></g></svg>