<svg height="49.435" viewBox="0 0 52.842 49.435" width="52.842" xmlns="http://www.w3.org/2000/svg"><g fill="none" stroke-linecap="square"><g stroke-linejoin="round" transform="translate(-838.741 -2932.37)"><path d="m856.049 2943.611h34.534v37.194h-34.534z"/><path d="m856.04852295 2943.61108398v37.1940918h34.53417969v-37.1940918zm0-1h34.53417969c.55230713 0 1 .44775391 1 1v37.1940918c0 .5522461-.44769287 1-1 1h-34.53417969c-.55230713 0-1-.4477539-1-1v-37.1940918c0-.55224609.44769287-1 1-1z" fill="#2b2c2d"/></g><path d="m873.836 2943.611v5.287" stroke="#2b2c2d" transform="translate(-840.327 -2932.37)"/><path d="m873.836 2943.611v13.2" stroke="#2b2c2d" transform="translate(-840.327 -2920.78)"/><path d="m873.836 2943.611v6.142" stroke="#2b2c2d" transform="translate(-840.327 -2901.582)"/><path d="m873.836 2943.611v11.935" stroke="#2b2c2d" transform="translate(-832.509 -2932.077)"/><path d="m873.836 2943.61v6.08" stroke="#2b2c2d" transform="translate(-832.509 -2914.478)"/><path d="m0 0v10.514" stroke="#2b2c2d" transform="matrix(0 1 -1 0 51.841 35.212)"/><path d="m0 0v15.732" stroke="#2b2c2d" transform="matrix(0 -1 1 0 17.777 26.96)"/></g><rect fill="#c68c38" height="35" opacity=".116" rx="1" transform="matrix(.2419219 .97029573 -.97029573 .2419219 33.96 0)" width="33"/></svg>