<svg height="41" viewBox="0 0 277 41" width="277" xmlns="http://www.w3.org/2000/svg" xmlns:xlink="http://www.w3.org/1999/xlink"><clipPath id="a"><path d="m0 0h229.609v19.443h-229.609z"/></clipPath><g transform="translate(17315 19738)"><path d="m-17315-19738h277v41h-277z" fill="#fff" opacity="0"/><g fill="#fff" stroke="#43121d" stroke-width="8"><circle cx="-17295" cy="-19717.654" r="12" stroke="none"/><circle cx="-17295" cy="-19717.654" fill="none" r="16"/></g><g clip-path="url(#a)" fill="#2b2c2d" transform="translate(-17267.609 -19728.098)"><path d="m3.446 17.144a1.717 1.717 0 0 0 .754 1.462 3.582 3.582 0 0 0 2.127.545 6.036 6.036 0 0 0 1.273-.115 2.646 2.646 0 0 0 .85-.321 1.309 1.309 0 0 0 .48-.507 1.487 1.487 0 0 0 .153-.682 1.383 1.383 0 0 0 -.251-.862 1.893 1.893 0 0 0 -.72-.544 6.693 6.693 0 0 0 -1.14-.393q-.671-.174-1.521-.415-.414-.109-.943-.24a10.913 10.913 0 0 1 -1.074-.326 7.93 7.93 0 0 1 -1.063-.475 3.982 3.982 0 0 1 -.927-.68 3.091 3.091 0 0 1 -.654-.955 3.147 3.147 0 0 1 -.246-1.293 5.3 5.3 0 0 1 .36-2 3.792 3.792 0 0 1 1.107-1.51 5.121 5.121 0 0 1 1.9-.949 10.108 10.108 0 0 1 2.743-.327 7.4 7.4 0 0 1 2.317.332 4.824 4.824 0 0 1 1.7.943 3.984 3.984 0 0 1 1.052 1.478 5 5 0 0 1 .359 1.935h-3.468a1.759 1.759 0 0 0 -.12-.638 1.355 1.355 0 0 0 -.393-.544 2.045 2.045 0 0 0 -.7-.377 3.446 3.446 0 0 0 -1.063-.142 4.587 4.587 0 0 0 -1.15.12 1.955 1.955 0 0 0 -.714.327 1.134 1.134 0 0 0 -.365.468 1.448 1.448 0 0 0 -.1.535.964.964 0 0 0 .246.661 2.059 2.059 0 0 0 .671.48 5.252 5.252 0 0 0 1 .344q.578.142 1.254.261.774.185 1.477.393a10.052 10.052 0 0 1 1.3.48 6.352 6.352 0 0 1 1.085.622 3.558 3.558 0 0 1 1.358 1.906 4.813 4.813 0 0 1 .186 1.4 4.02 4.02 0 0 1 -.474 1.979 4.229 4.229 0 0 1 -1.32 1.439 6.172 6.172 0 0 1 -2.006.878 10.308 10.308 0 0 1 -2.524.294 8.357 8.357 0 0 1 -2.889-.441 5.6 5.6 0 0 1 -1.936-1.151 4.333 4.333 0 0 1 -1.09-1.6 4.939 4.939 0 0 1 -.347-1.795z" transform="translate(0 -4.791)"/><path d="m54.391 10.9h-4.143v-2.967h11.732v2.967h-4.143v11.863h-3.446z" transform="translate(-36.717 -5.797)"/><path d="m97.5 14.32a7.362 7.362 0 0 1 .289-2.071 7.688 7.688 0 0 1 2.083-3.43 8.128 8.128 0 0 1 3.571-1.99 8.645 8.645 0 0 1 4.307 0 8.226 8.226 0 0 1 3.587 1.99 7.63 7.63 0 0 1 2.089 3.43 7.577 7.577 0 0 1 0 4.143 7.7 7.7 0 0 1 -2.089 3.435 7.961 7.961 0 0 1 -1.646 1.211 8.619 8.619 0 0 1 -1.941.779 8.467 8.467 0 0 1 -4.307 0 8.494 8.494 0 0 1 -1.936-.779 7.908 7.908 0 0 1 -2.9-2.787 7.646 7.646 0 0 1 -.818-1.859 7.364 7.364 0 0 1 -.289-2.072m3.446.012a4.9 4.9 0 0 0 .365 1.9 4.733 4.733 0 0 0 1 1.52 4.679 4.679 0 0 0 5.125 1.009 4.527 4.527 0 0 0 1.478-1.009 4.8 4.8 0 0 0 .992-1.52 5.145 5.145 0 0 0 0-3.806 4.811 4.811 0 0 0 -.992-1.521 4.543 4.543 0 0 0 -1.484-1.005 4.593 4.593 0 0 0 -1.831-.365 4.539 4.539 0 0 0 -1.81.365 4.6 4.6 0 0 0 -1.483 1.009 4.747 4.747 0 0 0 -1 1.521 4.9 4.9 0 0 0 -.365 1.9" transform="translate(-71.243 -4.791)"/><path d="m178.841 22.762h-2.988l-7.076-8.887v8.887h-3.457v-14.829h3.01l7.07 8.867v-8.867h3.446z" transform="translate(-120.803 -5.797)"/><path d="m225.123 7.933h10.446v2.977h-6.989v3.031h6v2.966h-6v2.893h7.087v2.966h-10.544z" transform="translate(-164.502 -5.797)"/><path d="m0 0h1.027v19.443h-1.027z" transform="translate(83.325)"/><path d="m372.168 8.93h-10.247v11.179c0 1.909-.921 3.2-2.9 3.2-.142 0-.373-.022-.494-.033l.121-.779c.033 0 .285.011.351.011 1.47 0 2.073-.976 2.073-2.425v-11.965h11.947v14.92h-.856z" transform="translate(-261.986 -5.932)"/><path d="m434.157 20.91a5.831 5.831 0 0 1 5.935 5.815v.219c0 .033-.011.055-.011.088h-11.025a5.045 5.045 0 0 0 5.112 4.75 4.985 4.985 0 0 0 4.443-2.545h.911a5.909 5.909 0 1 1 -5.365-8.327m-5.1 5.42h10.192a5.115 5.115 0 0 0 -10.192 0" transform="translate(-312.91 -15.279)"/><path d="m488.665 22.377h.845v5.211h8.1v-5.211h.845v11.08h-.845v-5.1h-8.1v5.1h-.845z" transform="translate(-357.078 -16.351)"/><path d="m544.588 22.377h.845v9.687l8.283-9.687h.7v11.08h-.845v-9.643l-8.239 9.643h-.746z" transform="translate(-397.941 -16.351)"/><path d="m600.673 22.377h.845v5.211h8.1v-5.211h.845v11.08h-.845v-5.1h-8.1v5.1h-.845z" transform="translate(-438.924 -16.351)"/><path d="m659.119 32.238a5 5 0 0 0 4.487-2.6h.878a5.762 5.762 0 0 1 -5.376 3.379 5.81 5.81 0 1 1 5.386-8.228h-.889a5.081 5.081 0 1 0 -4.487 7.449" transform="translate(-477.287 -15.637)"/><path d="m714.145 22.429h.834v7.877l6.835-7.888h1.031l-4.322 5.013 4.662 6.056h-1.064l-4.2-5.452-2.94 3.357v2.1h-.834z" transform="translate(-521.84 -16.381)"/><path d="m760.088 22.377h.845v9.687l8.283-9.687h.7v11.08h-.845v-9.643l-8.239 9.643h-.746z" transform="translate(-555.411 -16.351)"/><path d="m816.173 10.141h.845v9.687l8.283-9.687h.7v11.08h-.845v-9.643l-8.239 9.643h-.746zm7.855-4.421c-.252 1.393-1.251 2.183-3 2.183-1.722 0-2.732-.79-2.984-2.183l.68-.088c.264.955.8 1.58 2.3 1.58a2.044 2.044 0 0 0 2.326-1.58z" transform="translate(-596.394 -4.115)"/></g></g></svg>