<svg xmlns="http://www.w3.org/2000/svg" width="331" height="42" viewBox="0 0 331 42">
    <g id="Ленинский_Normal" data-name="Ленинский / Normal" transform="translate(11181 -12729)">
        <g id="Сгруппировать_2271" data-name="Сгруппировать 2271" transform="translate(0 171)">
            <path id="Прямоугольник_1876" data-name="Прямоугольник 1876" d="M0,0H287a21,21,0,0,1,21,21v0a21,21,0,0,1-21,21H0a0,0,0,0,1,0,0V0A0,0,0,0,1,0,0Z" transform="translate(-11158 12558)" fill="#fff" opacity="0.8"/>
            <circle id="Эллипс_684" data-name="Эллипс 684" cx="21" cy="21" r="21" transform="translate(-11181 12558)" fill="#43111d"/>
        </g>
        <g id="Сгруппировать_2278" data-name="Сгруппировать 2278" transform="translate(-11123 12739)">
            <path id="Контур_10951" data-name="Контур 10951" d="M158.987,344.743H147.76v12.248c0,2.092-1.009,3.51-3.173,3.51-.156,0-.409-.024-.541-.036l.132-.854c.036,0,.312.012.384.012,1.611,0,2.272-1.07,2.272-2.657V343.853h13.09V360.2h-.937Z" transform="translate(-38.432 -341.452)" fill="#040504"/>
            <path id="Контур_10952" data-name="Контур 10952" d="M177.28,349a6.389,6.389,0,0,1,6.5,6.371v.241c0,.036-.012.06-.012.1h-12.08a5.528,5.528,0,0,0,5.6,5.2,5.462,5.462,0,0,0,4.868-2.789h1A6.474,6.474,0,1,1,177.28,349m-5.589,5.938h11.167a5.6,5.6,0,0,0-11.167,0" transform="translate(-45.556 -342.823)" fill="#040504"/>
            <path id="Контур_10953" data-name="Контур 10953" d="M193.787,349.588h.926V355.3h8.87v-5.709h.926v12.141h-.926V356.14h-8.87v5.589h-.926Z" transform="translate(-51.689 -342.98)" fill="#040504"/>
            <path id="Контур_10954" data-name="Контур 10954" d="M214.979,349.588h.926V360.2l9.075-10.614h.769v12.141h-.926V351.163L215.8,361.729h-.818Z" transform="translate(-57.337 -342.98)" fill="#040504"/>
            <path id="Контур_10955" data-name="Контур 10955" d="M236.236,349.588h.926V355.3h8.87v-5.709h.926v12.141h-.926V356.14h-8.87v5.589h-.926Z" transform="translate(-63.002 -342.98)" fill="#040504"/>
            <path id="Контур_10956" data-name="Контур 10956" d="M262.567,361.071a5.474,5.474,0,0,0,4.917-2.849h.962a6.314,6.314,0,0,1-5.89,3.7,6.366,6.366,0,1,1,5.9-9.015h-.973a5.568,5.568,0,1,0-4.917,8.161" transform="translate(-68.283 -342.875)" fill="#040504"/>
            <path id="Контур_10957" data-name="Контур 10957" d="M279.275,349.617h.914v8.631l7.489-8.643h1.13l-4.736,5.494,5.109,6.635h-1.166l-4.6-5.974-3.221,3.678v2.3h-.914Z" transform="translate(-74.472 -342.985)" fill="#040504"/>
            <path id="Контур_10958" data-name="Контур 10958" d="M296.451,349.588h.926V360.2l9.075-10.614h.769v12.141H306.3V351.163l-9.027,10.566h-.818Z" transform="translate(-79.05 -342.98)" fill="#040504"/>
            <path id="Контур_10959" data-name="Контур 10959" d="M317.708,347.793h.926v10.614l9.075-10.614h.769v12.141h-.926V349.368l-9.026,10.565h-.818Zm8.607-4.844c-.277,1.527-1.371,2.393-3.282,2.393-1.887,0-2.993-.866-3.27-2.393l.746-.1c.289,1.046.877,1.731,2.524,1.731a2.24,2.24,0,0,0,2.549-1.731Z" transform="translate(-84.716 -341.185)" fill="#040504"/>
            <rect id="Прямоугольник_1896" data-name="Прямоугольник 1896" width="1.124" height="21.27" transform="translate(91.151)" fill="#040504"/>
            <path id="Контур_10960" data-name="Контур 10960" d="M3.825,354.794a1.879,1.879,0,0,0,.823,1.6,3.919,3.919,0,0,0,2.326.6,6.585,6.585,0,0,0,1.4-.126,2.883,2.883,0,0,0,.93-.351,1.435,1.435,0,0,0,.525-.554,1.637,1.637,0,0,0,.167-.746,1.512,1.512,0,0,0-.274-.943,2.071,2.071,0,0,0-.788-.6,7.283,7.283,0,0,0-1.246-.429q-.734-.191-1.664-.454-.453-.119-1.031-.263a11.934,11.934,0,0,1-1.176-.357,8.682,8.682,0,0,1-1.163-.519,4.376,4.376,0,0,1-1.014-.745,3.379,3.379,0,0,1-.716-1.044,3.443,3.443,0,0,1-.268-1.414,5.8,5.8,0,0,1,.393-2.188,4.154,4.154,0,0,1,1.211-1.653,5.6,5.6,0,0,1,2.076-1.037,11.036,11.036,0,0,1,3-.358,8.085,8.085,0,0,1,2.535.364,5.268,5.268,0,0,1,1.861,1.031,4.357,4.357,0,0,1,1.151,1.617,5.473,5.473,0,0,1,.393,2.117H9.479a1.914,1.914,0,0,0-.131-.7,1.48,1.48,0,0,0-.429-.595,2.238,2.238,0,0,0-.769-.412,3.762,3.762,0,0,0-1.163-.156,5.023,5.023,0,0,0-1.258.131,2.153,2.153,0,0,0-.782.358,1.244,1.244,0,0,0-.4.513,1.593,1.593,0,0,0-.113.585,1.057,1.057,0,0,0,.268.722,2.249,2.249,0,0,0,.733.524,5.726,5.726,0,0,0,1.1.376q.632.155,1.372.286.846.2,1.616.429a11.077,11.077,0,0,1,1.425.525,6.985,6.985,0,0,1,1.188.681,3.9,3.9,0,0,1,1.485,2.087,5.248,5.248,0,0,1,.2,1.527,4.4,4.4,0,0,1-.519,2.164,4.619,4.619,0,0,1-1.443,1.575,6.76,6.76,0,0,1-2.195.961,11.285,11.285,0,0,1-2.762.321,9.134,9.134,0,0,1-3.161-.482A6.124,6.124,0,0,1,1.625,358.5a4.739,4.739,0,0,1-1.193-1.747,5.406,5.406,0,0,1-.376-1.962Z" transform="translate(-0.056 -341.281)" fill="#040504"/>
            <path id="Контур_10961" data-name="Контур 10961" d="M24.768,347.009H20.236v-3.244H33.07v3.244H28.538v12.978H24.768Z" transform="translate(-5.434 -341.428)" fill="#040504"/>
            <path id="Контур_10962" data-name="Контур 10962" d="M39.211,351.7a8.066,8.066,0,0,1,.316-2.265,8.413,8.413,0,0,1,2.278-3.752,8.885,8.885,0,0,1,3.907-2.177,9.447,9.447,0,0,1,4.712,0,8.991,8.991,0,0,1,3.924,2.177,8.376,8.376,0,0,1,1.39,1.717,8.471,8.471,0,0,1,.895,2.035,8.3,8.3,0,0,1,0,4.532,8.425,8.425,0,0,1-2.285,3.757,8.691,8.691,0,0,1-1.8,1.325,9.426,9.426,0,0,1-2.123.852,9.269,9.269,0,0,1-4.712,0,9.285,9.285,0,0,1-2.117-.852,8.645,8.645,0,0,1-3.173-3.048,8.37,8.37,0,0,1-.895-2.033,8.074,8.074,0,0,1-.316-2.267m3.769.013a5.353,5.353,0,0,0,.4,2.081,5.176,5.176,0,0,0,1.091,1.664,5.121,5.121,0,0,0,5.606,1.1,4.957,4.957,0,0,0,1.617-1.1A5.247,5.247,0,0,0,52.78,353.8a5.629,5.629,0,0,0,0-4.163,5.255,5.255,0,0,0-1.086-1.664,4.97,4.97,0,0,0-1.617-1.1,5.039,5.039,0,0,0-2-.4,5.026,5.026,0,0,0-3.6,1.5,5.184,5.184,0,0,0-1.091,1.664,5.358,5.358,0,0,0-.4,2.082" transform="translate(-10.491 -341.281)" fill="#040504"/>
            <path id="Контур_10963" data-name="Контур 10963" d="M81.241,359.988H77.972l-7.741-9.722v9.722H66.449V343.765h3.293l7.729,9.7v-9.7h3.769Z" transform="translate(-17.751 -341.428)" fill="#040504"/>
            <path id="Контур_10964" data-name="Контур 10964" d="M90.467,343.765h11.428v3.257H94.249v3.316h6.56v3.244h-6.56v3.161H102v3.244H90.467Z" transform="translate(-24.152 -341.428)" fill="#040504"/>
        </g>
    </g>
</svg>
