<svg height="55.896" viewBox="0 0 38.374 55.896" width="38.374" xmlns="http://www.w3.org/2000/svg"><rect fill="#1f336c" height="40" opacity=".118" rx="10" width="32"/><g fill="none" stroke="#2b2c2d" transform="translate(-716 -2294)"><g><rect height="34" rx="6" stroke="none" width="28" x="725" y="2307"/><rect fill="none" height="33" rx="5.5" width="27" x="725.5" y="2307.5"/></g><g><path d="m725 2315h28v13h-28z" stroke="none"/><path d="m725.5 2315.5h27v12h-27z" fill="none"/></g><g><circle cx="732" cy="2335" r="3" stroke="none"/><circle cx="732" cy="2335" fill="none" r="2.5"/></g><g><circle cx="736" cy="2304" r="2" stroke="none"/><circle cx="736" cy="2304" fill="none" r="1.5"/></g><g><circle cx="742" cy="2304" r="2" stroke="none"/><circle cx="742" cy="2304" fill="none" r="1.5"/></g><g><circle cx="746" cy="2335" r="3" stroke="none"/><circle cx="746" cy="2335" fill="none" r="2.5"/></g><path d="m4926.966 1844.947 3.039-6.341 1.013-2.114" stroke-linecap="round" transform="translate(-4198.247 504.048)"/><path d="m-.433 7.773 3.644-6.005 1.215-2" stroke-linecap="round" transform="matrix(.53 -.848 .848 .53 744.49 2344.463)"/><path d="m4930.034 1838.187h16.739" transform="translate(-4198.689 505)"/><path d="m4930.034 1838.187h18.989" transform="translate(-4199.771 508)"/></g></svg>