<svg height="51.2" viewBox="0 0 122.266 51.2" width="122.266" xmlns="http://www.w3.org/2000/svg"><g fill="#2b2c2d"><path d="m189.92 495.06a2.94 2.94 0 0 0 1.289 2.5 6.137 6.137 0 0 0 3.642.935 10.368 10.368 0 0 0 2.185-.2 4.548 4.548 0 0 0 1.458-.55 2.251 2.251 0 0 0 .822-.868 2.556 2.556 0 0 0 .261-1.168 2.368 2.368 0 0 0 -.43-1.477 3.227 3.227 0 0 0 -1.233-.932 11.543 11.543 0 0 0 -1.952-.673q-1.149-.3-2.606-.711-.71-.186-1.616-.411a18.747 18.747 0 0 1 -1.84-.559 13.608 13.608 0 0 1 -1.821-.813 6.847 6.847 0 0 1 -1.589-1.166 5.293 5.293 0 0 1 -1.12-1.637 5.39 5.39 0 0 1 -.42-2.214 9.081 9.081 0 0 1 .616-3.428 6.5 6.5 0 0 1 1.9-2.587 8.75 8.75 0 0 1 3.25-1.625 17.291 17.291 0 0 1 4.7-.561 12.681 12.681 0 0 1 3.969.57 8.247 8.247 0 0 1 2.915 1.616 6.82 6.82 0 0 1 1.8 2.531 8.57 8.57 0 0 1 .616 3.315h-5.94a3.015 3.015 0 0 0 -.206-1.092 2.305 2.305 0 0 0 -.673-.933 3.488 3.488 0 0 0 -1.2-.646 5.929 5.929 0 0 0 -1.822-.242 7.818 7.818 0 0 0 -1.97.206 3.345 3.345 0 0 0 -1.224.559 1.963 1.963 0 0 0 -.626.8 2.5 2.5 0 0 0 -.177.916 1.653 1.653 0 0 0 .42 1.131 3.51 3.51 0 0 0 1.149.821 8.917 8.917 0 0 0 1.718.589q.989.245 2.148.448 1.327.317 2.531.672a17.2 17.2 0 0 1 2.233.824 10.859 10.859 0 0 1 1.86 1.065 6.1 6.1 0 0 1 2.325 3.268 8.259 8.259 0 0 1 .318 2.392 6.892 6.892 0 0 1 -.813 3.391 7.251 7.251 0 0 1 -2.261 2.465 10.563 10.563 0 0 1 -3.437 1.5 17.67 17.67 0 0 1 -4.325.5 14.3 14.3 0 0 1 -4.95-.756 9.606 9.606 0 0 1 -3.316-1.972 7.418 7.418 0 0 1 -1.868-2.736 8.466 8.466 0 0 1 -.588-3.073z" transform="translate(-184.017 -476.921)"/><path d="m211.295 482.555h-7.1v-5.081h20.1v5.081h-7.1v20.325h-5.9z" transform="translate(-181.017 -476.839)"/><path d="m223.172 490.222a12.647 12.647 0 0 1 .5-3.548 13.126 13.126 0 0 1 1.4-3.186 13.268 13.268 0 0 1 2.166-2.69 13.926 13.926 0 0 1 6.118-3.408 14.792 14.792 0 0 1 7.379 0 14.092 14.092 0 0 1 6.145 3.408 13.089 13.089 0 0 1 3.578 5.877 13 13 0 0 1 0 7.1 13.158 13.158 0 0 1 -1.4 3.184 13.308 13.308 0 0 1 -2.177 2.7 13.653 13.653 0 0 1 -2.821 2.075 14.765 14.765 0 0 1 -3.324 1.335 14.514 14.514 0 0 1 -7.379 0 14.544 14.544 0 0 1 -3.315-1.335 13.529 13.529 0 0 1 -4.969-4.775 13.071 13.071 0 0 1 -1.4-3.184 12.636 12.636 0 0 1 -.501-3.553zm5.9.021a8.388 8.388 0 0 0 .626 3.259 8.118 8.118 0 0 0 1.709 2.605 8.02 8.02 0 0 0 8.779 1.729 7.762 7.762 0 0 0 2.532-1.729 8.23 8.23 0 0 0 1.7-2.605 8.816 8.816 0 0 0 0-6.52 8.248 8.248 0 0 0 -1.7-2.606 8.005 8.005 0 0 0 -8.77-1.729 7.888 7.888 0 0 0 -2.541 1.729 8.136 8.136 0 0 0 -1.709 2.606 8.387 8.387 0 0 0 -.623 3.26z" transform="translate(-178.195 -476.921)"/><path d="m273.574 502.879h-5.12l-12.122-15.225v15.225h-5.922v-25.405h5.156l12.1 15.188v-15.188h5.9z" transform="translate(-174.145 -476.839)"/><path d="m274.427 477.474h17.9v5.1h-11.977v5.193h10.274v5.081h-10.274v4.952h12.142v5.081h-18.065z" transform="translate(-170.575 -476.839)"/><path d="m184.435 522.388v-8.16h3.559a3.191 3.191 0 0 1 1.017.154 2.258 2.258 0 0 1 .787.441 1.982 1.982 0 0 1 .505.7 2.264 2.264 0 0 1 .18.921 1.691 1.691 0 0 1 -.08.523 1.973 1.973 0 0 1 -.222.469 1.841 1.841 0 0 1 -.33.38 1.544 1.544 0 0 1 -.405.256 2.386 2.386 0 0 1 .579.287 2.247 2.247 0 0 1 .477.438 2.1 2.1 0 0 1 .324.564 1.8 1.8 0 0 1 .121.654 2.358 2.358 0 0 1 -.223 1.06 2.16 2.16 0 0 1 -.588.737 2.512 2.512 0 0 1 -.836.434 3.229 3.229 0 0 1 -.964.145zm1.489-4.764h1.986a1.01 1.01 0 0 0 .393-.08 1.122 1.122 0 0 0 .337-.223 1.048 1.048 0 0 0 .233-.339 1.1 1.1 0 0 0 0-.859 1.086 1.086 0 0 0 -.57-.567.938.938 0 0 0 -.393-.085h-1.986zm2.267 3.515a1.179 1.179 0 0 0 .426-.08 1.273 1.273 0 0 0 .389-.234 1.2 1.2 0 0 0 .283-.372 1.107 1.107 0 0 0 .108-.5 1.143 1.143 0 0 0 -.1-.473 1.194 1.194 0 0 0 -.257-.376 1.143 1.143 0 0 0 -.381-.247 1.282 1.282 0 0 0 -.465-.085h-2.273v2.369z" transform="translate(-183.955 -471.374)"/><path d="m199.614 514.228-3.216 5.053v3.107h-1.498v-3.1l-3.216-5.059h1.746l2.208 3.691h.018l2.2-3.691z" transform="translate(-182.877 -471.374)"/><path d="m205.188 519.959a1.1 1.1 0 0 0 .131.527 1.347 1.347 0 0 0 .372.43 1.891 1.891 0 0 0 .576.288 2.491 2.491 0 0 0 .744.1 2.59 2.59 0 0 0 1.429-.304 1 1 0 0 0 .455-.88.957.957 0 0 0 -.155-.566 1.235 1.235 0 0 0 -.442-.369 3.184 3.184 0 0 0 -.68-.253c-.264-.068-.555-.137-.871-.21-.171-.035-.358-.075-.561-.117a5.51 5.51 0 0 1 -.612-.164 4.091 4.091 0 0 1 -.6-.248 2.014 2.014 0 0 1 -.508-.367 1.713 1.713 0 0 1 -.354-.517 1.689 1.689 0 0 1 -.134-.7 2.832 2.832 0 0 1 .179-1.025 1.981 1.981 0 0 1 .571-.8 2.753 2.753 0 0 1 1-.527 5.114 5.114 0 0 1 1.476-.188 3.875 3.875 0 0 1 1.227.178 2.619 2.619 0 0 1 .909.5 2.124 2.124 0 0 1 .567.777 2.541 2.541 0 0 1 .194 1.005h-1.5a1.105 1.105 0 0 0 -.1-.457 1.047 1.047 0 0 0 -.285-.365 1.351 1.351 0 0 0 -.477-.245 2.235 2.235 0 0 0 -.673-.092 2.671 2.671 0 0 0 -.782.1 1.413 1.413 0 0 0 -.493.248.836.836 0 0 0 -.254.352 1.161 1.161 0 0 0 -.072.4.71.71 0 0 0 .15.458 1.174 1.174 0 0 0 .414.318 2.937 2.937 0 0 0 .627.214c.241.055.507.1.795.143.388.085.76.181 1.117.293a3.457 3.457 0 0 1 .938.442 2.117 2.117 0 0 1 .648.709 2.177 2.177 0 0 1 .244 1.082 2.2 2.2 0 0 1 -.249 1.057 2.23 2.23 0 0 1 -.7.777 3.342 3.342 0 0 1 -1.081.479 5.4 5.4 0 0 1 -1.4.167 4.178 4.178 0 0 1 -1.467-.233 3.143 3.143 0 0 1 -1.026-.609 2.414 2.414 0 0 1 -.6-.847 2.471 2.471 0 0 1 -.194-.951z" transform="translate(-181.092 -471.399)"/><path d="m214.009 515.519h-2.424v-1.291h6.348v1.291h-2.433v6.869h-1.494z" transform="translate(-179.918 -471.374)"/><path d="m218.985 518.323a4.059 4.059 0 0 1 .16-1.141 4.261 4.261 0 0 1 .445-1.02 4.066 4.066 0 0 1 .689-.861 4.5 4.5 0 0 1 3.122-1.24 4.532 4.532 0 0 1 1.174.151 4.435 4.435 0 0 1 1.949 1.089 4.209 4.209 0 0 1 1.139 1.882 4.146 4.146 0 0 1 0 2.279 4.2 4.2 0 0 1 -1.139 1.88 4.449 4.449 0 0 1 -1.949 1.1 4.695 4.695 0 0 1 -2.349 0 4.428 4.428 0 0 1 -1.053-.43 4.489 4.489 0 0 1 -.894-.666 4.061 4.061 0 0 1 -.689-.86 4.264 4.264 0 0 1 -.445-1.02 4.067 4.067 0 0 1 -.16-1.143zm1.494 0a2.935 2.935 0 0 0 1.784 2.742 2.965 2.965 0 0 0 2.284 0 2.872 2.872 0 0 0 1.554-1.57 3 3 0 0 0 .227-1.172 3.031 3.031 0 0 0 -.227-1.176 2.9 2.9 0 0 0 -.624-.943 2.909 2.909 0 0 0 -2.077-.856 2.826 2.826 0 0 0 -1.137.229 2.878 2.878 0 0 0 -.926.627 2.932 2.932 0 0 0 -.627.943 2.992 2.992 0 0 0 -.231 1.18z" transform="translate(-178.818 -471.399)"/><path d="m236.629 522.388h-1.284l-4.44-5.573v5.573h-1.493v-8.16h1.288l4.445 5.573v-5.573h1.489z" transform="translate(-177.268 -471.374)"/><path d="m238.8 514.228h5.592v1.3h-4.1v2.184h3.54v1.283h-3.54v2.105h4.151v1.291h-5.643z" transform="translate(-175.872 -471.374)"/><path d="m249.531 514.228h1.494v3.48h4.116v-3.48h1.506v8.16h-1.506v-3.4h-4.116v3.4h-1.494z" transform="translate(-174.276 -471.374)"/><path d="m258.831 514.228h5.591v1.3h-4.1v2.184h3.54v1.283h-3.54v2.105h4.151v1.291h-5.645z" transform="translate(-172.894 -471.374)"/><path d="m266.486 514.228h3.168a5.353 5.353 0 0 1 1.722.268 3.872 3.872 0 0 1 1.368.786 3.641 3.641 0 0 1 .9 1.277 4.391 4.391 0 0 1 .327 1.744 4.715 4.715 0 0 1 -.283 1.666 3.512 3.512 0 0 1 -.83 1.289 3.788 3.788 0 0 1 -1.35.835 5.264 5.264 0 0 1 -1.833.3h-3.192zm3.144 6.869a3.636 3.636 0 0 0 1.215-.187 2.4 2.4 0 0 0 .894-.547 2.3 2.3 0 0 0 .549-.871 3.4 3.4 0 0 0 .186-1.166 3.567 3.567 0 0 0 -.175-1.146 2.32 2.32 0 0 0 -.527-.884 2.4 2.4 0 0 0 -.888-.573 3.521 3.521 0 0 0 -1.254-.2h-1.644v5.577z" transform="translate(-171.755 -471.374)"/><path d="m279.74 518.117h4.16a4.826 4.826 0 0 1 -.258 1.811 4.044 4.044 0 0 1 -.84 1.413 3.753 3.753 0 0 1 -1.314.918 4.221 4.221 0 0 1 -1.681.327 4.558 4.558 0 0 1 -1.175-.149 4.4 4.4 0 0 1 -1.052-.43 4.458 4.458 0 0 1 -.894-.666 4.032 4.032 0 0 1 -.69-.86 4.267 4.267 0 0 1 -.444-1.02 4.174 4.174 0 0 1 0-2.279 4.264 4.264 0 0 1 .444-1.02 4.036 4.036 0 0 1 .69-.861 4.448 4.448 0 0 1 1.946-1.089 4.692 4.692 0 0 1 2.91.18 4.384 4.384 0 0 1 1.459.979l-.984.988a3.233 3.233 0 0 0 -.419-.4 2.676 2.676 0 0 0 -.515-.32 2.7 2.7 0 0 0 -.6-.21 2.869 2.869 0 0 0 -.676-.075 2.817 2.817 0 0 0 -1.136.229 2.883 2.883 0 0 0 -.927.627 2.952 2.952 0 0 0 -.627.943 2.991 2.991 0 0 0 -.231 1.176 2.956 2.956 0 0 0 .231 1.172 2.994 2.994 0 0 0 .627.944 2.935 2.935 0 0 0 .927.626 2.854 2.854 0 0 0 1.136.229 3.227 3.227 0 0 0 1.029-.152 2.28 2.28 0 0 0 .778-.422 2.111 2.111 0 0 0 .522-.657 2.767 2.767 0 0 0 .27-.851h-2.675z" transform="translate(-170.43 -471.399)"/><path d="m285.543 514.228h5.591v1.3h-4.1v2.184h3.539v1.283h-3.539v2.105h4.15v1.291h-5.645z" transform="translate(-168.922 -471.374)"/></g></svg>