<svg width="135" height="23" viewBox="0 0 135 23" fill="none" xmlns="http://www.w3.org/2000/svg">
<path d="M8.43498 9.33301H6.68799L9.05798 13.327H11.158L11.907 12.245L10.18 9.33401L8.43498 9.33301Z" fill="#161615"/>
<path d="M17.649 11.455L16.381 9.33398H10.952L13.344 13.328V19.628H12.096V21.918H19.543V19.63H17.649V11.455Z" fill="#161615"/>
<path d="M19.542 13.304H21.31V9.33301H17.171L19.542 13.304Z" fill="#161615"/>
<path d="M28.84 9.12196H28.133C27.987 9.12196 27.733 9.14393 27.733 9.14393L29.376 11.9309C29.854 12.2639 30.937 13.24 30.937 15.695C30.937 19.356 28.898 19.7309 28.898 19.7309L30.355 22.165C33.515 21.498 35.242 18.8999 35.242 15.6749C35.2926 14.8137 35.1627 13.9515 34.8606 13.1434C34.5585 12.3353 34.091 11.5993 33.4879 10.9824C32.8847 10.3656 32.1594 9.88153 31.3583 9.56132C30.5573 9.24111 29.6982 9.09178 28.836 9.12294" fill="#161615"/>
<path d="M26.073 15.718C26.073 12.118 28.008 11.8911 28.361 11.8911H28.548L26.967 9.24902C25.4519 9.48099 24.0783 10.2712 23.1161 11.4643C22.1539 12.6574 21.6727 14.1672 21.767 15.6971C21.716 16.5605 21.8444 17.4252 22.144 18.2367C22.4436 19.0481 22.9079 19.7888 23.5078 20.412C24.1077 21.0351 24.8301 21.5274 25.6296 21.8576C26.429 22.1879 27.2882 22.3491 28.153 22.331H28.861L29.651 22.291L28.133 19.752C27.862 19.689 26.073 19.086 26.073 15.717" fill="#161615"/>
<path d="M4.69202 12.536C4.69202 11.683 5.71002 11.642 6.33502 11.642H7.27101L5.81502 9.20898C5.69102 9.20898 5.00401 9.22897 4.90001 9.22897C2.38401 9.45797 0.637024 10.894 0.637024 13.078C0.637024 17.549 6.25201 16.655 6.25201 18.548C6.25201 19.587 5.06601 19.567 4.60901 19.548L6.16902 22.148C7.35502 22.148 10.745 21.941 10.745 18.009C10.745 13.809 4.69302 14.66 4.69302 12.539" fill="#161615"/>
<path d="M133.858 13.304V9.33301H129.302L131.694 13.304H133.858Z" fill="#161615"/>
<path d="M0.468994 17.9639V21.9369H5.252L2.90199 17.9639H0.468994Z" fill="#161615"/>
<path d="M40.778 17.5279L37.408 11.8489V19.6289H36.119V21.9379H41.919V19.6289H40.774L40.778 17.5279Z" fill="#161615"/>
<path d="M120.753 13.304V9.33301H116.198L118.59 13.304H120.753Z" fill="#161615"/>
<path d="M62.1149 13.304V9.33301H57.5599L59.952 13.304H62.1149Z" fill="#161615"/>
<path d="M94.816 13.304V9.33301H90.259L92.651 13.304H94.816Z" fill="#161615"/>
<path d="M131.986 17.9639L129.615 21.9369H134.169V17.9639H131.986Z" fill="#161615"/>
<path d="M102.887 9.33286C102.513 9.31286 101.409 9.33286 101.035 9.33286L102.345 11.5329C103.802 11.5329 104.925 12.6979 104.925 15.6719C104.925 18.4809 103.989 19.6859 102.47 19.7719L103.718 21.8529C107.418 21.4529 109.252 19.4599 109.252 15.6529C109.252 11.7209 107.005 9.64087 102.887 9.32887" fill="#161615"/>
<path d="M90.573 21.9378H95.128V17.9648H92.944L90.573 21.9378Z" fill="#161615"/>
<path d="M101.619 11.642L100.246 9.33301H96.019V11.642H97.308V19.629H96.019V21.938H102.987L101.619 19.629V11.642Z" fill="#161615"/>
<path d="M114.388 15.6809C114.388 12.8319 115.304 11.7289 116.822 11.6459L115.408 9.29492C111.914 9.79492 110.062 11.9579 110.062 15.6609C110.062 20.4609 113.077 22.0869 115.887 22.0869C116.718 22.0807 117.545 21.9547 118.34 21.7129L117.031 19.5289C115.408 19.5289 114.388 18.6139 114.388 15.6809Z" fill="#161615"/>
<path d="M116.739 17.7768H117.695V19.3368L119.255 21.9368H121.584V17.7758V15.5698H116.737L116.739 17.7768Z" fill="#161615"/>
<path d="M128.119 19.629V16.967H130.865V14.179H128.119V11.642H129.908L128.556 9.33301H122.519V11.642H123.808V19.629H122.519V21.938H128.842L130.193 19.629H128.119Z" fill="#161615"/>
<path d="M89.075 19.629V16.967H91.924V14.179H89.075V11.642H90.864L89.5109 9.33301H82.335L83.7079 11.642H84.7689V19.629H83.7289L82.356 21.938H89.8029L91.1959 19.629H89.075Z" fill="#161615"/>
<path d="M44.2321 11.642H45.501V13.972L48.8491 19.567V11.643H50.118V9.33398H44.2321V11.642Z" fill="#161615"/>
<path d="M56.378 19.629V16.967H59.227V14.179H56.378V11.642H58.167L56.814 9.33301H50.782V11.642H52.071V19.629H50.782V21.938H57.082L58.477 19.629H56.378Z" fill="#161615"/>
<path d="M37.408 9.33301H36.119V11.642H38.052L44.189 21.942H48.849V20.918L41.984 9.33301H37.408Z" fill="#161615"/>
<path d="M81.462 19.629V11.642H82.919L81.546 9.33301H75.91V11.642H77.2V14.179H73.913V11.642H75.2241V9.33301H68.359V11.642H69.649V19.629H68.359V21.938H75.2241V19.629H73.913V16.967H77.2V19.629H75.91V21.938H81.567L82.9611 19.629H81.462Z" fill="#161615"/>
<path d="M57.876 21.9378H62.431V17.9648H60.2469L57.876 21.9378Z" fill="#161615"/>
<path d="M0.711975 5.36487C1.31998 5.32687 1.66198 5.06487 1.87498 3.35187L2.18599 0.806885H5.28598V5.31088H5.74998V6.81088H5.11899V5.87589H1.34398V6.81088H0.712982L0.711975 5.36487ZM1.72298 5.31189H4.65598V1.3689H2.74399L2.49298 3.39789C2.49693 3.75175 2.43094 4.10289 2.2988 4.43118C2.16666 4.75947 1.97097 5.05843 1.72298 5.31088V5.31189Z" fill="#161615"/>
<path d="M6.55603 5.8739V0.805908H9.87604V1.36792H7.18604V3.00092H9.82303V3.56293H7.18604V5.31091H9.87604V5.87292L6.55603 5.8739Z" fill="#161615"/>
<path d="M10.879 5.87389V0.805896H13.136C13.3166 0.78553 13.4995 0.803946 13.6725 0.859881C13.8454 0.915817 14.0045 1.00799 14.139 1.13027C14.2735 1.25255 14.3803 1.40213 14.4524 1.56899C14.5245 1.73585 14.5602 1.91615 14.557 2.09789C14.5666 2.36473 14.4832 2.62663 14.321 2.83876C14.1588 3.0509 13.928 3.20013 13.668 3.26091C13.9504 3.32427 14.2025 3.4825 14.3823 3.70925C14.5621 3.93599 14.6587 4.21755 14.656 4.50692C14.664 4.6972 14.6307 4.88694 14.5584 5.06316C14.4862 5.23938 14.3767 5.39788 14.2374 5.52782C14.0982 5.65776 13.9325 5.75606 13.7517 5.81597C13.5709 5.87587 13.3793 5.89597 13.19 5.8749L10.879 5.87389ZM13.903 2.18889C13.9065 2.07555 13.8858 1.96279 13.8424 1.85805C13.799 1.75331 13.7338 1.65898 13.6511 1.58135C13.5685 1.50371 13.4703 1.44453 13.363 1.40773C13.2558 1.37093 13.1419 1.35737 13.029 1.36791H11.509V3.0009H13.029C13.1416 3.01351 13.2555 3.00165 13.3631 2.96617C13.4706 2.9307 13.5693 2.87246 13.6523 2.79537C13.7352 2.71828 13.8006 2.62418 13.8439 2.51952C13.8872 2.41486 13.9073 2.30207 13.903 2.18889ZM14.003 4.43791C14.0054 4.31661 13.9821 4.19617 13.9347 4.08449C13.8872 3.97282 13.8167 3.87243 13.7278 3.7899C13.6389 3.70738 13.5335 3.64459 13.4186 3.60564C13.3037 3.56669 13.1818 3.55245 13.061 3.56389H11.511V5.3109H13.061C13.1824 5.32609 13.3056 5.31452 13.4221 5.277C13.5385 5.23948 13.6453 5.17691 13.735 5.09371C13.8247 5.01051 13.895 4.90869 13.9412 4.7954C13.9873 4.6821 14.0081 4.56009 14.002 4.43791H14.003Z" fill="#161615"/>
<path d="M15.659 5.8739V0.805908H18.979V1.36792H16.289V3.00092H18.926V3.56293H16.289V5.31091H18.979V5.87292L15.659 5.8739Z" fill="#161615"/>
<path d="M19.633 5.40289C20.241 5.40289 20.583 5.06887 20.796 3.35187L21.107 0.806885H24.207V5.87488H23.576V1.36987H21.669L21.418 3.3989C21.144 5.6249 20.537 5.96689 19.633 5.96689V5.40289Z" fill="#161615"/>
<path d="M25.189 3.34293C25.2094 2.84997 25.3742 2.37387 25.663 1.97382C25.9518 1.57376 26.3517 1.2674 26.8132 1.0928C27.2746 0.918207 27.7772 0.883081 28.2585 0.991791C28.7397 1.1005 29.1784 1.34826 29.52 1.70425C29.8616 2.06025 30.0911 2.50878 30.1798 2.99411C30.2686 3.47944 30.2128 3.98016 30.0193 4.43402C29.8258 4.88788 29.5032 5.27487 29.0915 5.54688C28.6799 5.81888 28.1974 5.9639 27.704 5.96393C27.3629 5.97064 27.024 5.90663 26.7087 5.77588C26.3935 5.64513 26.1088 5.45049 25.8725 5.20425C25.6362 4.95802 25.4535 4.6655 25.3359 4.34515C25.2183 4.02481 25.1683 3.68355 25.189 3.34293ZM29.565 3.34293C29.5287 2.9827 29.3885 2.64078 29.1617 2.35861C28.9348 2.07644 28.631 1.86614 28.287 1.75323C27.943 1.64033 27.5736 1.62965 27.2237 1.7225C26.8737 1.81536 26.5582 2.00777 26.3155 2.27637C26.0727 2.54497 25.9131 2.87823 25.8559 3.23575C25.7988 3.59327 25.8467 3.95968 25.9937 4.29056C26.1407 4.62143 26.3805 4.90255 26.6841 5.09982C26.9877 5.29709 27.342 5.40205 27.704 5.40195C27.9658 5.4018 28.2245 5.34688 28.4638 5.24075C28.703 5.13463 28.9173 4.97965 29.0931 4.78574C29.2688 4.59182 29.402 4.36325 29.4842 4.11478C29.5663 3.8663 29.5956 3.60338 29.57 3.34293H29.565Z" fill="#161615"/>
<path d="M34.801 5.8739V1.36893H31.838V5.8739H31.207V0.805908H35.428V5.8739H34.801Z" fill="#161615"/>
<path d="M36.617 5.8739V0.805908H39.937V1.36792H37.247V3.00092H39.883V3.56293H37.248V5.31091H39.938V5.87292L36.617 5.8739Z" fill="#161615"/>
<path d="M40.941 5.87392V0.805931H42.9771C43.1822 0.798505 43.3868 0.832513 43.5785 0.905907C43.7703 0.979301 43.9453 1.09059 44.093 1.23312C44.2408 1.37564 44.3584 1.5465 44.4387 1.73547C44.5189 1.92443 44.5603 2.12763 44.5603 2.33294C44.5603 2.53825 44.5189 2.74145 44.4387 2.93041C44.3584 3.11938 44.2408 3.29023 44.093 3.43276C43.9453 3.57529 43.7703 3.68658 43.5785 3.75997C43.3868 3.83337 43.1822 3.86737 42.9771 3.85995H41.571V5.87295L40.941 5.87392ZM43.912 2.33294C43.9156 2.20129 43.8915 2.07034 43.8414 1.94857C43.7912 1.8268 43.7161 1.7169 43.6208 1.62597C43.5255 1.53504 43.4122 1.46509 43.2883 1.42065C43.1643 1.3762 43.0324 1.35825 42.901 1.36794H41.571V3.29794H42.901C43.0321 3.30705 43.1636 3.28866 43.287 3.24395C43.4105 3.19924 43.5233 3.12919 43.6181 3.03832C43.713 2.94745 43.7878 2.83775 43.8377 2.71627C43.8876 2.59479 43.9116 2.46423 43.9081 2.33294H43.912Z" fill="#161615"/>
</svg>
