<svg xmlns="http://www.w3.org/2000/svg" xmlns:xlink="http://www.w3.org/1999/xlink" width="102" height="38" viewBox="0 0 102 38">
  <defs>
    <clipPath id="clip-path">
      <rect id="Прямоугольник_2" data-name="Прямоугольник 2" width="102" height="38"/>
    </clipPath>
  </defs>
  <g id="лого" clip-path="url(#clip-path)">
    <path id="Контур_1" data-name="Контур 1" d="M4.93,15.084A2.445,2.445,0,0,0,6,17.166a5.126,5.126,0,0,0,3.037.777,8.612,8.612,0,0,0,1.822-.164,3.78,3.78,0,0,0,1.215-.457,1.867,1.867,0,0,0,.686-.723,2.12,2.12,0,0,0,.217-.97,1.966,1.966,0,0,0-.358-1.229,2.689,2.689,0,0,0-1.028-.776,9.579,9.579,0,0,0-1.627-.559q-.958-.25-2.173-.591-.592-.157-1.346-.342a15.563,15.563,0,0,1-1.536-.465A11.551,11.551,0,0,1,3.4,10.992a5.721,5.721,0,0,1-1.325-.97,4.407,4.407,0,0,1-.928-1.36A4.484,4.484,0,0,1,.791,6.82,7.532,7.532,0,0,1,1.3,3.972,5.4,5.4,0,0,1,2.885,1.819,7.331,7.331,0,0,1,5.595.468,14.515,14.515,0,0,1,9.513,0a10.62,10.62,0,0,1,3.313.473,6.906,6.906,0,0,1,2.432,1.344,5.679,5.679,0,0,1,1.5,2.1,7.114,7.114,0,0,1,.513,2.756H12.308a2.51,2.51,0,0,0-.171-.909A1.934,1.934,0,0,0,11.575,5a2.917,2.917,0,0,0-1-.536,4.921,4.921,0,0,0-1.519-.2,6.609,6.609,0,0,0-1.643.17A2.815,2.815,0,0,0,6.387,4.9a1.614,1.614,0,0,0-.522.667,2.079,2.079,0,0,0-.147.761,1.369,1.369,0,0,0,.351.941,2.927,2.927,0,0,0,.958.683,7.512,7.512,0,0,0,1.433.49c.55.132,1.148.264,1.792.371q1.107.264,2.11.56a14.339,14.339,0,0,1,1.862.684,9.179,9.179,0,0,1,1.55.887,5.074,5.074,0,0,1,1.939,2.717,6.861,6.861,0,0,1,.265,1.989,5.71,5.71,0,0,1-.678,2.818,6.034,6.034,0,0,1-1.886,2.051,8.827,8.827,0,0,1-2.866,1.251,14.788,14.788,0,0,1-3.606.418,11.97,11.97,0,0,1-4.128-.628,8.032,8.032,0,0,1-2.766-1.64A6.179,6.179,0,0,1,.49,17.64,7.03,7.03,0,0,1,0,15.085Z" transform="translate(0 0)"/>
    <path id="Контур_2" data-name="Контур 2" d="M20.509,4.629H14.6V.4H31.354V4.629H25.436v16.9H20.513Z" transform="translate(4.746 0.128)"/>
    <path id="Контур_3" data-name="Контур 3" d="M28.307,11.064a10.487,10.487,0,0,1,.412-2.95,10.966,10.966,0,0,1,2.975-4.889A11.638,11.638,0,0,1,36.8.39a12.407,12.407,0,0,1,6.153,0,11.764,11.764,0,0,1,5.124,2.834,10.743,10.743,0,0,1,2.984,10.79A10.958,10.958,0,0,1,48.073,18.9a11.359,11.359,0,0,1-2.352,1.726,12.323,12.323,0,0,1-2.772,1.109,12.071,12.071,0,0,1-8.917-1.109,11.287,11.287,0,0,1-4.144-3.964,10.838,10.838,0,0,1-1.169-2.643,10.494,10.494,0,0,1-.412-2.958m4.923.016a6.939,6.939,0,0,0,.522,2.71,6.629,6.629,0,0,0,8.747,3.6,6.465,6.465,0,0,0,2.111-1.438,6.812,6.812,0,0,0,1.418-2.166,7.317,7.317,0,0,0,0-5.417,6.849,6.849,0,0,0-1.418-2.166A6.465,6.465,0,0,0,42.5,4.769a6.592,6.592,0,0,0-2.617-.521,6.485,6.485,0,0,0-2.585.521,6.573,6.573,0,0,0-2.12,1.438,6.761,6.761,0,0,0-1.426,2.166,6.949,6.949,0,0,0-.521,2.707" transform="translate(9.205 0)"/>
    <path id="Контур_4" data-name="Контур 4" d="M67.313,21.527h-4.27L52.935,8.869V21.527H48V.4h4.3L62.39,13.031V.4h4.923Z" transform="translate(15.607 0.129)"/>
    <path id="Контур_5" data-name="Контур 5" d="M65.356.4H80.28v4.24H70.295V8.961h8.567v4.228H70.295V17.3H80.419v4.228H65.356Z" transform="translate(21.252 0.129)"/>
    <path id="Контур_6" data-name="Контур 6" d="M.337,30.3V23.512H3.3a2.685,2.685,0,0,1,.849.132,1.86,1.86,0,0,1,.655.366,1.653,1.653,0,0,1,.423.58,1.878,1.878,0,0,1,.15.766,1.419,1.419,0,0,1-.068.435,1.7,1.7,0,0,1-.186.39,1.523,1.523,0,0,1-.274.316,1.29,1.29,0,0,1-.337.211A2.052,2.052,0,0,1,5,26.947a1.86,1.86,0,0,1,.4.365,1.721,1.721,0,0,1,.265.468,1.5,1.5,0,0,1,.1.544,1.966,1.966,0,0,1-.184.881,1.8,1.8,0,0,1-.492.612,2.076,2.076,0,0,1-.7.362,2.757,2.757,0,0,1-.8.12Zm1.24-3.964H3.234a.844.844,0,0,0,.327-.067.955.955,0,0,0,.281-.186.86.86,0,0,0,.195-.281.925.925,0,0,0,0-.713.929.929,0,0,0-.195-.284.963.963,0,0,0-.281-.189.8.8,0,0,0-.327-.07H1.577ZM3.47,29.256a1.02,1.02,0,0,0,.355-.067,1.066,1.066,0,0,0,.325-.194,1,1,0,0,0,.235-.31.921.921,0,0,0,.09-.416.951.951,0,0,0-.08-.4,1.014,1.014,0,0,0-.216-.312.946.946,0,0,0-.317-.2,1.081,1.081,0,0,0-.388-.071h-1.9v1.981Z" transform="translate(0.11 7.553)"/>
    <path id="Контур_7" data-name="Контур 7" d="M12.189,23.512l-2.682,4.2V30.3H8.261V27.717L5.579,23.512H7.037L8.877,26.58h.016l1.835-3.068Z" transform="translate(1.814 7.553)"/>
    <path id="Контур_8" data-name="Контур 8" d="M15.5,28.294a.9.9,0,0,0,.11.437,1.085,1.085,0,0,0,.31.357,1.558,1.558,0,0,0,.48.24,2.1,2.1,0,0,0,.62.086,2.166,2.166,0,0,0,1.193-.256.831.831,0,0,0,.379-.731.791.791,0,0,0-.133-.47,1.038,1.038,0,0,0-.368-.308,2.669,2.669,0,0,0-.569-.209q-.33-.085-.725-.174l-.468-.1a4.817,4.817,0,0,1-.51-.132,3.416,3.416,0,0,1-.5-.207,1.684,1.684,0,0,1-.423-.3,1.43,1.43,0,0,1-.3-.429,1.389,1.389,0,0,1-.113-.585,2.367,2.367,0,0,1,.15-.852,1.652,1.652,0,0,1,.474-.669,2.28,2.28,0,0,1,.835-.437,4.256,4.256,0,0,1,1.231-.157,3.272,3.272,0,0,1,1.023.147,2.2,2.2,0,0,1,.758.416,1.782,1.782,0,0,1,.472.646,2.1,2.1,0,0,1,.162.835h-1.25a.9.9,0,0,0-.081-.381.843.843,0,0,0-.237-.3,1.139,1.139,0,0,0-.4-.2,1.913,1.913,0,0,0-.561-.075,2.263,2.263,0,0,0-.652.081,1.193,1.193,0,0,0-.411.207.691.691,0,0,0-.212.291.993.993,0,0,0-.06.334.6.6,0,0,0,.125.382.983.983,0,0,0,.346.264,2.518,2.518,0,0,0,.523.177c.2.045.421.086.663.119.322.07.632.151.928.243a2.909,2.909,0,0,1,.783.369,1.761,1.761,0,0,1,.541.589,2.033,2.033,0,0,1,0,1.778,1.867,1.867,0,0,1-.582.646,2.785,2.785,0,0,1-.9.4A4.566,4.566,0,0,1,17,30.484a3.5,3.5,0,0,1-1.223-.2,2.591,2.591,0,0,1-.855-.506,2.011,2.011,0,0,1-.5-.7,2.064,2.064,0,0,1-.163-.793Z" transform="translate(4.636 7.516)"/>
    <path id="Контур_9" data-name="Контур 9" d="M21.983,24.585H19.962V23.512h5.293v1.073H23.23V30.3H21.984Z" transform="translate(6.491 7.553)"/>
    <path id="Контур_10" data-name="Контур 10" d="M25.311,26.934a3.375,3.375,0,0,1,.133-.949,3.665,3.665,0,0,1,.371-.848,3.359,3.359,0,0,1,.575-.715,3.712,3.712,0,0,1,.745-.552,3.828,3.828,0,0,1,3.71,0,3.712,3.712,0,0,1,.745.552,3.455,3.455,0,0,1,.578.715,3.564,3.564,0,0,1,.374.848,3.466,3.466,0,0,1,0,1.9,3.564,3.564,0,0,1-.374.848,3.455,3.455,0,0,1-.578.715,3.712,3.712,0,0,1-.745.552,3.606,3.606,0,0,1-.88.357,3.9,3.9,0,0,1-1.959,0A3.619,3.619,0,0,1,27.129,30a3.712,3.712,0,0,1-.745-.552,3.359,3.359,0,0,1-.575-.715,3.665,3.665,0,0,1-.371-.848,3.367,3.367,0,0,1-.127-.947m1.246,0a2.482,2.482,0,0,0,.716,1.759,2.438,2.438,0,0,0,.773.522,2.474,2.474,0,0,0,1.9,0,2.4,2.4,0,0,0,1.3-1.305,2.478,2.478,0,0,0,.191-.974,2.508,2.508,0,0,0-.191-.979,2.407,2.407,0,0,0-2.25-1.494,2.364,2.364,0,0,0-.949.19,2.438,2.438,0,0,0-.773.522,2.471,2.471,0,0,0-.716,1.765Z" transform="translate(8.23 7.514)"/>
    <path id="Контур_11" data-name="Контур 11" d="M38.865,30.3H37.794l-3.7-4.634V30.3H32.847V23.512h1.071l3.71,4.634V23.512h1.24Z" transform="translate(10.681 7.553)"/>
    <path id="Контур_12" data-name="Контур 12" d="M39.634,23.512H44.3v1.077H40.88v1.817h2.951v1.066H40.88v1.751h3.461V30.3H39.634Z" transform="translate(12.888 7.553)"/>
    <path id="Контур_13" data-name="Контур 13" d="M47.391,23.512h1.246v2.894h3.432V23.512h1.256V30.3H52.066V27.473H48.634V30.3H47.388Z" transform="translate(15.409 7.553)"/>
    <path id="Контур_14" data-name="Контур 14" d="M54.112,23.512h4.663v1.077H55.359v1.817H58.31v1.066H55.359v1.751H58.82V30.3H54.112Z" transform="translate(17.596 7.553)"/>
    <path id="Контур_15" data-name="Контур 15" d="M59.646,23.512h2.641a4.5,4.5,0,0,1,1.436.222,3.251,3.251,0,0,1,1.141.661,3.012,3.012,0,0,1,.754,1.057,3.642,3.642,0,0,1,.272,1.453,3.946,3.946,0,0,1-.235,1.385,2.9,2.9,0,0,1-.693,1.072,3.181,3.181,0,0,1-1.125.695,4.388,4.388,0,0,1-1.528.246H59.647Zm2.621,5.712a2.993,2.993,0,0,0,1.012-.156,2,2,0,0,0,.745-.455,1.907,1.907,0,0,0,.459-.723,2.808,2.808,0,0,0,.156-.97,2.944,2.944,0,0,0-.146-.953,1.944,1.944,0,0,0-.44-.736,2,2,0,0,0-.741-.477,2.932,2.932,0,0,0-1.046-.169H60.9v4.639Z" transform="translate(19.395 7.553)"/>
    <path id="Контур_16" data-name="Контур 16" d="M69.709,26.763h3.472a4.011,4.011,0,0,1-.215,1.506,3.38,3.38,0,0,1-.7,1.175,3.115,3.115,0,0,1-1.1.762,3.533,3.533,0,0,1-1.4.272,3.771,3.771,0,0,1-.979-.126A3.576,3.576,0,0,1,67.911,30a3.711,3.711,0,0,1-.745-.552,3.406,3.406,0,0,1-.576-.715,3.606,3.606,0,0,1-.37-.848,3.441,3.441,0,0,1,0-1.9,3.606,3.606,0,0,1,.37-.848,3.406,3.406,0,0,1,.576-.715,3.762,3.762,0,0,1,.745-.552,3.888,3.888,0,0,1,3.3-.2,3.652,3.652,0,0,1,1.217.813l-.822.822a2.612,2.612,0,0,0-.35-.334,2.381,2.381,0,0,0-.928-.439,2.5,2.5,0,0,0-1.512.132,2.438,2.438,0,0,0-.773.522,2.524,2.524,0,0,0,0,3.521,2.438,2.438,0,0,0,.773.522,2.41,2.41,0,0,0,.949.19,2.7,2.7,0,0,0,.859-.132,1.9,1.9,0,0,0,.648-.351,1.724,1.724,0,0,0,.435-.546,2.259,2.259,0,0,0,.227-.708H69.7Z" transform="translate(21.49 7.515)"/>
    <path id="Контур_17" data-name="Контур 17" d="M73.421,23.512h4.661v1.077H74.665v1.817h2.952v1.066H74.665v1.751h3.461V30.3H73.418Z" transform="translate(23.874 7.553)"/>
  </g>
</svg>
