<svg xmlns="http://www.w3.org/2000/svg" width="13.722" height="15.887" viewBox="0 0 13.722 15.887">
    <g id="icon_3" data-name="icon 3" transform="translate(0.8 0.375)">
        <rect id="Прямоугольник_1711" data-name="Прямоугольник 1711" width="12.122" height="12.122" rx="2.022" transform="translate(0 2.591)" fill="none" stroke="#2b2c2c" stroke-linecap="round" stroke-width="1.6"/>
        <path id="Контур_10635" data-name="Контур 10635" d="M4.626,5.452h0a1,1,0,0,1-1-1V1.373a1,1,0,1,1,1.994,0V4.455a1,1,0,0,1-1,1" transform="translate(-1.28 -0.375)" fill="#2b2c2c"/>
        <path id="Контур_10636" data-name="Контур 10636" d="M4.626,5.452h0a1,1,0,0,1-1-1V1.373a1,1,0,1,1,1.994,0V4.455A1,1,0,0,1,4.626,5.452Z" transform="translate(-1.28 -0.375)" fill="none" stroke="#fff" stroke-linecap="round" stroke-linejoin="round" stroke-width="0.75"/>
        <path id="Контур_10637" data-name="Контур 10637" d="M10.992,5.452h0a1,1,0,0,1-1-1V1.373a1,1,0,1,1,1.994,0V4.455a1,1,0,0,1-1,1" transform="translate(-2.216 -0.375)" fill="#2b2c2c"/>
        <path id="Контур_10638" data-name="Контур 10638" d="M10.992,5.452h0a1,1,0,0,1-1-1V1.373a1,1,0,1,1,1.994,0V4.455A1,1,0,0,1,10.992,5.452Z" transform="translate(-2.216 -0.375)" fill="none" stroke="#fff" stroke-linecap="round" stroke-linejoin="round" stroke-width="0.75"/>
    </g>
</svg>
