<svg xmlns="http://www.w3.org/2000/svg" width="39.028" height="39.028" viewBox="0 0 39.028 39.028">
    <g id="кнопка_Телефон" data-name="кнопка Телефон" transform="translate(-10850.954 2125.641)">
        <path id="Контур_56" data-name="Контур 56" d="M19.514,0a19.514,19.514,0,1,0,13.8,5.716A19.514,19.514,0,0,0,19.514,0Z" transform="translate(10850.954 -2125.641)" fill="#2b2c2c"/>
        <path id="Контур_58" data-name="Контур 58" d="M18.881,15.879a1.7,1.7,0,0,0-.4.173,7.686,7.686,0,0,0-1.3,1.445,5.419,5.419,0,0,0-.506,4.451,12.285,12.285,0,0,0,1.6,3.367,20.022,20.022,0,0,0,2.732,3.5,13.471,13.471,0,0,0,4.9,3.353,13.861,13.861,0,0,0,3.252,1.055,5.783,5.783,0,0,0,1.937-.318,4.67,4.67,0,0,0,1.994-1.445,5.985,5.985,0,0,0,.737-2.443v-.506l-.159-.188a9.466,9.466,0,0,0-1.575-.939c-2.312-1.243-2.6-1.445-2.977-1.171a5.243,5.243,0,0,0-.752.766c-.954,1.1-1.142,1.3-1.3,1.3a10.123,10.123,0,0,1-2.168-1.1,10.522,10.522,0,0,1-1.778-1.445,12.768,12.768,0,0,1-1.908-2.6l-.087-.188.376-.434a3.615,3.615,0,0,0,.925-1.445,1.705,1.705,0,0,0-.1-1.546c-.275-.708-.506-1.3-.882-2.327s-.535-1.185-.853-1.286A6.236,6.236,0,0,0,18.881,15.879Z" transform="translate(10843.229 -2128.008)" fill="#fff"/>
        <path id="Контур_3995" data-name="Контур 3995" d="M508.537,352.215a6.7,6.7,0,0,1,2.867,1.214,7.016,7.016,0,0,1,1.494,1.5,6.759,6.759,0,0,1,.958,1.848,6.88,6.88,0,0,1,.257,1.02.706.706,0,0,0,.246.43.721.721,0,0,0,.462.166h.031l.03,0,.03,0,.031,0a.708.708,0,0,0,.467-.291.727.727,0,0,0,.114-.252.736.736,0,0,0,.01-.287,8.224,8.224,0,0,0-.31-1.234,8.176,8.176,0,0,0-1.16-2.237,8.427,8.427,0,0,0-1.8-1.8,8.178,8.178,0,0,0-3.472-1.47.725.725,0,0,0-.537.123.721.721,0,0,0-.177,1,.7.7,0,0,0,.2.191A.7.7,0,0,0,508.537,352.215Z" transform="translate(10361.012 -2463.687)" fill="#fff"/>
        <path id="Контур_3996" data-name="Контур 3996" d="M523.679,276.992a13.567,13.567,0,0,0-.51-2.032,13.432,13.432,0,0,0-1.909-3.683,13.906,13.906,0,0,0-2.975-2.976,13.467,13.467,0,0,0-5.715-2.419.7.7,0,0,0-.283.008.711.711,0,0,0-.249.113.727.727,0,0,0-.293.464.732.732,0,0,0,.01.286.72.72,0,0,0,.313.441.729.729,0,0,0,.267.1,12.028,12.028,0,0,1,5.107,2.162,12.353,12.353,0,0,1,2.661,2.659,12.018,12.018,0,0,1,2.16,5.107.707.707,0,0,0,.246.429.721.721,0,0,0,.462.166H523l.03,0,.03,0,.031,0a.694.694,0,0,0,.265-.1.706.706,0,0,0,.32-.721Z" transform="translate(10357.426 -2383.34)" fill="#fff"/>
    </g>
</svg>
