<svg height="76.025" viewBox="0 0 71.55 76.025" width="71.55" xmlns="http://www.w3.org/2000/svg"><g opacity=".85" transform="matrix(.819 -.574 .574 .819 -1.394 24.917)"><path d="m37.246 32.339v-10.339a4.058 4.058 0 0 0 -6.222-3.432l-.979.684.141 12.469v-11.408a4.058 4.058 0 0 0 -6.222-3.432l-1.449 1.061v-12.385a4.039 4.039 0 1 0 -8.077 0v31.643s-3.488-10.3-10.126-10.3c-3.319 0-3.181 2.183-2.2 4.2 2.2 4.553 3.884 9.441 6.62 15.2 1.349 2.84 8.1 5.754 8.917 12.558a20.016 20.016 0 0 1 .2 3.732h22.4c-.316-6.744.406-8.954 2.812-13.955 2.2-4.563 1.072-21.383.623-24.65-.368-2.674-1.637-3.833-3.011-3.833h-.024a4.508 4.508 0 0 0 -3.1 1.242l-.317.3" fill="#fdfdfd"/><path d="m40.77 63.092h-23.47l.051-.547a20.086 20.086 0 0 0 -.2-3.626c-.516-4.3-3.522-6.993-5.937-9.161a12.239 12.239 0 0 1 -2.935-3.242c-1.408-2.964-2.521-5.658-3.6-8.264-1-2.431-1.953-4.727-3.021-6.934-.752-1.554-.86-2.838-.311-3.714a3.247 3.247 0 0 1 2.965-1.204 7.628 7.628 0 0 1 4.677 1.7 14.909 14.909 0 0 1 3.279 3.649 24.827 24.827 0 0 1 1.669 2.965v-29.157a4.539 4.539 0 1 1 9.077 0v11.4l.682-.5a4.558 4.558 0 0 1 6.6 2.008l.462-.322a4.559 4.559 0 0 1 6.808 2.58 4.977 4.977 0 0 1 3.082-1.069h.024a2.927 2.927 0 0 1 2.262 1.088 6.087 6.087 0 0 1 1.244 3.176c.249 1.808.626 6.95.685 11.9.055 4.549-.135 10.5-1.353 13.034-2.346 4.874-3.078 7.013-2.764 13.715zm-22.407-1h21.36a27.871 27.871 0 0 1 .419-7.238 28.642 28.642 0 0 1 2.465-6.433c.9-1.865 1.331-6.218 1.254-12.588-.064-5.318-.472-10.294-.676-11.777-.293-2.13-1.234-3.4-2.516-3.4h-.024a3.99 3.99 0 0 0 -2.752 1.1l-.15.142q0 .049 0 .1v10.34h-1v-10.338a3.558 3.558 0 0 0 -5.443-3.017l-.694.485a4.565 4.565 0 0 1 .078.845v11.407l-1 .006-.14-12.4a3.558 3.558 0 0 0 -5.3-2.028l-1.23.9v13.522h-1v-26.163a3.539 3.539 0 1 0 -7.077 0v31.643l-.968.175-.005-.015a24.427 24.427 0 0 0 -2.53-5.06 13.923 13.923 0 0 0 -3.053-3.4 6.654 6.654 0 0 0 -4.07-1.5c-1.1 0-1.81.248-2.117.738-.352.561-.222 1.536.364 2.747 1.081 2.233 2.035 4.542 3.045 6.987 1.072 2.594 2.18 5.277 3.577 8.217a11.784 11.784 0 0 0 2.7 2.927 27.875 27.875 0 0 1 3.832 3.951 11.9 11.9 0 0 1 2.43 5.834 26.448 26.448 0 0 1 .222 3.291z" fill="#9d9d9d"/></g></svg>