<svg id="лого_STONE" data-name="лого STONE" xmlns="http://www.w3.org/2000/svg" width="207.784" height="45.462" viewBox="0 0 207.784 45.462">
    <path id="Контур_1" data-name="Контур 1" d="M317.078,308.5a5.015,5.015,0,0,0,2.2,4.268,10.459,10.459,0,0,0,6.208,1.592,17.55,17.55,0,0,0,3.724-.337,7.71,7.71,0,0,0,2.484-.938,3.823,3.823,0,0,0,1.4-1.48,4.353,4.353,0,0,0,.444-1.989,4.035,4.035,0,0,0-.732-2.518,5.5,5.5,0,0,0-2.1-1.59,19.507,19.507,0,0,0-3.326-1.145q-1.959-.511-4.442-1.212-1.21-.32-2.753-.7a31.833,31.833,0,0,1-3.138-.953,23.436,23.436,0,0,1-3.1-1.386,11.736,11.736,0,0,1-2.708-1.989,9.014,9.014,0,0,1-1.909-2.788,9.2,9.2,0,0,1-.717-3.774,15.474,15.474,0,0,1,1.049-5.84,11.074,11.074,0,0,1,3.232-4.411,14.967,14.967,0,0,1,5.538-2.77,29.55,29.55,0,0,1,8.009-.953,21.61,21.61,0,0,1,6.764.969,14.085,14.085,0,0,1,4.969,2.754,11.63,11.63,0,0,1,3.072,4.315,14.6,14.6,0,0,1,1.049,5.65H332.168a5.151,5.151,0,0,0-.35-1.864,3.938,3.938,0,0,0-1.147-1.588,5.947,5.947,0,0,0-2.052-1.1,10.04,10.04,0,0,0-3.1-.415,13.412,13.412,0,0,0-3.357.35,5.737,5.737,0,0,0-2.087.955A3.321,3.321,0,0,0,319,288.984a4.25,4.25,0,0,0-.3,1.56,2.82,2.82,0,0,0,.717,1.928,5.982,5.982,0,0,0,1.958,1.4,15.2,15.2,0,0,0,2.929,1c1.124.276,2.345.533,3.661.762q2.261.543,4.313,1.147a29.478,29.478,0,0,1,3.806,1.4,18.654,18.654,0,0,1,3.17,1.817,10.4,10.4,0,0,1,3.962,5.57,14.074,14.074,0,0,1,.542,4.076,11.732,11.732,0,0,1-1.386,5.777,12.346,12.346,0,0,1-3.853,4.2,18.041,18.041,0,0,1-5.857,2.565,30.119,30.119,0,0,1-7.371.855,24.378,24.378,0,0,1-8.436-1.286A16.373,16.373,0,0,1,311.2,318.4a12.643,12.643,0,0,1-3.183-4.663,14.429,14.429,0,0,1-1-5.237Z" transform="translate(-307.017 -277.588)" fill="#2b2c2c"/>
    <path id="Контур_2" data-name="Контур 2" d="M339.294,286.8H327.2v-8.659h34.254V286.8h-12.1v34.64H339.294Z" transform="translate(-287.69 -277.059)" fill="#2b2c2c"/>
    <path id="Контур_3" data-name="Контур 3" d="M346.172,300.256a21.543,21.543,0,0,1,.844-6.047,22.481,22.481,0,0,1,6.081-10.016,23.767,23.767,0,0,1,10.427-5.811,25.273,25.273,0,0,1,12.576,0,24.049,24.049,0,0,1,10.474,5.811,22.306,22.306,0,0,1,6.1,10.016,22.149,22.149,0,0,1,0,12.1,22.485,22.485,0,0,1-6.1,10.027,23.277,23.277,0,0,1-4.808,3.538,25.157,25.157,0,0,1-5.666,2.273,24.739,24.739,0,0,1-12.576,0,24.779,24.779,0,0,1-5.65-2.273,23.1,23.1,0,0,1-8.469-8.138,22.31,22.31,0,0,1-2.388-5.427A21.547,21.547,0,0,1,346.172,300.256Zm10.061.033a14.3,14.3,0,0,0,1.067,5.556,13.808,13.808,0,0,0,2.913,4.438,13.657,13.657,0,0,0,14.963,2.946,13.2,13.2,0,0,0,4.315-2.946,14,14,0,0,0,2.9-4.438,15.031,15.031,0,0,0,0-11.114,14.049,14.049,0,0,0-2.9-4.44,13.231,13.231,0,0,0-4.315-2.946,13.415,13.415,0,0,0-5.348-1.067,13.255,13.255,0,0,0-5.284,1.067,13.4,13.4,0,0,0-4.331,2.946,13.858,13.858,0,0,0-2.913,4.44A14.3,14.3,0,0,0,356.233,300.29Z" transform="translate(-269.518 -277.588)" fill="#2b2c2c"/>
    <path id="Контур_4" data-name="Контур 4" d="M412.889,321.44h-8.725L383.5,295.492V321.44H373.41v-43.3H382.2l20.63,25.885V278.141h10.061Z" transform="translate(-243.431 -277.059)" fill="#2b2c2c"/>
    <path id="Контур_5" data-name="Контур 5" d="M397.427,278.141h30.5v8.692H407.521v8.849h17.51v8.661h-17.51v8.436h20.693v8.661H397.427Z" transform="translate(-220.43 -277.059)" fill="#2b2c2c"/>
</svg>
