<svg height="20.677" viewBox="0 0 209.311 20.677" width="209.311" xmlns="http://www.w3.org/2000/svg"><g fill="#040405"><path d="m23.246.689h-2.735l3.71 6.252h3.29l1.173-1.695-2.704-4.557z" transform="translate(-10.775 -.362)"/><path d="m45.058 4.01-1.985-3.32h-8.5l3.745 6.252v9.867h-1.954v3.581h11.659v-3.582h-2.965z" transform="translate(-18.163 -.362)"/><path d="m58.8 6.906h2.767v-6.217h-6.48z" transform="translate(-28.939 -.362)"/><path d="m91.661 0h-1.107c-.228 0-.619.034-.619.034l2.573 4.366c.749.521 2.443 2.05 2.443 5.893 0 5.731-3.192 6.319-3.192 6.319l2.281 3.81c4.948-1.044 7.651-5.112 7.651-10.161-.001-5.767-3.647-10.061-10.03-10.261" transform="translate(-47.247)"/><path d="m76.987 10.54c0-5.633 3.029-5.991 3.582-5.991h.293l-2.476-4.135c-5.177.911-8.14 4.917-8.14 10.094 0 5.762 3.679 10.193 10 10.386h1.108l1.236-.063-2.376-3.974c-.424-.1-3.224-1.042-3.224-6.317" transform="translate(-36.903 -.217)"/><path d="m6.9 5.488c0-1.335 1.594-1.4 2.573-1.4h1.465l-2.282-3.809c-.195 0-1.27.031-1.433.031-3.939.359-6.674 2.606-6.674 6.026 0 7 8.791 5.6 8.791 8.563 0 1.627-1.856 1.6-2.573 1.563l2.443 4.07c1.856 0 7.164-.324 7.164-6.48 0-6.578-9.475-5.243-9.475-8.563" transform="translate(-.288 -.147)"/><path d="m432.055 6.906v-6.217h-7.133l3.745 6.217z" transform="translate(-223.232 -.362)"/><path d="m0 29.158v6.22h7.488l-3.68-6.22z" transform="translate(0 -15.318)"/><path d="m124.876 17.879-5.276-8.89v12.18h-2.018v3.614h9.086v-3.615h-1.792z" transform="translate(-61.771 -4.722)"/><path d="m388.835 6.906v-6.217h-7.135l3.745 6.217z" transform="translate(-200.527 -.362)"/><path d="m195.444 6.906v-6.217h-7.131l3.745 6.217z" transform="translate(-98.93 -.362)"/><path d="m303.287 6.906v-6.217h-7.133l3.746 6.217z" transform="translate(-155.584 -.362)"/><path d="m429.667 29.158-3.712 6.22h7.13v-6.22z" transform="translate(-223.774 -15.318)"/><path d="m334.591.674c-.586-.031-2.313 0-2.9 0l2.051 3.451c2.281 0 4.038 1.823 4.038 6.48 0 4.4-1.466 6.283-3.843 6.414l1.953 3.258c5.8-.619 8.663-3.746 8.663-9.7 0-6.156-3.518-9.411-9.965-9.9" transform="translate(-174.254 -.346)"/><path d="m297.185 35.379h7.131v-6.22h-3.416z" transform="translate(-156.126 -15.318)"/><path d="m323.918 4.3-2.149-3.61h-6.611v3.61h2.018v12.5h-2.018v3.614h10.908l-2.149-3.614z" transform="translate(-165.567 -.362)"/><path d="m368.236 10.547c0-4.461 1.434-6.187 3.811-6.316l-2.213-3.681c-5.47.78-8.37 4.168-8.37 9.966 0 7.519 4.721 10.06 9.119 10.06a13.552 13.552 0 0 0 3.841-.586l-2.05-3.419c-2.54 0-4.138-1.433-4.138-6.025" transform="translate(-189.895 -.289)"/><path d="m383.488 24.719h1.5v2.442l2.443 4.072h3.647v-6.514-3.453h-7.588z" transform="translate(-201.465 -11.172)"/><path d="m411.318 16.808v-4.168h4.3v-4.365h-4.3v-3.975h2.8l-2.118-3.611h-9.442v3.611h2.018v12.5h-2.018v3.614h9.9l2.115-3.614z" transform="translate(-211.484 -.362)"/><path d="m280.568 16.808v-4.168h4.461v-4.365h-4.461v-3.975h2.8l-2.117-3.611h-11.234l2.15 3.614h1.66v12.5h-1.627l-2.15 3.614h11.658l2.181-3.614z" transform="translate(-141.853 -.362)"/><path d="m144.34 4.3h1.987v3.651l5.242 8.759v-12.41h1.986v-3.61h-9.215z" transform="translate(-75.829 -.362)"/><path d="m174.708 16.808v-4.168h4.461v-4.365h-4.461v-3.975h2.8l-2.116-3.611h-9.443v3.611h2.017v12.5h-2.017v3.614h9.865l2.186-3.606z" transform="translate(-87.181 -.362)"/><path d="m119.6.689h-2.018v3.611h3.027l9.607 16.119h7.295v-1.6l-10.746-18.13z" transform="translate(-61.771 -.362)"/><path d="m244.43 16.808v-12.508h2.281l-2.151-3.611h-8.823v3.611h2.019v3.975h-5.146v-3.975h2.052v-3.611h-10.746v3.611h2.019v12.5h-2.019v3.614h10.747v-3.606h-2.053v-4.168h5.146v4.168h-2.019v3.614h8.856l2.182-3.614z" transform="translate(-117.634 -.362)"/><path d="m189.342 35.379h7.132v-6.22h-3.419z" transform="translate(-99.471 -15.318)"/></g><path d="m0 0h209.311v20.677h-209.311z" fill="none"/></svg>