<svg xmlns="http://www.w3.org/2000/svg" width="187.138" height="89.528" viewBox="0 0 187.138 89.528">
  <path id="Контур_16478" data-name="Контур 16478" d="M140.215,34.022c0-26.692-13.01-40.793-34.33-40.793C90.44-6.771,78.941.2,72.645,8.757,66.854-1.315,56.865-6.771,44.107-6.771c-12.842,0-23.334,5.456-29.546,12.758L14.477-4.421H1.383V81.2H15.9v-47c0-17.879,11-28.287,26.1-28.287,13.094,0,21.4,8.813,21.4,28.706V81.2H78.1V34.022C78.1,16.4,89.1,5.9,104.206,5.9c13.094,0,21.4,8.813,21.4,28.706V81.2h14.605Zm14.881,4.2h33.425V31.252h-13.8c-2.02,0-3.635.1-4.746.2-.64.067-1.212.135-1.717.168l10.6-9.189c5.352-4.544,8.819-9.358,8.819-15.787,0-8.247-5.992-14.979-16.09-14.979C160.078-8.333,155.7.284,155.7,7.185h8.28c0-5.487,3.534-8.482,7.843-8.482,4.342,0,7.675,3.2,7.675,8.011,0,5.015-3.5,8.583-9.425,13.6L155.1,33.339Z" transform="translate(-1.383 8.333)" fill="#2b2c2d"/>
</svg>
