<svg xmlns="http://www.w3.org/2000/svg" width="52" height="52" viewBox="0 0 52 52"><g transform="translate(-1555.5 -48)"><path d="M26,0A26,26,0,1,0,44.385,7.615,26,26,0,0,0,26,0Z" transform="translate(1555.5 48)" fill="#6dc567"/><path d="M24.148,9.018a15.417,15.417,0,0,0-12.825,8.661,15.851,15.851,0,0,0-1.309,4.147,17.657,17.657,0,0,0-.1,4.265,18.1,18.1,0,0,0,1.754,5.757l.262.5-.6,1.779c-.327.968-.916,2.761-1.309,3.925s-.733,2.224-.733,2.276,0,.1.131.131.144.078.118.222,0,.17.092.131l6.36-2.028c.968-.314,1.793-.563,1.832-.563a1.735,1.735,0,0,1,.458.183,15.5,15.5,0,0,0,5.68,1.609,17.361,17.361,0,0,0,3.193-.078,15.129,15.129,0,0,0,10.98-7.1,18.525,18.525,0,0,0,1.937-4.605,16.585,16.585,0,0,0,.471-4.762A15.413,15.413,0,0,0,27.079,9.07,26.521,26.521,0,0,0,24.148,9.018Zm1.845,3.31a12.2,12.2,0,0,1,4.646,1.308,12.587,12.587,0,0,1,4.986,4.383,10.961,10.961,0,0,1,1.793,4.736,15.426,15.426,0,0,1,0,3.3,12.408,12.408,0,0,1-17.353,9.695,11.572,11.572,0,0,1-1.649-.877.5.5,0,0,0-.235-.118s-1.073.314-2.29.706-2.212.693-2.212.68.3-.942.68-2.093.707-2.133.707-2.211a1.124,1.124,0,0,0-.222-.445,12.518,12.518,0,0,1-1.7-10.3A10.145,10.145,0,0,1,13.9,19.21a12.731,12.731,0,0,1,4.266-4.762A12.5,12.5,0,0,1,25.993,12.328Z" transform="translate(1556.607 49.073)" fill="#fff"/><path d="M18.61,15.874a1.516,1.516,0,0,0-.36.154,6.845,6.845,0,0,0-1.158,1.287,4.826,4.826,0,0,0-.45,3.964,10.941,10.941,0,0,0,1.429,3A17.831,17.831,0,0,0,20.5,27.394a12,12,0,0,0,4.363,2.986,12.344,12.344,0,0,0,2.9.94,5.15,5.15,0,0,0,1.725-.283,4.159,4.159,0,0,0,1.776-1.287,5.33,5.33,0,0,0,.656-2.175v-.45l-.142-.167a8.431,8.431,0,0,0-1.4-.837c-2.059-1.107-2.317-1.287-2.651-1.043a4.669,4.669,0,0,0-.669.682c-.849.978-1.017,1.158-1.158,1.158a9.015,9.015,0,0,1-1.931-.978,9.371,9.371,0,0,1-1.583-1.287,11.37,11.37,0,0,1-1.7-2.317l-.077-.167.335-.386a3.22,3.22,0,0,0,.824-1.287,1.519,1.519,0,0,0-.09-1.377c-.245-.631-.45-1.158-.785-2.072s-.476-1.055-.759-1.146A5.554,5.554,0,0,0,18.61,15.874Z" transform="translate(1557.719 50.142)" fill="#fff"/></g></svg>