<svg height="41" viewBox="0 0 281 41" width="281" xmlns="http://www.w3.org/2000/svg"><path d="m0 0h281v41h-281z" fill="#fff" opacity="0"/><g fill="#2b2c2d"><circle cx="20" cy="20.697" r="12"/><g transform="translate(47.825 12.801)"><path d="m3.419 10.508a1.7 1.7 0 0 0 .747 1.451 3.555 3.555 0 0 0 2.11.542 6.01 6.01 0 0 0 1.266-.114 2.633 2.633 0 0 0 .844-.319 1.3 1.3 0 0 0 .476-.5 1.48 1.48 0 0 0 .151-.677 1.372 1.372 0 0 0 -.249-.856 1.869 1.869 0 0 0 -.714-.539 6.674 6.674 0 0 0 -1.13-.396q-.666-.173-1.51-.412-.41-.106-.936-.237a10.818 10.818 0 0 1 -1.066-.324 7.859 7.859 0 0 1 -1.055-.471 3.959 3.959 0 0 1 -.92-.675 3.064 3.064 0 0 1 -.649-.948 3.122 3.122 0 0 1 -.243-1.282 5.256 5.256 0 0 1 .359-1.986 3.768 3.768 0 0 1 1.1-1.499 5.069 5.069 0 0 1 1.879-.941 10.024 10.024 0 0 1 2.721-.325 7.346 7.346 0 0 1 2.3.33 4.782 4.782 0 0 1 1.689.936 3.951 3.951 0 0 1 1.044 1.466 4.965 4.965 0 0 1 .357 1.92h-3.441a1.75 1.75 0 0 0 -.119-.633 1.334 1.334 0 0 0 -.39-.54 2.018 2.018 0 0 0 -.7-.374 3.437 3.437 0 0 0 -1.055-.14 4.53 4.53 0 0 0 -1.141.119 1.939 1.939 0 0 0 -.709.324 1.141 1.141 0 0 0 -.363.465 1.453 1.453 0 0 0 -.1.53.957.957 0 0 0 .243.655 2.029 2.029 0 0 0 .665.476 5.143 5.143 0 0 0 1 .341q.573.142 1.244.26.769.184 1.466.389a9.93 9.93 0 0 1 1.289.476 6.306 6.306 0 0 1 1.077.617 3.532 3.532 0 0 1 1.344 1.895 4.787 4.787 0 0 1 .184 1.385 4 4 0 0 1 -.471 1.964 4.205 4.205 0 0 1 -1.31 1.428 6.126 6.126 0 0 1 -1.991.872 10.231 10.231 0 0 1 -2.505.292 8.282 8.282 0 0 1 -2.867-.438 5.567 5.567 0 0 1 -1.921-1.142 4.3 4.3 0 0 1 -1.078-1.586 4.907 4.907 0 0 1 -.341-1.779z"/><path d="m4.111 2.943h-4.111v-2.943h11.643v2.943h-4.112v11.774h-3.42z" transform="translate(13.428 .368)"/><path d="m0 7.7a7.325 7.325 0 0 1 .287-2.051 7.609 7.609 0 0 1 .813-1.849 7.691 7.691 0 0 1 1.253-1.555 8.069 8.069 0 0 1 3.547-1.974 8.571 8.571 0 0 1 4.275 0 8.165 8.165 0 0 1 3.56 1.974 7.583 7.583 0 0 1 2.073 3.4 7.527 7.527 0 0 1 0 4.112 7.618 7.618 0 0 1 -.812 1.844 7.709 7.709 0 0 1 -1.261 1.564 7.9 7.9 0 0 1 -1.634 1.2 8.547 8.547 0 0 1 -1.926.773 8.407 8.407 0 0 1 -4.275 0 8.426 8.426 0 0 1 -1.92-.773 7.836 7.836 0 0 1 -2.88-2.76 7.565 7.565 0 0 1 -.813-1.844 7.32 7.32 0 0 1 -.287-2.061zm3.42.012a4.858 4.858 0 0 0 .362 1.888 4.7 4.7 0 0 0 .99 1.509 4.647 4.647 0 0 0 5.086 1 4.5 4.5 0 0 0 1.467-1 4.771 4.771 0 0 0 .984-1.509 4.867 4.867 0 0 0 .362-1.888 4.869 4.869 0 0 0 -.362-1.889 4.781 4.781 0 0 0 -.985-1.51 4.638 4.638 0 0 0 -5.081-1 4.571 4.571 0 0 0 -1.472 1 4.713 4.713 0 0 0 -.99 1.51 4.86 4.86 0 0 0 -.361 1.894z" transform="translate(26.054)"/><path d="m13.419 14.717h-2.966l-7.022-8.817v8.819h-3.431v-14.719h2.987l7.013 8.8v-8.8h3.42z" transform="translate(44.179 .368)"/><path d="m0 0h10.367v2.954h-6.936v3.009h5.951v2.943h-5.951v2.868h7.033v2.943h-10.464z" transform="translate(60.16 .368)"/></g><path d="m0 0h1.019v19.3h-1.019z" transform="translate(130.517 11.049)"/><path d="m647.173 62.635h-.821a5.977 5.977 0 0 0 -.979-1.374 6.256 6.256 0 0 0 -1.3-1.048 6.4 6.4 0 0 0 -3.312-.91 6.293 6.293 0 0 0 -5.829 3.817 6.334 6.334 0 0 0 0 4.928 6.325 6.325 0 0 0 5.829 3.8 6.355 6.355 0 0 0 1.745-.237 6.592 6.592 0 0 0 1.562-.667 6.1 6.1 0 0 0 2.289-2.407h.831a6.416 6.416 0 0 1 -1.088 1.663 7.023 7.023 0 0 1 -1.508 1.266 7.189 7.189 0 0 1 -1.819.806 7.264 7.264 0 0 1 -2.017.282 7.115 7.115 0 0 1 -2.756-.541 6.976 6.976 0 0 1 -3.772-3.7 6.954 6.954 0 0 1 0-5.463 7.085 7.085 0 0 1 6.53-4.251 7.246 7.246 0 0 1 2.017.282 7.065 7.065 0 0 1 1.819.811 6.958 6.958 0 0 1 1.5 1.275 6.58 6.58 0 0 1 1.079 1.668z" transform="translate(-489.493 -45.552)"/><path d="m735.206 86.071a5.135 5.135 0 0 1 .41-2.052 5.2 5.2 0 0 1 1.132-1.666 5.288 5.288 0 0 1 1.691-1.117 5.537 5.537 0 0 1 3.564-.2 5.245 5.245 0 0 1 2.378 1.433 4.727 4.727 0 0 1 .781 1.093l.06-2.482h.682v9.976h-.682l-.06-2.452a4.624 4.624 0 0 1 -.781 1.088 5.017 5.017 0 0 1 -1.078.85 5.623 5.623 0 0 1 -1.3.559 5.293 5.293 0 0 1 -1.473.2 5.377 5.377 0 0 1 -3.777-1.513 5.068 5.068 0 0 1 -1.132-1.661 5.169 5.169 0 0 1 -.415-2.056zm.761 0a4.443 4.443 0 0 0 .361 1.79 4.49 4.49 0 0 0 2.447 2.4 4.8 4.8 0 0 0 3.579 0 4.533 4.533 0 0 0 2.462-2.4 4.558 4.558 0 0 0 0-3.579 4.517 4.517 0 0 0 -.994-1.439 4.686 4.686 0 0 0 -1.468-.959 4.67 4.67 0 0 0 -5.042.959 4.477 4.477 0 0 0 -1.345 3.228z" transform="translate(-575.045 -64.282)"/><path d="m833.21 92.324h-4.943v-9.986h4.479a3.2 3.2 0 0 1 1.122.193 2.84 2.84 0 0 1 .9.529 2.437 2.437 0 0 1 .6.8 2.374 2.374 0 0 1 .217 1.018 2.135 2.135 0 0 1 -.113.7 2.425 2.425 0 0 1 -.781 1.112 2.542 2.542 0 0 1 -.6.356 2.936 2.936 0 0 1 .845.346 2.785 2.785 0 0 1 .677.573 2.653 2.653 0 0 1 .45.747 2.343 2.343 0 0 1 .163.875 2.545 2.545 0 0 1 -.242 1.117 2.655 2.655 0 0 1 -.657.865 3.007 3.007 0 0 1 -.964.559 3.369 3.369 0 0 1 -1.153.196zm-.484-9.333h-3.7v3.836h3.7a2.206 2.206 0 0 0 .806-.148 2.064 2.064 0 0 0 .663-.41 2.043 2.043 0 0 0 .45-.608 1.678 1.678 0 0 0 .168-.742 1.711 1.711 0 0 0 -.168-.746 2.031 2.031 0 0 0 -.45-.613 2.165 2.165 0 0 0 -1.468-.568zm.465 4.459h-4.162v4.183h4.133a2.407 2.407 0 0 0 .89-.163 2.355 2.355 0 0 0 .727-.445 2.06 2.06 0 0 0 .49-.663 1.927 1.927 0 0 0 .178-.826 1.882 1.882 0 0 0 -.178-.806 2.11 2.11 0 0 0 -.484-.663 2.391 2.391 0 0 0 -.717-.45 2.287 2.287 0 0 0 -.877-.168z" transform="translate(-653.453 -65.552)"/><path d="m892.5 85.317a5.087 5.087 0 0 1 .416-2.052 5.217 5.217 0 0 1 2.837-2.783 5.623 5.623 0 0 1 4.192 0 5.22 5.22 0 0 1 2.838 2.783 5.087 5.087 0 0 1 .415 2.052v.2a.166.166 0 0 1 -.005.04.177.177 0 0 0 0 .04h-9.937a4.419 4.419 0 0 0 .465 1.77 4.517 4.517 0 0 0 2.477 2.21 4.751 4.751 0 0 0 4.029-.321 4.412 4.412 0 0 0 .934-.722 4.254 4.254 0 0 0 .707-.949h.821a4.827 4.827 0 0 1 -.8 1.206 5.3 5.3 0 0 1 -2.477 1.552 5.525 5.525 0 0 1 -1.562.218 5.375 5.375 0 0 1 -3.792-1.523 5.225 5.225 0 0 1 -1.142-1.666 5.086 5.086 0 0 1 -.416-2.055zm5.359-4.568a4.654 4.654 0 0 0 -1.73.321 4.578 4.578 0 0 0 -1.429.89 4.539 4.539 0 0 0 -1.449 3h9.185a4.51 4.51 0 0 0 -.45-1.661 4.551 4.551 0 0 0 -4.128-2.551z" transform="translate(-707.577 -63.647)"/><path d="m979.435 92.376v-9.254h-7.406v6.506a4.449 4.449 0 0 1 -.158 1.226 2.5 2.5 0 0 1 -.494.949 2.245 2.245 0 0 1 -.845.613 3.075 3.075 0 0 1 -1.211.217q-.1 0-.237-.005t-.218-.015l.1-.7h.163.163a2.221 2.221 0 0 0 .909-.168 1.593 1.593 0 0 0 .613-.47 1.988 1.988 0 0 0 .351-.732 3.7 3.7 0 0 0 .114-.944v-7.199h8.908v9.976z" transform="translate(-771.915 -65.604)"/><path d="m1060.861 86.071a5.086 5.086 0 0 1 .415-2.052 5.229 5.229 0 0 1 1.142-1.666 5.331 5.331 0 0 1 1.7-1.117 5.611 5.611 0 0 1 4.188 0 5.222 5.222 0 0 1 2.837 2.783 5.281 5.281 0 0 1 0 4.1 5.216 5.216 0 0 1 -1.137 1.661 5.3 5.3 0 0 1 -1.7 1.112 5.49 5.49 0 0 1 -5.888-1.107 5.134 5.134 0 0 1 -1.557-3.718zm.761 0a4.44 4.44 0 0 0 .361 1.79 4.486 4.486 0 0 0 2.447 2.4 4.8 4.8 0 0 0 3.579 0 4.482 4.482 0 0 0 2.447-2.4 4.616 4.616 0 0 0 0-3.579 4.491 4.491 0 0 0 -.983-1.439 4.683 4.683 0 0 0 -6.506 0 4.48 4.48 0 0 0 -1.345 3.228z" transform="translate(-849.426 -64.282)"/><path d="m1153.591 92.324h-4.944v-9.986h4.479a3.2 3.2 0 0 1 1.122.193 2.844 2.844 0 0 1 .9.529 2.436 2.436 0 0 1 .6.8 2.374 2.374 0 0 1 .217 1.018 2.127 2.127 0 0 1 -.114.7 2.439 2.439 0 0 1 -.311.613 2.412 2.412 0 0 1 -.47.5 2.538 2.538 0 0 1 -.6.356 2.937 2.937 0 0 1 .845.346 2.794 2.794 0 0 1 .677.573 2.652 2.652 0 0 1 .45.747 2.345 2.345 0 0 1 .163.875 2.55 2.55 0 0 1 -.242 1.117 2.66 2.66 0 0 1 -.657.865 3.011 3.011 0 0 1 -.964.559 3.369 3.369 0 0 1 -1.151.195zm-.484-9.333h-3.7v3.836h3.7a2.205 2.205 0 0 0 .805-.148 2.067 2.067 0 0 0 .663-.41 2.044 2.044 0 0 0 .449-.608 1.676 1.676 0 0 0 .168-.742 1.71 1.71 0 0 0 -.168-.746 2.031 2.031 0 0 0 -.449-.613 2.166 2.166 0 0 0 -1.468-.568zm.465 4.459h-4.163v4.183h4.133a2.41 2.41 0 0 0 .89-.163 2.359 2.359 0 0 0 .727-.445 2.061 2.061 0 0 0 .489-.663 1.928 1.928 0 0 0 .178-.826 1.883 1.883 0 0 0 -.178-.806 2.107 2.107 0 0 0 -.484-.663 2.4 2.4 0 0 0 -.717-.45 2.287 2.287 0 0 0 -.876-.168z" transform="translate(-923.39 -65.552)"/><path d="m1213.405 86.071a4.394 4.394 0 0 0 1.409 3.3 4.584 4.584 0 0 0 1.464.91 4.681 4.681 0 0 0 1.716.322 4.834 4.834 0 0 0 1.26-.163 4.477 4.477 0 0 0 2.066-1.206 4.4 4.4 0 0 0 .717-.974h.791a4.609 4.609 0 0 1 -.771 1.241 5.037 5.037 0 0 1 -1.117.959 5.519 5.519 0 0 1 -2.956.846 5.4 5.4 0 0 1 -3.792-1.518 5.165 5.165 0 0 1 -1.142-1.661 5.272 5.272 0 0 1 0-4.1 5.225 5.225 0 0 1 1.142-1.666 5.324 5.324 0 0 1 1.7-1.117 5.383 5.383 0 0 1 2.091-.405 5.453 5.453 0 0 1 1.567.222 5.514 5.514 0 0 1 1.379.623 4.97 4.97 0 0 1 1.117.964 5.1 5.1 0 0 1 .791 1.245h-.8a4.221 4.221 0 0 0 -.712-.979 4.562 4.562 0 0 0 -.944-.741 4.507 4.507 0 0 0 -1.127-.47 4.846 4.846 0 0 0 -1.26-.163 4.731 4.731 0 0 0 -1.721.321 4.541 4.541 0 0 0 -1.468.915 4.428 4.428 0 0 0 -1.018 1.433 4.475 4.475 0 0 0 -.382 1.862z" transform="translate(-977.302 -64.282)"/><path d="m1301.616 92.376v-9.966h.752v7.1l6.159-7.109h.93l-3.9 4.518 4.2 5.458h-.959l-3.787-4.914-2.65 3.026v1.888z" transform="translate(-1052.274 -65.604)"/><path d="m1362.717 86.071a5.141 5.141 0 0 1 .41-2.052 5.2 5.2 0 0 1 1.132-1.666 5.292 5.292 0 0 1 1.69-1.117 5.538 5.538 0 0 1 3.565-.2 5.242 5.242 0 0 1 2.377 1.433 4.718 4.718 0 0 1 .781 1.093l.06-2.482h.682v9.976h-.682l-.06-2.452a4.616 4.616 0 0 1 -.781 1.088 5.014 5.014 0 0 1 -1.077.85 5.621 5.621 0 0 1 -1.3.559 5.294 5.294 0 0 1 -1.474.2 5.377 5.377 0 0 1 -3.777-1.513 5.073 5.073 0 0 1 -1.132-1.661 5.176 5.176 0 0 1 -.414-2.056zm.762 0a4.448 4.448 0 0 0 .36 1.79 4.486 4.486 0 0 0 2.448 2.4 4.8 4.8 0 0 0 3.579 0 4.533 4.533 0 0 0 2.462-2.4 4.558 4.558 0 0 0 0-3.579 4.517 4.517 0 0 0 -.994-1.439 4.687 4.687 0 0 0 -1.469-.959 4.672 4.672 0 0 0 -5.042.959 4.476 4.476 0 0 0 -1.344 3.228z" transform="translate(-1103.755 -64.282)"/><path d="m1456.145 88.646h-3.421l-3.026 3.678h-.89l3.095-3.767a3.327 3.327 0 0 1 -1.039-.4 3.125 3.125 0 0 1 -.8-.677 2.961 2.961 0 0 1 -.519-.91 3.181 3.181 0 0 1 -.183-1.082 3.116 3.116 0 0 1 .252-1.261 2.987 2.987 0 0 1 .7-1 3.232 3.232 0 0 1 1.078-.658 3.844 3.844 0 0 1 1.37-.237h4.142v9.986h-.761zm-3.392-.692h3.392v-4.944h-3.352a2.879 2.879 0 0 0 -1.063.193 2.659 2.659 0 0 0 -.845.524 2.33 2.33 0 0 0 -.554.786 2.42 2.42 0 0 0 -.2.979 2.383 2.383 0 0 0 .2.974 2.408 2.408 0 0 0 .544.781 2.48 2.48 0 0 0 .83.519 2.87 2.87 0 0 0 1.048.188z" transform="translate(-1176.292 -65.552)"/></g></svg>