<svg xmlns="http://www.w3.org/2000/svg" width="354" height="42" viewBox="0 0 354 42">
    <g id="Савеловская_Normal" data-name="Савеловская / Normal" transform="translate(11181 -12615)">
        <g id="Сгруппировать_2269" data-name="Сгруппировать 2269" transform="translate(0 57)">
            <path id="Прямоугольник_1876" data-name="Прямоугольник 1876" d="M0,0H310a21,21,0,0,1,21,21v0a21,21,0,0,1-21,21H0a0,0,0,0,1,0,0V0A0,0,0,0,1,0,0Z" transform="translate(-11158 12558)" fill="#fff" opacity="0.8"/>
            <circle id="Эллипс_684" data-name="Эллипс 684" cx="21" cy="21" r="21" transform="translate(-11181 12558)" fill="#d5fd01"/>
        </g>
        <g id="Сгруппировать_2283" data-name="Сгруппировать 2283" transform="translate(-11123 12624)">
            <path id="Контур_11103" data-name="Контур 11103" d="M3.826,109.52a1.829,1.829,0,0,0,.822,1.57,3.98,3.98,0,0,0,2.328.585,6.821,6.821,0,0,0,1.4-.122,2.923,2.923,0,0,0,.929-.345,1.417,1.417,0,0,0,.527-.544,1.594,1.594,0,0,0,.167-.732,1.463,1.463,0,0,0-.275-.926,2.063,2.063,0,0,0-.788-.586A7.7,7.7,0,0,0,7.686,108c-.489-.125-1.044-.274-1.664-.445q-.457-.117-1.033-.258c-.386-.094-.775-.211-1.176-.349a9.065,9.065,0,0,1-1.162-.51,4.416,4.416,0,0,1-1.014-.732,3.3,3.3,0,0,1-.717-1.025,3.336,3.336,0,0,1-.268-1.386,5.572,5.572,0,0,1,.394-2.148,4.06,4.06,0,0,1,1.211-1.621A5.63,5.63,0,0,1,4.334,98.5a11.363,11.363,0,0,1,3-.348,8.254,8.254,0,0,1,2.536.356,5.268,5.268,0,0,1,1.861,1.013,4.255,4.255,0,0,1,1.151,1.585,5.271,5.271,0,0,1,.395,2.078H9.483a1.831,1.831,0,0,0-.133-.683,1.453,1.453,0,0,0-.43-.587,2.258,2.258,0,0,0-.769-.4,3.885,3.885,0,0,0-1.164-.153,5.122,5.122,0,0,0-1.259.129,2.183,2.183,0,0,0-.78.351,1.246,1.246,0,0,0-.4.5,1.531,1.531,0,0,0-.113.574,1.032,1.032,0,0,0,.268.709,2.276,2.276,0,0,0,.733.513,5.855,5.855,0,0,0,1.1.369q.633.152,1.372.28.846.2,1.617.423a11.047,11.047,0,0,1,1.425.513,7.246,7.246,0,0,1,1.187.666,3.962,3.962,0,0,1,.906.885,3.915,3.915,0,0,1,.58,1.167,5.086,5.086,0,0,1,.2,1.5,4.247,4.247,0,0,1-.519,2.126,4.561,4.561,0,0,1-1.444,1.545,6.859,6.859,0,0,1-2.2.942,11.313,11.313,0,0,1-2.762.315,9.294,9.294,0,0,1-3.162-.473,6.156,6.156,0,0,1-2.118-1.236,4.651,4.651,0,0,1-1.193-1.715,5.188,5.188,0,0,1-.376-1.927Z" transform="translate(-0.056 -94.525)" fill="#292d29"/>
            <path id="Контур_11104" data-name="Контур 11104" d="M24.575,101.882H20.041V98.7H32.879v3.184H28.346v12.736H24.575Z" transform="translate(-5.382 -94.67)" fill="#292d29"/>
            <path id="Контур_11105" data-name="Контур 11105" d="M38.281,106.489a7.784,7.784,0,0,1,.315-2.224,8.227,8.227,0,0,1,2.28-3.681,8.859,8.859,0,0,1,3.907-2.137,9.655,9.655,0,0,1,4.713,0,8.992,8.992,0,0,1,3.926,2.137,8.185,8.185,0,0,1,2.285,3.681,8.016,8.016,0,0,1,0,4.448,8.189,8.189,0,0,1-.9,2,8.384,8.384,0,0,1-1.389,1.691,8.67,8.67,0,0,1-1.8,1.3,9.362,9.362,0,0,1-2.124.838,9.471,9.471,0,0,1-4.713,0,9.3,9.3,0,0,1-2.119-.838,8.582,8.582,0,0,1-1.788-1.3,8.462,8.462,0,0,1-1.385-1.691,8.189,8.189,0,0,1-.9-2,7.791,7.791,0,0,1-.315-2.224m3.771.01a5.173,5.173,0,0,0,.4,2.043,5.075,5.075,0,0,0,1.092,1.633,5.077,5.077,0,0,0,3.6,1.475,5.07,5.07,0,0,0,2-.392,4.958,4.958,0,0,0,1.618-1.083,5.261,5.261,0,0,0,0-7.353,5,5,0,0,0-1.618-1.081,5.1,5.1,0,0,0-2-.391,5.083,5.083,0,0,0-3.6,1.472,5.1,5.1,0,0,0-1.092,1.635,5.172,5.172,0,0,0-.4,2.041" transform="translate(-10.244 -94.525)" fill="#292d29"/>
            <path id="Контур_11106" data-name="Контур 11106" d="M80.515,114.618h-3.27L69.5,105.076v9.542H65.719V98.7h3.293l7.732,9.517V98.7h3.77Z" transform="translate(-17.556 -94.669)" fill="#292d29"/>
            <path id="Контур_11107" data-name="Контур 11107" d="M90.22,98.7h11.431v3.194H94v3.257h6.564v3.182H94v3.1h7.757v3.186H90.22Z" transform="translate(-24.086 -94.669)" fill="#292d29"/>
            <rect id="Прямоугольник_1903" data-name="Прямоугольник 1903" width="0.893" height="23.977" transform="translate(92.129)" fill="#292d29"/>
            <path id="Контур_11120" data-name="Контур 11120" d="M159.871,103.012a7.488,7.488,0,1,0,0,7.056h.993a8.363,8.363,0,1,1-.012-7.056Z" transform="translate(-38.608 -94.534)" fill="#2a2c29"/>
            <path id="Контур_11121" data-name="Контур 11121" d="M177.976,103.894a6.236,6.236,0,0,1,5.542,3.263V104.19h.887v11.925h-.887v-2.932a6.321,6.321,0,1,1-5.542-9.29m.047,11.689a5.425,5.425,0,1,0-5.5-5.425,5.437,5.437,0,0,0,5.5,5.425" transform="translate(-45.78 -96.055)" fill="#2a2c29"/>
            <path id="Контур_11122" data-name="Контур 11122" d="M195.512,116.218V104.281h5.354a3.152,3.152,0,0,1,3.392,3.037,2.832,2.832,0,0,1-1.785,2.588,3.214,3.214,0,0,1,2.553,3.038,3.391,3.391,0,0,1-3.6,3.274Zm.91-6.571h4.421a2.3,2.3,0,1,0,0-4.586h-4.421Zm4.941,5.744a2.508,2.508,0,1,0,.034-5h-4.975v5Z" transform="translate(-52.148 -96.158)" fill="#2a2c29"/>
            <path id="Контур_11123" data-name="Контур 11123" d="M218.262,103.7a6.281,6.281,0,0,1,6.394,6.264v.236c0,.036-.012.059-.012.095H212.766a5.435,5.435,0,0,0,5.507,5.118,5.373,5.373,0,0,0,4.787-2.742h.98a6.366,6.366,0,1,1-5.779-8.971m-5.5,5.839h10.98a5.51,5.51,0,0,0-10.98,0" transform="translate(-56.507 -96.003)" fill="#2a2c29"/>
            <path id="Контур_11124" data-name="Контур 11124" d="M244.225,105.16h-8.852v7.777c0,2.14-1,3.593-3.239,3.593-.153,0-.413-.012-.544-.023l.118-.839c.048,0,.343.012.392.012,1.688,0,2.374-1.111,2.374-2.766V104.3h10.649v11.925h-.9Z" transform="translate(-61.764 -96.162)" fill="#2a2c29"/>
            <path id="Контур_11125" data-name="Контур 11125" d="M261.59,103.894a6.26,6.26,0,1,1-6.393,6.264,6.281,6.281,0,0,1,6.393-6.264m.012,11.689a5.425,5.425,0,1,0-5.5-5.425,5.41,5.41,0,0,0,5.5,5.425" transform="translate(-68.055 -96.055)" fill="#2a2c29"/>
            <path id="Контур_11126" data-name="Контур 11126" d="M277.721,116.218V104.281h5.355a3.151,3.151,0,0,1,3.391,3.037,2.833,2.833,0,0,1-1.783,2.588,3.216,3.216,0,0,1,2.553,3.038,3.393,3.393,0,0,1-3.606,3.274Zm.912-6.571h4.419a2.3,2.3,0,1,0,0-4.586h-4.419Zm4.939,5.744a2.508,2.508,0,1,0,.036-5h-4.975v5Z" transform="translate(-74.058 -96.158)" fill="#2a2c29"/>
            <path id="Контур_11127" data-name="Контур 11127" d="M300.547,115.571a5.384,5.384,0,0,0,4.835-2.8h.945a6.211,6.211,0,0,1-5.792,3.64,6.259,6.259,0,1,1,5.8-8.864h-.956a5.475,5.475,0,1,0-4.835,8.024" transform="translate(-78.435 -96.055)" fill="#2a2c29"/>
            <path id="Контур_11128" data-name="Контур 11128" d="M316.974,104.309h.9v8.486l7.363-8.5h1.111l-4.657,5.4,5.022,6.524h-1.146l-4.527-5.874-3.167,3.617v2.257h-.9Z" transform="translate(-84.52 -96.162)" fill="#2a2c29"/>
            <path id="Контур_11129" data-name="Контур 11129" d="M338.883,103.894a6.234,6.234,0,0,1,5.542,3.263V104.19h.887v11.925h-.887v-2.932a6.321,6.321,0,1,1-5.542-9.29m.047,11.689a5.425,5.425,0,1,0-5.5-5.425,5.438,5.438,0,0,0,5.5,5.425" transform="translate(-88.665 -96.055)" fill="#2a2c29"/>
            <path id="Контур_11130" data-name="Контур 11130" d="M363.4,111.821h-4.088l-3.618,4.4h-1.063l3.7-4.5a3.657,3.657,0,0,1-3.037-3.664,3.791,3.791,0,0,1,4.066-3.77h4.951v11.937H363.4Zm0-.827v-5.91h-4.007a3.007,3.007,0,0,0-3.179,2.967,2.968,2.968,0,0,0,3.132,2.943Z" transform="translate(-94.556 -96.158)" fill="#2a2c29"/>
        </g>
    </g>
</svg>
