<svg height="41" viewBox="0 0 224 41" width="224" xmlns="http://www.w3.org/2000/svg"><path d="m0 0h224v41h-224z" fill="#fff" opacity="0"/><g fill="#2b2c2d"><circle cx="20" cy="20.148" r="12"/><g transform="translate(47.825 11.752)"><path d="m3.419 10.508a1.7 1.7 0 0 0 .747 1.451 3.555 3.555 0 0 0 2.11.542 6.01 6.01 0 0 0 1.266-.114 2.633 2.633 0 0 0 .844-.319 1.3 1.3 0 0 0 .476-.5 1.48 1.48 0 0 0 .151-.677 1.372 1.372 0 0 0 -.249-.856 1.869 1.869 0 0 0 -.714-.539 6.674 6.674 0 0 0 -1.13-.396q-.666-.173-1.51-.412-.41-.106-.936-.237a10.818 10.818 0 0 1 -1.066-.324 7.859 7.859 0 0 1 -1.055-.471 3.959 3.959 0 0 1 -.92-.675 3.064 3.064 0 0 1 -.649-.948 3.122 3.122 0 0 1 -.243-1.282 5.256 5.256 0 0 1 .359-1.986 3.768 3.768 0 0 1 1.1-1.499 5.069 5.069 0 0 1 1.879-.941 10.024 10.024 0 0 1 2.721-.325 7.346 7.346 0 0 1 2.3.33 4.782 4.782 0 0 1 1.689.936 3.951 3.951 0 0 1 1.044 1.466 4.965 4.965 0 0 1 .357 1.92h-3.441a1.75 1.75 0 0 0 -.119-.633 1.334 1.334 0 0 0 -.39-.54 2.018 2.018 0 0 0 -.7-.374 3.437 3.437 0 0 0 -1.055-.14 4.53 4.53 0 0 0 -1.141.119 1.939 1.939 0 0 0 -.709.324 1.141 1.141 0 0 0 -.363.465 1.453 1.453 0 0 0 -.1.53.957.957 0 0 0 .243.655 2.029 2.029 0 0 0 .665.476 5.143 5.143 0 0 0 1 .341q.573.142 1.244.26.769.184 1.466.389a9.93 9.93 0 0 1 1.289.476 6.306 6.306 0 0 1 1.077.617 3.532 3.532 0 0 1 1.344 1.895 4.787 4.787 0 0 1 .184 1.385 4 4 0 0 1 -.471 1.964 4.205 4.205 0 0 1 -1.31 1.428 6.126 6.126 0 0 1 -1.991.872 10.231 10.231 0 0 1 -2.505.292 8.282 8.282 0 0 1 -2.867-.438 5.567 5.567 0 0 1 -1.921-1.142 4.3 4.3 0 0 1 -1.078-1.586 4.907 4.907 0 0 1 -.341-1.779z"/><path d="m4.111 2.943h-4.111v-2.943h11.643v2.943h-4.112v11.774h-3.42z" transform="translate(13.428 .368)"/><path d="m0 7.7a7.325 7.325 0 0 1 .287-2.051 7.609 7.609 0 0 1 .813-1.849 7.691 7.691 0 0 1 1.253-1.555 8.069 8.069 0 0 1 3.547-1.974 8.571 8.571 0 0 1 4.275 0 8.165 8.165 0 0 1 3.56 1.974 7.583 7.583 0 0 1 2.073 3.4 7.527 7.527 0 0 1 0 4.112 7.618 7.618 0 0 1 -.812 1.844 7.709 7.709 0 0 1 -1.261 1.564 7.9 7.9 0 0 1 -1.634 1.2 8.547 8.547 0 0 1 -1.926.773 8.407 8.407 0 0 1 -4.275 0 8.426 8.426 0 0 1 -1.92-.773 7.836 7.836 0 0 1 -2.88-2.76 7.565 7.565 0 0 1 -.813-1.844 7.32 7.32 0 0 1 -.287-2.061zm3.42.012a4.858 4.858 0 0 0 .362 1.888 4.7 4.7 0 0 0 .99 1.509 4.647 4.647 0 0 0 5.086 1 4.5 4.5 0 0 0 1.467-1 4.771 4.771 0 0 0 .984-1.509 4.867 4.867 0 0 0 .362-1.888 4.869 4.869 0 0 0 -.362-1.889 4.781 4.781 0 0 0 -.985-1.51 4.638 4.638 0 0 0 -5.081-1 4.571 4.571 0 0 0 -1.472 1 4.713 4.713 0 0 0 -.99 1.51 4.86 4.86 0 0 0 -.361 1.894z" transform="translate(26.054)"/><path d="m13.419 14.717h-2.966l-7.022-8.817v8.819h-3.431v-14.719h2.987l7.013 8.8v-8.8h3.42z" transform="translate(44.179 .368)"/><path d="m0 0h10.367v2.954h-6.936v3.009h5.951v2.943h-5.951v2.868h7.033v2.943h-10.464z" transform="translate(60.16 .368)"/></g><path d="m0 0h1.019v19.3h-1.019z" transform="translate(130.517 10)"/><g transform="translate(144.073 12)"><path d="m5.062.772h-5.062v-.772h11v.772h-5.079v14.028h-.86z"/><path d="m5.889 0a5.764 5.764 0 1 1 0 11.526 5.764 5.764 0 1 1 0-11.526zm.011 10.764a5 5 0 1 0 0-9.991 5 5 0 1 0 0 9.992z" transform="translate(11.526 3.549)"/><path d="m16.9 0-4.1 10.983h-.849l-3.5-9.654-3.51 9.654h-.841l-4.1-10.983h.892l3.668 9.96h.021l3.495-9.808h.73l3.515 9.808h.022l3.657-9.96z" transform="translate(25.796 3.82)"/><path d="m5.888 0a5.785 5.785 0 0 1 5.889 5.768v.218c0 .032-.011.054-.011.087h-10.939a5.006 5.006 0 0 0 5.073 4.713 4.946 4.946 0 0 0 4.408-2.525h.9a5.789 5.789 0 0 1 -5.323 3.276 5.77 5.77 0 1 1 .003-11.537zm-5.061 5.377h10.112a5.005 5.005 0 0 0 -5.039-4.637 5.022 5.022 0 0 0 -5.073 4.637z" transform="translate(45.203 3.549)"/><path d="m6.3.795h-1.064c-2.569 0-4.409 1.567-4.409 4.55v5.638h-.827v-10.983h.73l.076 2.481a4.654 4.654 0 0 1 4.407-2.481h1.087z" transform="translate(61.268 3.82)"/><path d="m.826 8.261c0 1.3 1.622 2.514 3.494 2.514 2.733 0 4.115-.969 4.115-2.481 0-1.568-1.556-2.1-3.788-2.329-1.915-.174-4.31-.565-4.31-2.809 0-1.491 1.056-3.156 4.363-3.156 2.4 0 3.983 1.295 3.983 2.961h-.803c-.054-1.34-1.394-2.221-3.211-2.221-2.59 0-3.515 1.208-3.515 2.416 0 1.361 1.317 1.895 3.8 2.1 1.708.174 4.321.6 4.321 3 0 2.035-1.742 3.265-4.974 3.265-2.495.005-4.301-1.649-4.301-3.26z" transform="translate(69.813 3.549)"/></g></g></svg>