<svg xmlns="http://www.w3.org/2000/svg" width="276" height="42" viewBox="0 0 276 42">
    <g id="Towers_Normal" data-name="Towers / Normal" transform="translate(11181 -12558)">
        <g id="Сгруппировать_2268" data-name="Сгруппировать 2268">
            <path id="Прямоугольник_1876" data-name="Прямоугольник 1876" d="M0,0H232a21,21,0,0,1,21,21v0a21,21,0,0,1-21,21H0a0,0,0,0,1,0,0V0A0,0,0,0,1,0,0Z" transform="translate(-11158 12558)" fill="#fff" opacity="0.8"/>
            <circle id="Эллипс_684" data-name="Эллипс 684" cx="21" cy="21" r="21" transform="translate(-11181 12558)" fill="#283380"/>
        </g>
        <g id="Сгруппировать_2276" data-name="Сгруппировать 2276" transform="translate(-11123 12568)">
            <path id="Контур_11056" data-name="Контур 11056" d="M3.815,14.176a1.877,1.877,0,0,0,.821,1.6,3.91,3.91,0,0,0,2.32.593,6.592,6.592,0,0,0,1.391-.125,2.928,2.928,0,0,0,.928-.35,1.427,1.427,0,0,0,.524-.554,1.629,1.629,0,0,0,.167-.743,1.505,1.505,0,0,0-.274-.941,2.06,2.06,0,0,0-.785-.593,7.228,7.228,0,0,0-1.243-.429q-.732-.19-1.658-.453c-.3-.079-.645-.167-1.03-.262A11.667,11.667,0,0,1,3.8,11.56a8.538,8.538,0,0,1-1.159-.518A4.351,4.351,0,0,1,1.632,10.3,3.371,3.371,0,0,1,.919,9.258,3.423,3.423,0,0,1,.651,7.849a5.786,5.786,0,0,1,.392-2.184A4.146,4.146,0,0,1,2.251,4.018,5.594,5.594,0,0,1,4.32,2.983a11.019,11.019,0,0,1,2.993-.356,8.071,8.071,0,0,1,2.526.362A5.274,5.274,0,0,1,11.7,4.018a4.364,4.364,0,0,1,1.147,1.613,5.448,5.448,0,0,1,.392,2.109H9.453a1.928,1.928,0,0,0-.131-.695,1.481,1.481,0,0,0-.428-.594,2.262,2.262,0,0,0-.768-.411,3.763,3.763,0,0,0-1.16-.154,5.071,5.071,0,0,0-1.254.131,2.13,2.13,0,0,0-.78.356,1.247,1.247,0,0,0-.4.511,1.6,1.6,0,0,0-.113.583,1.053,1.053,0,0,0,.268.721,2.257,2.257,0,0,0,.731.523,5.633,5.633,0,0,0,1.094.374q.63.157,1.369.286.844.2,1.611.428a11.166,11.166,0,0,1,1.421.523A7,7,0,0,1,12.1,11a3.878,3.878,0,0,1,1.481,2.082,5.27,5.27,0,0,1,.2,1.522,4.383,4.383,0,0,1-.518,2.159,4.617,4.617,0,0,1-1.44,1.571,6.747,6.747,0,0,1-2.188.956,11.227,11.227,0,0,1-2.754.321,9.118,9.118,0,0,1-3.152-.482,6.114,6.114,0,0,1-2.111-1.255A4.735,4.735,0,0,1,.432,16.133a5.373,5.373,0,0,1-.376-1.956Z" transform="translate(-0.056 -0.7)" fill="#1a1818"/>
            <path id="Контур_11057" data-name="Контур 11057" d="M24.7,6.413H20.18V3.177h12.8V6.413h-4.52V19.355H24.7Z" transform="translate(-5.419 -0.847)" fill="#1a1818"/>
            <path id="Контур_11058" data-name="Контур 11058" d="M42.86,11.11a5.353,5.353,0,0,0,.4,2.075,5.145,5.145,0,0,0,1.089,1.657,4.99,4.99,0,0,0,1.617,1.1,4.937,4.937,0,0,0,1.974.4,5,5,0,0,0,2-.4,4.918,4.918,0,0,0,1.611-1.1,5.189,5.189,0,0,0,1.083-1.657,5.612,5.612,0,0,0,0-4.153,5.236,5.236,0,0,0-1.083-1.658,4.937,4.937,0,0,0-1.611-1.1,5,5,0,0,0-2-.4,4.937,4.937,0,0,0-1.974.4,5.009,5.009,0,0,0-1.617,1.1,5.191,5.191,0,0,0-1.089,1.658,5.362,5.362,0,0,0-.4,2.078M39.1,11.1a8.05,8.05,0,0,1,.315-2.258,8.342,8.342,0,0,1,.893-2.03,8.541,8.541,0,0,1,1.379-1.713,8.875,8.875,0,0,1,3.9-2.17,9.41,9.41,0,0,1,4.7,0A8.959,8.959,0,0,1,54.2,5.094a8.339,8.339,0,0,1,2.279,3.743,8.288,8.288,0,0,1,0,4.519A8.408,8.408,0,0,1,54.2,17.1,8.722,8.722,0,0,1,52.4,18.425a9.41,9.41,0,0,1-2.119.849,9.234,9.234,0,0,1-4.7,0,9.27,9.27,0,0,1-2.112-.849,8.621,8.621,0,0,1-3.164-3.041,8.327,8.327,0,0,1-.893-2.027A8.054,8.054,0,0,1,39.1,11.1" transform="translate(-10.462 -0.7)" fill="#1a1818"/>
            <path id="Контур_11059" data-name="Контур 11059" d="M81.013,19.356h-3.26L70.034,9.661v9.694H66.263V3.179h3.283l7.708,9.67V3.179h3.759Z" transform="translate(-17.701 -0.847)" fill="#1a1818"/>
            <path id="Контур_11060" data-name="Контур 11060" d="M90.213,3.179h11.4V6.426H93.984V9.732h6.542v3.237H93.984V16.12h7.732v3.235h-11.5Z" transform="translate(-24.084 -0.847)" fill="#1a1818"/>
            <rect id="Прямоугольник_1901" data-name="Прямоугольник 1901" width="1.121" height="21.21" transform="translate(90.895)" fill="#1a1818"/>
            <path id="Контур_11061" data-name="Контур 11061" d="M149.858,4.108h-5.564V3.258h12.1v.849H150.8V19.53h-.945Z" transform="translate(-38.498 -0.868)" fill="#1a1818"/>
            <path id="Контур_11062" data-name="Контур 11062" d="M168.053,20.41a5.492,5.492,0,1,0-5.563-5.492,5.477,5.477,0,0,0,5.563,5.492m-.012-11.833a6.336,6.336,0,1,1-6.473,6.342,6.357,6.357,0,0,1,6.473-6.342" transform="translate(-43.102 -2.286)" fill="#1a1818"/>
            <path id="Контур_11063" data-name="Контур 11063" d="M201.533,8.984l-4.51,12.072h-.934l-3.852-10.611-3.852,10.611h-.921L182.952,8.984h.981l4.032,10.948h.023l3.84-10.78h.8l3.865,10.78h.023l4.02-10.948Z" transform="translate(-48.801 -2.394)" fill="#1a1818"/>
            <path id="Контур_11064" data-name="Контур 11064" d="M212.945,14.487h11.114a5.578,5.578,0,0,0-11.114,0m5.563-5.91a6.359,6.359,0,0,1,6.473,6.342v.238c0,.036-.012.059-.012.1H212.945a5.5,5.5,0,0,0,5.576,5.181,5.436,5.436,0,0,0,4.845-2.776h.994a6.444,6.444,0,1,1-5.851-9.081" transform="translate(-56.552 -2.286)" fill="#1a1818"/>
            <path id="Контур_11065" data-name="Контур 11065" d="M243.039,9.858h-1.173c-2.824,0-4.846,1.721-4.846,5v6.2h-.909V8.984h.8L237,11.712a5.115,5.115,0,0,1,4.845-2.728h1.2Z" transform="translate(-62.969 -2.394)" fill="#1a1818"/>
            <path id="Контур_11066" data-name="Контур 11066" d="M249.825,17.658c0,1.424,1.783,2.763,3.841,2.763,3,0,4.523-1.064,4.523-2.726,0-1.724-1.711-2.31-4.163-2.561-2.106-.192-4.738-.623-4.738-3.087,0-1.639,1.16-3.469,4.8-3.469,2.643,0,4.379,1.424,4.379,3.254h-.886c-.059-1.471-1.532-2.44-3.53-2.44-2.848,0-3.864,1.328-3.864,2.656,0,1.495,1.448,2.082,4.176,2.309,1.878.191,4.749.659,4.749,3.3,0,2.237-1.914,3.59-5.467,3.59-2.739,0-4.726-1.818-4.726-3.59Z" transform="translate(-66.381 -2.286)" fill="#1a1818"/>
        </g>
    </g>
</svg>
