<svg xmlns="http://www.w3.org/2000/svg" width="26.712" height="15.582" viewBox="0 0 26.712 15.582"><path d="M26.1,6.055C26.284,5.447,26.1,5,25.215,5H22.293a1.262,1.262,0,0,0-1.272.812,23.91,23.91,0,0,1-3.591,5.868c-.681.67-.991.883-1.362.883-.186,0-.465-.213-.465-.821V6.055c0-.73-.2-1.055-.824-1.055H10.185a.7.7,0,0,0-.743.66c0,.691,1.053.851,1.161,2.8v4.227c0,.927-.17,1.1-.542,1.1-.991,0-3.4-3.574-4.83-7.663C4.953,5.321,4.672,5,3.926,5H1c-.835,0-1,.386-1,.812,0,.759.991,4.53,4.613,9.517,2.415,3.406,5.815,5.252,8.913,5.252,1.858,0,2.087-.41,2.087-1.116V16.891c0-.82.176-.984.765-.984.434,0,1.176.214,2.91,1.855,1.981,1.947,2.307,2.819,3.422,2.819h2.922c.835,0,1.253-.41,1.013-1.22A12.4,12.4,0,0,0,24.18,16c-.681-.79-1.7-1.642-2.013-2.068-.433-.546-.309-.79,0-1.277,0,0,3.562-4.926,3.932-6.6Z" transform="translate(0 -5)" fill="#2B2C2D" fill-rule="evenodd"/></svg>
